{
DisplayStrings = (
/tavhebrew,
/shinsindothebrew,
/tsadidageshhebrew,
"\U00F7",
/ampersant.salt
);
copyright = "Copyright (c) 2014 Monotype Imaging Inc. (licensing@monotype.com). All Rights Reserved.";
customParameters = (
{
name = macintoshFONDFamilyID;
value = 18572;
},
{
name = macintoshFONDName;
value = "David Hadash Biblical Bold";
},
{
name = openTypeHeadFlags;
value = (
);
},
{
name = openTypeNameDescription;
value = "";
},
{
name = openTypeNameLicense;
value = "";
},
{
name = openTypeNameLicenseURL;
value = "";
},
{
name = openTypeNameSampleText;
value = "";
},
{
name = openTypeNameUniqueID;
value = "";
},
{
name = openTypeNameVersion;
value = "";
},
{
name = openTypeOS2CodePageRanges;
value = (
    5,
    53
);
},
{
name = openTypeOS2FamilyClass;
value = (
    0,
    0
);
},
{
name = openTypeOS2Panose;
value = (
    0,
    0,
    0,
    0,
    0,
    0,
    0,
    0,
    0,
    0
);
},
{
name = openTypeOS2Selection;
value = (
);
},
{
name = openTypeOS2StrikeoutPosition;
value = 250;
},
{
name = openTypeOS2StrikeoutSize;
value = 50;
},
{
name = openTypeOS2SubscriptXOffset;
value = 0;
},
{
name = openTypeOS2SubscriptXSize;
value = 700;
},
{
name = openTypeOS2SubscriptYOffset;
value = 140;
},
{
name = openTypeOS2SubscriptYSize;
value = 650;
},
{
name = openTypeOS2SuperscriptXOffset;
value = 0;
},
{
name = openTypeOS2SuperscriptXSize;
value = 700;
},
{
name = openTypeOS2SuperscriptYOffset;
value = 477;
},
{
name = openTypeOS2SuperscriptYSize;
value = 650;
},
{
name = openTypeOS2Type;
value = (
    2
);
},
{
name = openTypeOS2UnicodeRanges;
value = (
    0,
    1,
    11,
    31,
    33,
    38,
    62
);
},
{
name = openTypeOS2VendorID;
value = PYRS;
},
{
name = postscriptBlueFuzz;
value = 1;
},
{
name = postscriptBlueScale;
value = 0.039625;
},
{
name = postscriptBlueShift;
value = 7;
},
{
name = postscriptForceBold;
value = 0;
},
{
name = postscriptIsFixedPitch;
value = 0;
},
{
name = postscriptUniqueID;
value = -1;
},
{
name = trademark;

glyphs = (
{
glyphname = uniFB4F;
lastChange = "2015-11-23 15:57:31 +0000";
layers = (
{
guideLines = (
{
position = "{-120, -31}";
},
{
position = "{-120, 1583}";
},
{
angle = 90;
position = "{132, 0}";
}
);
layerId = "BDAF7641-AC9B-4450-A8AE-7BAB26ED3EC6";
name = Bold;
paths = (
{
closed = 1;
nodes = (
"923 575 CURVE SMOOTH",
"928 570 OFFCURVE",
"935 563 OFFCURVE",
"940 563 CURVE SMOOTH",
"949 563 OFFCURVE",
"957 571 OFFCURVE",
"957 597 CURVE SMOOTH",
"957 655 OFFCURVE",
"949 725 OFFCURVE",
"930 773 CURVE SMOOTH",
"919 797 OFFCURVE",
"906 816 OFFCURVE",
"906 828 CURVE SMOOTH",
"906 837 OFFCURVE",
"909 848 OFFCURVE",
"916 855 CURVE SMOOTH",
"951 912 OFFCURVE",
"1017 1004 OFFCURVE",
"1087 1070 CURVE SMOOTH",
"1092 1075 OFFCURVE",
"1098 1081 OFFCURVE",
"1107 1081 CURVE SMOOTH",
"1116 1081 OFFCURVE",
"1123 1070 OFFCURVE",
"1128 1061 CURVE SMOOTH",
"1164 1000 OFFCURVE",
"1193 928 OFFCURVE",
"1193 833 CURVE SMOOTH",
"1193 756 OFFCURVE",
"1177 710 OFFCURVE",
"1152 655 CURVE SMOOTH",
"1126 597 OFFCURVE",
"1085 532 OFFCURVE",
"1042 472 CURVE SMOOTH",
"1041 468 OFFCURVE",
"1041 464 OFFCURVE",
"1041 462 CURVE SMOOTH",
"1041 457 OFFCURVE",
"1042 453 OFFCURVE",
"1046 450 CURVE SMOOTH",
"1119 375 OFFCURVE",
"1246 228 OFFCURVE",
"1252 219 CURVE SMOOTH",
"1258 212 OFFCURVE",
"1259 208 OFFCURVE",
"1259 204 CURVE SMOOTH",
"1259 195 OFFCURVE",
"1256 188 OFFCURVE",
"1252 179 CURVE SMOOTH",
"1222 102 OFFCURVE",
"1148 -18 OFFCURVE",
"1133 -34 CURVE SMOOTH",
"1128 -39 OFFCURVE",
"1123 -45 OFFCURVE",
"1116 -45 CURVE SMOOTH",
"1109 -45 OFFCURVE",
"1104 -39 OFFCURVE",
"1100 -36 CURVE SMOOTH",
"1027 48 OFFCURVE",
"914 174 OFFCURVE",
"776 310 CURVE SMOOTH",
"675 407 OFFCURVE",
"615 475 OFFCURVE",
"541 525 CURVE SMOOTH",
"535 529 OFFCURVE",
"530 532 OFFCURVE",
"524 532 CURVE SMOOTH",
"519 532 OFFCURVE",
"514 527 OFFCURVE",
"510 516 CURVE SMOOTH",
"466 337 OFFCURVE",
"435 99 OFFCURVE",
"247 16 CURVE SMOOTH",
"177 -14 OFFCURVE",
"97 -31 OFFCURVE",
"62 -31 CURVE SMOOTH",
"46 -31 OFFCURVE",
"39 -22 OFFCURVE",
"39 -4 CURVE SMOOTH",
"39 58 OFFCURVE",
"95 208 OFFCURVE",
"134 260 CURVE SMOOTH",
"145 274 OFFCURVE",
"150 277 OFFCURVE",
"167 282 CURVE SMOOTH",
"251 301 OFFCURVE",
"251 306 OFFCURVE",
"300 342 CURVE SMOOTH",
"335 366 OFFCURVE",
"338 432 OFFCURVE",
"338 554 CURVE SMOOTH",
"338 660 OFFCURVE",
"181 614 OFFCURVE",
"181 823 CURVE SMOOTH",
"181 831 OFFCURVE",
"179 876 OFFCURVE",
"179 903 CURVE SMOOTH",
"179 939 OFFCURVE",
"177 978 OFFCURVE",
"172 1011 CURVE SMOOTH",
"162 1057 OFFCURVE",
"152 1093 OFFCURVE",
"132 1127 CURVE SMOOTH",
"129 1134 OFFCURVE",
"126 1140 OFFCURVE",
"126 1147 CURVE SMOOTH",
"126 1152 OFFCURVE",
"129 1159 OFFCURVE",
"132 1166 CURVE SMOOTH",
"157 1217 OFFCURVE",
"251 1322 OFFCURVE",
"292 1362 CURVE SMOOTH",
"299 1369 OFFCURVE",
"306 1375 OFFCURVE",
"313 1375 CURVE SMOOTH",
"335 1375 OFFCURVE",
"355 1353 OFFCURVE",
"363 1322 CURVE SMOOTH",
"379 1267 OFFCURVE",
"376 1103 OFFCURVE",
"381 1057 CURVE SMOOTH",
"384 1014 OFFCURVE",
"440 961 OFFCURVE",
"496 930 CURVE SMOOTH",
"596 876 OFFCURVE",
"853 648 OFFCURVE"
);
}
);
width = 1286;
}
);
unicode = FB4F;
userData = {
com.typemytype.robofont.guides = (
{
angle = 0;
isGlobal = 0;
magnetic = 5;
x = 0;
y = -15;
},
{
angle = 0;
isGlobal = 0;
magnetic = 5;
x = 0;
y = 773;
},
{
angle = 90;
isGlobal = 0;
magnetic = 5;
x = 123;
y = 0;
}
);
};
},
{
glyphname = alefhebrew;
lastChange = "2015-11-23 15:57:31 +0000";
layers = (
{
layerId = "BDAF7641-AC9B-4450-A8AE-7BAB26ED3EC6";
name = Bold;
paths = (
{
closed = 1;
nodes = (
"132 36 CURVE SMOOTH",
"141 58 OFFCURVE",
"164 123 OFFCURVE",
"164 147 CURVE SMOOTH",
"164 212 OFFCURVE",
"181 326 OFFCURVE",
"191 373 CURVE SMOOTH",
"213 473 OFFCURVE",
"254 552 OFFCURVE",
"313 631 CURVE SMOOTH",
"315 633 OFFCURVE",
"319 640 OFFCURVE",
"319 643 CURVE SMOOTH",
"319 647 OFFCURVE",
"307 660 OFFCURVE",
"300 665 CURVE SMOOTH",
"251 710 OFFCURVE",
"155 788 OFFCURVE",
"119 819 CURVE SMOOTH",
"107 830 OFFCURVE",
"104 835 OFFCURVE",
"104 844 CURVE SMOOTH",
"104 850 OFFCURVE",
"105 855 OFFCURVE",
"107 858 CURVE SMOOTH",
"134 907 OFFCURVE",
"191 1004 OFFCURVE",
"249 1067 CURVE SMOOTH",
"258 1075 OFFCURVE",
"266 1081 OFFCURVE",
"277 1081 CURVE SMOOTH",
"285 1081 OFFCURVE",
"292 1077 OFFCURVE",
"299 1074 CURVE SMOOTH",
"420 997 OFFCURVE",
"685 749 OFFCURVE",
"858 575 CURVE SMOOTH",
"863 570 OFFCURVE",
"870 563 OFFCURVE",
"876 563 CURVE SMOOTH",
"885 563 OFFCURVE",
"892 571 OFFCURVE",
"892 597 CURVE SMOOTH",
"892 655 OFFCURVE",
"885 725 OFFCURVE",
"865 773 CURVE SMOOTH",
"854 797 OFFCURVE",
"842 816 OFFCURVE",
"842 828 CURVE SMOOTH",
"842 837 OFFCURVE",
"846 848 OFFCURVE",
"851 855 CURVE SMOOTH",
"887 912 OFFCURVE",
"953 1004 OFFCURVE",
"1022 1070 CURVE SMOOTH",
"1028 1075 OFFCURVE",
"1034 1081 OFFCURVE",
"1042 1081 CURVE SMOOTH",
"1051 1081 OFFCURVE",
"1058 1070 OFFCURVE",
"1064 1061 CURVE SMOOTH",
"1100 1000 OFFCURVE",
"1128 928 OFFCURVE",
"1128 833 CURVE SMOOTH",
"1128 756 OFFCURVE",
"1112 710 OFFCURVE",
"1087 655 CURVE SMOOTH",
"1063 597 OFFCURVE",
"1021 532 OFFCURVE",
"978 472 CURVE SMOOTH",
"976 468 OFFCURVE",
"976 464 OFFCURVE",
"976 462 CURVE SMOOTH",
"976 457 OFFCURVE",
"978 453 OFFCURVE",
"981 450 CURVE SMOOTH",
"1055 375 OFFCURVE",
"1182 228 OFFCURVE",
"1188 219 CURVE SMOOTH",
"1193 212 OFFCURVE",
"1195 208 OFFCURVE",
"1195 204 CURVE SMOOTH",
"1195 195 OFFCURVE",
"1191 188 OFFCURVE",
"1188 179 CURVE SMOOTH",
"1157 102 OFFCURVE",
"1084 -18 OFFCURVE",
"1070 -34 CURVE SMOOTH",
"1064 -39 OFFCURVE",
"1058 -45 OFFCURVE",
"1051 -45 CURVE SMOOTH",
"1044 -45 OFFCURVE",
"1039 -39 OFFCURVE",
"1035 -36 CURVE SMOOTH",
"962 48 OFFCURVE",
"849 171 OFFCURVE",
"711 306 CURVE SMOOTH",
"596 417 OFFCURVE",
"503 498 OFFCURVE",
"453 541 CURVE SMOOTH",
"442 550 OFFCURVE",
"433 559 OFFCURVE",
"428 559 CURVE SMOOTH",
"422 559 OFFCURVE",
"413 549 OFFCURVE",
"406 530 CURVE SMOOTH",
"399 509 OFFCURVE",
"383 438 OFFCURVE",
"383 382 CURVE SMOOTH",
"383 344 OFFCURVE",
"386 319 OFFCURVE",
"396 306 CURVE SMOOTH",
"403 298 OFFCURVE",
"419 294 OFFCURVE",
"426 294 CURVE SMOOTH",
"535 294 LINE",
"550 294 OFFCURVE",
"559 284 OFFCURVE",
"559 265 CURVE SMOOTH",
"559 236 OFFCURVE",
"496 89 OFFCURVE",
"454 27 CURVE SMOOTH",
"446 12 OFFCURVE",
"432 0 OFFCURVE",
"408 0 CURVE SMOOTH",
"146 0 LINE",
"134 0 OFFCURVE",
"126 5 OFFCURVE",
"126 16 CURVE SMOOTH",
"126 22 OFFCURVE",
"129 29 OFFCURVE"
);
}
);
width = 1221;
}
);
unicode = 05D0;
},
{
glyphname = bethebrew;
lastChange = "2015-11-23 15:57:31 +0000";
layers = (
{
layerId = "BDAF7641-AC9B-4450-A8AE-7BAB26ED3EC6";
name = Bold;
paths = (
{
closed = 1;
nodes = (
"28 55 CURVE SMOOTH",
"51 116 OFFCURVE",
"76 190 OFFCURVE",
"121 272 CURVE SMOOTH",
"132 292 OFFCURVE",
"146 299 OFFCURVE",
"172 299 CURVE SMOOTH",
"530 299 LINE",
"559 299 OFFCURVE",
"567 305 OFFCURVE",
"567 321 CURVE SMOOTH",
"567 393 OFFCURVE",
"562 552 OFFCURVE",
"553 611 CURVE SMOOTH",
"546 662 OFFCURVE",
"524 688 OFFCURVE",
"469 688 CURVE SMOOTH",
"121 688 LINE",
"95 688 OFFCURVE",
"41 690 OFFCURVE",
"41 733 CURVE SMOOTH",
"41 773 OFFCURVE",
"152 977 OFFCURVE",
"218 1057 CURVE SMOOTH",
"227 1068 OFFCURVE",
"237 1081 OFFCURVE",
"254 1081 CURVE SMOOTH",
"279 1081 OFFCURVE",
"279 1052 OFFCURVE",
"286 1027 CURVE SMOOTH",
"293 1000 OFFCURVE",
"306 989 OFFCURVE",
"324 989 CURVE SMOOTH",
"591 989 LINE SMOOTH",
"763 989 OFFCURVE",
"779 823 OFFCURVE",
"779 688 CURVE SMOOTH",
"779 545 OFFCURVE",
"781 501 OFFCURVE",
"781 423 CURVE SMOOTH",
"781 385 OFFCURVE",
"798 299 OFFCURVE",
"851 299 CURVE SMOOTH",
"887 299 LINE",
"901 299 OFFCURVE",
"917 291 OFFCURVE",
"917 263 CURVE SMOOTH",
"917 224 OFFCURVE",
"834 52 OFFCURVE",
"810 18 CURVE SMOOTH",
"798 5 OFFCURVE",
"790 0 OFFCURVE",
"772 0 CURVE SMOOTH",
"41 0 LINE",
"30 0 OFFCURVE",
"20 11 OFFCURVE",
"20 25 CURVE SMOOTH",
"20 29 OFFCURVE",
"23 41 OFFCURVE"
);
}
);
width = 936;
}
);
unicode = 05D1;
},
{
glyphname = gimelhebrew;
lastChange = "2015-11-23 15:57:31 +0000";
layers = (
{
layerId = "BDAF7641-AC9B-4450-A8AE-7BAB26ED3EC6";
name = Bold;
paths = (
{
closed = 1;
nodes = (
"39 197 CURVE SMOOTH",
"44 215 OFFCURVE",
"55 228 OFFCURVE",
"69 235 CURVE SMOOTH",
"114 262 OFFCURVE",
"182 298 OFFCURVE",
"247 351 CURVE SMOOTH",
"286 385 OFFCURVE",
"338 434 OFFCURVE",
"338 460 CURVE SMOOTH",
"338 484 OFFCURVE",
"313 570 OFFCURVE",
"306 588 CURVE SMOOTH",
"297 613 OFFCURVE",
"275 638 OFFCURVE",
"256 658 CURVE SMOOTH",
"211 703 OFFCURVE",
"111 774 OFFCURVE",
"44 817 CURVE SMOOTH",
"39 821 OFFCURVE",
"34 828 OFFCURVE",
"34 835 CURVE SMOOTH",
"34 838 OFFCURVE",
"35 846 OFFCURVE",
"41 855 CURVE SMOOTH",
"87 932 OFFCURVE",
"126 991 OFFCURVE",
"184 1062 CURVE SMOOTH",
"191 1072 OFFCURVE",
"206 1081 OFFCURVE",
"213 1081 CURVE SMOOTH",
"216 1081 OFFCURVE",
"220 1079 OFFCURVE",
"225 1077 CURVE SMOOTH",
"270 1054 OFFCURVE",
"369 984 OFFCURVE",
"415 930 CURVE SMOOTH",
"451 889 OFFCURVE",
"485 816 OFFCURVE",
"499 761 CURVE SMOOTH",
"523 676 OFFCURVE",
"550 511 OFFCURVE",
"571 340 CURVE SMOOTH",
"574 310 OFFCURVE",
"579 287 OFFCURVE",
"579 269 CURVE SMOOTH",
"579 256 OFFCURVE",
"579 240 OFFCURVE",
"574 224 CURVE SMOOTH",
"566 169 OFFCURVE",
"523 32 OFFCURVE",
"496 -24 CURVE SMOOTH",
"489 -38 OFFCURVE",
"476 -45 OFFCURVE",
"466 -45 CURVE SMOOTH",
"456 -45 OFFCURVE",
"447 -36 OFFCURVE",
"446 -25 CURVE SMOOTH",
"442 -4 OFFCURVE",
"377 310 OFFCURVE",
"372 328 CURVE SMOOTH",
"370 332 OFFCURVE",
"370 337 OFFCURVE",
"367 337 CURVE SMOOTH",
"360 337 OFFCURVE",
"355 326 OFFCURVE",
"353 319 CURVE SMOOTH",
"343 272 OFFCURVE",
"313 186 OFFCURVE",
"307 171 CURVE SMOOTH",
"297 140 OFFCURVE",
"266 88 OFFCURVE",
"239 65 CURVE SMOOTH",
"186 18 OFFCURVE",
"66 -45 OFFCURVE",
"27 -45 CURVE SMOOTH",
"3 -45 OFFCURVE",
"-6 -39 OFFCURVE",
"-6 -20 CURVE SMOOTH",
"-6 24 OFFCURVE",
"28 156 OFFCURVE"
);
}
);
width = 650;
}
);
unicode = 05D2;
},
{
glyphname = dalethebrew;
lastChange = "2015-11-23 15:57:31 +0000";
layers = (
{
layerId = "BDAF7641-AC9B-4450-A8AE-7BAB26ED3EC6";
name = Bold;
paths = (
{
closed = 1;
nodes = (
"501 663 CURVE SMOOTH",
"497 690 OFFCURVE",
"475 690 OFFCURVE",
"468 690 CURVE SMOOTH",
"69 690 LINE",
"51 690 OFFCURVE",
"23 701 OFFCURVE",
"23 735 CURVE SMOOTH",
"23 785 OFFCURVE",
"155 1018 OFFCURVE",
"184 1055 CURVE SMOOTH",
"195 1072 OFFCURVE",
"202 1081 OFFCURVE",
"218 1081 CURVE SMOOTH",
"230 1081 OFFCURVE",
"239 1072 OFFCURVE",
"245 1065 CURVE SMOOTH",
"263 1036 OFFCURVE",
"251 991 OFFCURVE",
"304 991 CURVE SMOOTH",
"526 991 LINE",
"548 991 OFFCURVE",
"564 1019 OFFCURVE",
"594 1041 CURVE SMOOTH",
"618 1059 OFFCURVE",
"652 1081 OFFCURVE",
"678 1081 CURVE SMOOTH",
"702 1081 OFFCURVE",
"706 1057 OFFCURVE",
"706 1040 CURVE",
"706 1004 LINE",
"706 995 OFFCURVE",
"713 991 OFFCURVE",
"727 991 CURVE",
"834 991 LINE",
"856 991 OFFCURVE",
"874 975 OFFCURVE",
"874 937 CURVE SMOOTH",
"874 879 OFFCURVE",
"840 767 OFFCURVE",
"804 704 CURVE SMOOTH",
"798 694 OFFCURVE",
"786 688 OFFCURVE",
"765 688 CURVE",
"741 688 LINE",
"725 688 OFFCURVE",
"720 672 OFFCURVE",
"720 663 CURVE SMOOTH",
"729 459 OFFCURVE",
"731 403 OFFCURVE",
"733 256 CURVE SMOOTH",
"733 233 OFFCURVE",
"731 215 OFFCURVE",
"721 185 CURVE SMOOTH",
"704 123 OFFCURVE",
"629 9 OFFCURVE",
"593 -32 CURVE SMOOTH",
"584 -41 OFFCURVE",
"574 -45 OFFCURVE",
"569 -45 CURVE SMOOTH",
"550 -45 OFFCURVE",
"543 -24 OFFCURVE",
"541 -2 CURVE SMOOTH",
"528 207 OFFCURVE",
"519 509 OFFCURVE"
);
}
);
width = 936;
}
);
unicode = 05D3;
},
{
glyphname = hehebrew;
lastChange = "2015-11-23 15:57:31 +0000";
layers = (
{
layerId = "BDAF7641-AC9B-4450-A8AE-7BAB26ED3EC6";
name = Bold;
paths = (
{
closed = 1;
nodes = (
"832 593 CURVE SMOOTH",
"829 627 OFFCURVE",
"808 696 OFFCURVE",
"721 696 CURVE",
"93 696 LINE",
"55 696 OFFCURVE",
"42 710 OFFCURVE",
"42 727 CURVE SMOOTH",
"42 744 OFFCURVE",
"61 783 OFFCURVE",
"78 826 CURVE SMOOTH",
"118 914 OFFCURVE",
"177 1004 OFFCURVE",
"223 1065 CURVE SMOOTH",
"230 1074 OFFCURVE",
"245 1081 OFFCURVE",
"261 1081 CURVE SMOOTH",
"277 1081 OFFCURVE",
"286 1070 OFFCURVE",
"290 1059 CURVE SMOOTH",
"300 1029 OFFCURVE",
"304 989 OFFCURVE",
"340 989 CURVE",
"840 989 LINE",
"965 989 OFFCURVE",
"1025 896 OFFCURVE",
"1039 788 CURVE SMOOTH",
"1053 688 OFFCURVE",
"1060 462 OFFCURVE",
"1060 212 CURVE SMOOTH",
"1060 199 OFFCURVE",
"1058 185 OFFCURVE",
"1055 174 CURVE SMOOTH",
"1041 129 OFFCURVE",
"971 11 OFFCURVE",
"924 -29 CURVE SMOOTH",
"911 -39 OFFCURVE",
"901 -45 OFFCURVE",
"892 -45 CURVE SMOOTH",
"878 -45 OFFCURVE",
"867 -29 OFFCURVE",
"867 4 CURVE SMOOTH",
"863 212 OFFCURVE",
"847 448 OFFCURVE"
);
},
{
closed = 1;
nodes = (
"182 351 CURVE SMOOTH",
"182 373 OFFCURVE",
"188 385 OFFCURVE",
"196 403 CURVE SMOOTH",
"215 441 OFFCURVE",
"263 518 OFFCURVE",
"300 561 CURVE SMOOTH",
"321 583 OFFCURVE",
"336 599 OFFCURVE",
"353 599 CURVE SMOOTH",
"374 599 OFFCURVE",
"374 583 OFFCURVE",
"376 573 CURVE SMOOTH",
"386 529 OFFCURVE",
"405 270 OFFCURVE",
"405 214 CURVE SMOOTH",
"405 195 OFFCURVE",
"403 183 OFFCURVE",
"394 158 CURVE SMOOTH",
"374 99 OFFCURVE",
"290 -7 OFFCURVE",
"254 -38 CURVE SMOOTH",
"247 -43 OFFCURVE",
"239 -45 OFFCURVE",
"234 -45 CURVE SMOOTH",
"216 -45 OFFCURVE",
"216 -27 OFFCURVE",
"215 -14 CURVE SMOOTH",
"202 70 OFFCURVE",
"182 298 OFFCURVE"
);
}
);
width = 1221;
}
);
unicode = 05D4;
},
{
glyphname = vavhebrew;
lastChange = "2015-11-23 15:57:31 +0000";
layers = (
{
layerId = "BDAF7641-AC9B-4450-A8AE-7BAB26ED3EC6";
name = Bold;
paths = (
{
closed = 1;
nodes = (
"286 556 CURVE SMOOTH",
"281 592 OFFCURVE",
"252 655 OFFCURVE",
"208 694 CURVE SMOOTH",
"145 749 OFFCURVE",
"95 780 OFFCURVE",
"75 795 CURVE SMOOTH",
"68 801 OFFCURVE",
"62 809 OFFCURVE",
"62 819 CURVE SMOOTH",
"62 826 OFFCURVE",
"64 833 OFFCURVE",
"69 843 CURVE SMOOTH",
"116 925 OFFCURVE",
"175 1016 OFFCURVE",
"239 1072 CURVE SMOOTH",
"247 1077 OFFCURVE",
"254 1079 OFFCURVE",
"261 1079 CURVE SMOOTH",
"266 1079 OFFCURVE",
"272 1077 OFFCURVE",
"279 1074 CURVE SMOOTH",
"329 1047 OFFCURVE",
"428 932 OFFCURVE",
"453 891 CURVE SMOOTH",
"471 862 OFFCURVE",
"509 805 OFFCURVE",
"519 674 CURVE SMOOTH",
"528 581 OFFCURVE",
"530 473 OFFCURVE",
"530 383 CURVE SMOOTH",
"530 330 OFFCURVE",
"530 279 OFFCURVE",
"528 238 CURVE SMOOTH",
"526 208 OFFCURVE",
"528 186 OFFCURVE",
"512 149 CURVE SMOOTH",
"490 97 OFFCURVE",
"432 12 OFFCURVE",
"399 -27 CURVE SMOOTH",
"388 -39 OFFCURVE",
"376 -45 OFFCURVE",
"367 -45 CURVE SMOOTH",
"347 -45 OFFCURVE",
"338 -16 OFFCURVE",
"336 12 CURVE SMOOTH",
"331 161 OFFCURVE",
"302 462 OFFCURVE"
);
}
);
width = 650;
}
);
unicode = 05D5;
},
{
glyphname = zayinhebrew;
lastChange = "2015-11-23 15:57:31 +0000";
layers = (
{
layerId = "BDAF7641-AC9B-4450-A8AE-7BAB26ED3EC6";
name = Bold;
paths = (
{
closed = 1;
nodes = (
"150 479 CURVE SMOOTH",
"146 493 OFFCURVE",
"145 506 OFFCURVE",
"145 518 CURVE SMOOTH",
"145 547 OFFCURVE",
"150 556 OFFCURVE",
"160 586 CURVE SMOOTH",
"184 650 OFFCURVE",
"211 706 OFFCURVE",
"211 732 CURVE SMOOTH",
"211 744 OFFCURVE",
"208 751 OFFCURVE",
"195 758 CURVE SMOOTH",
"170 774 OFFCURVE",
"102 801 OFFCURVE",
"83 810 CURVE SMOOTH",
"59 821 OFFCURVE",
"57 838 OFFCURVE",
"57 851 CURVE SMOOTH",
"57 884 OFFCURVE",
"164 1029 OFFCURVE",
"195 1062 CURVE SMOOTH",
"206 1075 OFFCURVE",
"223 1079 OFFCURVE",
"234 1079 CURVE SMOOTH",
"242 1079 OFFCURVE",
"256 1077 OFFCURVE",
"270 1070 CURVE SMOOTH",
"388 1012 OFFCURVE",
"482 948 OFFCURVE",
"574 850 CURVE SMOOTH",
"589 833 OFFCURVE",
"593 821 OFFCURVE",
"593 812 CURVE SMOOTH",
"593 805 OFFCURVE",
"589 799 OFFCURVE",
"587 792 CURVE SMOOTH",
"574 754 OFFCURVE",
"528 647 OFFCURVE",
"487 583 CURVE SMOOTH",
"483 577 OFFCURVE",
"478 573 OFFCURVE",
"471 573 CURVE SMOOTH",
"466 573 OFFCURVE",
"458 575 OFFCURVE",
"451 581 CURVE SMOOTH",
"430 602 OFFCURVE",
"363 662 OFFCURVE",
"347 662 CURVE SMOOTH",
"338 662 OFFCURVE",
"333 652 OFFCURVE",
"333 641 CURVE SMOOTH",
"333 633 OFFCURVE",
"335 626 OFFCURVE",
"336 614 CURVE SMOOTH",
"355 508 OFFCURVE",
"419 359 OFFCURVE",
"453 258 CURVE SMOOTH",
"461 235 OFFCURVE",
"466 222 OFFCURVE",
"466 212 CURVE SMOOTH",
"466 200 OFFCURVE",
"461 192 OFFCURVE",
"458 179 CURVE SMOOTH",
"432 84 OFFCURVE",
"388 0 OFFCURVE",
"367 -29 CURVE SMOOTH",
"363 -34 OFFCURVE",
"355 -45 OFFCURVE",
"347 -45 CURVE SMOOTH",
"333 -45 OFFCURVE",
"321 -32 OFFCURVE",
"309 0 CURVE SMOOTH",
"244 186 OFFCURVE",
"167 393 OFFCURVE"
);
}
);
width = 650;
}
);
unicode = 05D6;
},
{
glyphname = hethebrew;
lastChange = "2015-11-23 15:57:31 +0000";
layers = (
{
layerId = "BDAF7641-AC9B-4450-A8AE-7BAB26ED3EC6";
name = Bold;
paths = (
{
closed = 1;
nodes = (
"126 758 CURVE SMOOTH",
"125 767 OFFCURVE",
"123 774 OFFCURVE",
"123 781 CURVE SMOOTH",
"123 788 OFFCURVE",
"126 795 OFFCURVE",
"129 801 CURVE SMOOTH",
"157 865 OFFCURVE",
"237 989 OFFCURVE",
"306 1065 CURVE SMOOTH",
"313 1074 OFFCURVE",
"321 1081 OFFCURVE",
"333 1081 CURVE SMOOTH",
"355 1081 OFFCURVE",
"362 1065 OFFCURVE",
"370 1029 CURVE SMOOTH",
"377 997 OFFCURVE",
"401 991 OFFCURVE",
"433 991 CURVE SMOOTH",
"707 991 LINE SMOOTH",
"942 991 OFFCURVE",
"1096 799 OFFCURVE",
"1114 561 CURVE SMOOTH",
"1125 417 OFFCURVE",
"1125 337 OFFCURVE",
"1125 229 CURVE SMOOTH",
"1125 200 OFFCURVE",
"1123 183 OFFCURVE",
"1116 166 CURVE SMOOTH",
"1094 106 OFFCURVE",
"1025 5 OFFCURVE",
"991 -32 CURVE SMOOTH",
"981 -43 OFFCURVE",
"971 -46 OFFCURVE",
"958 -46 CURVE SMOOTH",
"945 -46 OFFCURVE",
"937 -27 OFFCURVE",
"935 4 CURVE SMOOTH",
"930 70 OFFCURVE",
"916 340 OFFCURVE",
"895 459 CURVE SMOOTH",
"876 583 OFFCURVE",
"765 690 OFFCURVE",
"630 690 CURVE SMOOTH",
"420 690 LINE",
"399 690 OFFCURVE",
"386 677 OFFCURVE",
"386 658 CURVE SMOOTH",
"386 529 OFFCURVE",
"399 403 OFFCURVE",
"399 279 CURVE SMOOTH",
"399 242 OFFCURVE",
"399 183 OFFCURVE",
"386 161 CURVE SMOOTH",
"356 101 OFFCURVE",
"297 -7 OFFCURVE",
"247 -39 CURVE SMOOTH",
"239 -43 OFFCURVE",
"234 -45 OFFCURVE",
"229 -45 CURVE SMOOTH",
"216 -45 OFFCURVE",
"209 -34 OFFCURVE",
"209 -22 CURVE SMOOTH",
"189 248 OFFCURVE",
"184 509 OFFCURVE"
);
}
);
width = 1221;
}
);
unicode = 05D7;
},
{
glyphname = tethebrew;
lastChange = "2015-11-23 15:57:31 +0000";
layers = (
{
layerId = "BDAF7641-AC9B-4450-A8AE-7BAB26ED3EC6";
name = Bold;
paths = (
{
closed = 1;
nodes = (
"273 197 CURVE SMOOTH",
"239 323 OFFCURVE",
"211 441 OFFCURVE",
"189 516 CURVE SMOOTH",
"167 595 OFFCURVE",
"129 701 OFFCURVE",
"75 794 CURVE SMOOTH",
"69 803 OFFCURVE",
"66 816 OFFCURVE",
"66 823 CURVE SMOOTH",
"66 830 OFFCURVE",
"68 838 OFFCURVE",
"75 851 CURVE SMOOTH",
"136 959 OFFCURVE",
"196 1040 OFFCURVE",
"218 1061 CURVE SMOOTH",
"230 1074 OFFCURVE",
"239 1079 OFFCURVE",
"251 1079 CURVE SMOOTH",
"265 1079 OFFCURVE",
"273 1072 OFFCURVE",
"283 1061 CURVE SMOOTH",
"307 1029 OFFCURVE",
"340 951 OFFCURVE",
"374 801 CURVE SMOOTH",
"410 641 OFFCURVE",
"428 475 OFFCURVE",
"446 398 CURVE SMOOTH",
"471 287 OFFCURVE",
"517 262 OFFCURVE",
"584 262 CURVE SMOOTH",
"690 262 OFFCURVE",
"822 337 OFFCURVE",
"867 373 CURVE SMOOTH",
"917 414 OFFCURVE",
"924 494 OFFCURVE",
"924 549 CURVE SMOOTH",
"924 683 OFFCURVE",
"811 740 OFFCURVE",
"714 740 CURVE SMOOTH",
"652 740 OFFCURVE",
"593 715 OFFCURVE",
"552 688 CURVE SMOOTH",
"533 676 OFFCURVE",
"517 662 OFFCURVE",
"507 662 CURVE SMOOTH",
"499 662 OFFCURVE",
"490 665 OFFCURVE",
"490 681 CURVE SMOOTH",
"490 725 OFFCURVE",
"530 850 OFFCURVE",
"569 920 CURVE SMOOTH",
"584 946 OFFCURVE",
"594 961 OFFCURVE",
"620 975 CURVE SMOOTH",
"680 1011 OFFCURVE",
"761 1041 OFFCURVE",
"854 1041 CURVE SMOOTH",
"1058 1041 OFFCURVE",
"1161 872 OFFCURVE",
"1161 697 CURVE SMOOTH",
"1161 536 OFFCURVE",
"1075 361 OFFCURVE",
"1042 299 CURVE SMOOTH",
"979 178 OFFCURVE",
"933 127 OFFCURVE",
"834 68 CURVE SMOOTH",
"747 14 OFFCURVE",
"637 -36 OFFCURVE",
"510 -36 CURVE SMOOTH",
"463 -36 OFFCURVE",
"403 -18 OFFCURVE",
"360 18 CURVE SMOOTH",
"309 60 OFFCURVE",
"286 156 OFFCURVE"
);
}
);
width = 1221;
}
);
unicode = 05D8;
},
{
glyphname = yodhebrew;
lastChange = "2015-11-23 15:57:31 +0000";
layers = (
{
layerId = "BDAF7641-AC9B-4450-A8AE-7BAB26ED3EC6";
name = Bold;
paths = (
{
closed = 1;
nodes = (
"222 260 CURVE SMOOTH",
"261 339 OFFCURVE",
"335 448 OFFCURVE",
"335 501 CURVE SMOOTH",
"335 543 OFFCURVE",
"326 592 OFFCURVE",
"290 629 CURVE SMOOTH",
"216 706 OFFCURVE",
"112 765 OFFCURVE",
"71 805 CURVE SMOOTH",
"62 816 OFFCURVE",
"57 823 OFFCURVE",
"57 831 CURVE SMOOTH",
"57 838 OFFCURVE",
"61 848 OFFCURVE",
"68 860 CURVE SMOOTH",
"93 910 OFFCURVE",
"186 1025 OFFCURVE",
"225 1061 CURVE SMOOTH",
"244 1077 OFFCURVE",
"251 1079 OFFCURVE",
"258 1079 CURVE SMOOTH",
"266 1079 OFFCURVE",
"273 1075 OFFCURVE",
"275 1074 CURVE SMOOTH",
"345 1033 OFFCURVE",
"485 921 OFFCURVE",
"541 846 CURVE SMOOTH",
"573 803 OFFCURVE",
"601 753 OFFCURVE",
"601 684 CURVE SMOOTH",
"601 597 OFFCURVE",
"552 498 OFFCURVE",
"517 445 CURVE SMOOTH",
"461 355 OFFCURVE",
"358 282 OFFCURVE",
"261 244 CURVE SMOOTH",
"252 240 OFFCURVE",
"242 236 OFFCURVE",
"236 236 CURVE SMOOTH",
"225 236 OFFCURVE",
"220 242 OFFCURVE",
"220 251 CURVE SMOOTH",
"220 253 OFFCURVE",
"220 256 OFFCURVE"
);
}
);
width = 650;
}
);
unicode = 05D9;
},
{
glyphname = finalkafhebrew;
lastChange = "2015-11-23 15:57:31 +0000";
layers = (
{
layerId = "BDAF7641-AC9B-4450-A8AE-7BAB26ED3EC6";
name = Bold;
paths = (
{
closed = 1;
nodes = (
"501 638 CURVE SMOOTH",
"499 672 OFFCURVE",
"482 686 OFFCURVE",
"439 686 CURVE SMOOTH",
"125 686 LINE",
"95 686 OFFCURVE",
"37 686 OFFCURVE",
"37 733 CURVE SMOOTH",
"37 767 OFFCURVE",
"145 977 OFFCURVE",
"218 1061 CURVE SMOOTH",
"229 1072 OFFCURVE",
"244 1081 OFFCURVE",
"251 1081 CURVE SMOOTH",
"270 1081 OFFCURVE",
"279 1067 OFFCURVE",
"283 1047 CURVE SMOOTH",
"292 1000 OFFCURVE",
"313 989 OFFCURVE",
"358 989 CURVE SMOOTH",
"844 989 LINE",
"883 989 OFFCURVE",
"899 980 OFFCURVE",
"899 959 CURVE SMOOTH",
"899 941 OFFCURVE",
"861 805 OFFCURVE",
"813 717 CURVE SMOOTH",
"804 701 OFFCURVE",
"795 692 OFFCURVE",
"779 686 CURVE",
"738 672 LINE",
"723 665 OFFCURVE",
"716 650 OFFCURVE",
"716 634 CURVE SMOOTH",
"716 450 OFFCURVE",
"729 142 OFFCURVE",
"729 -142 CURVE SMOOTH",
"729 -174 OFFCURVE",
"729 -188 OFFCURVE",
"714 -224 CURVE SMOOTH",
"700 -260 OFFCURVE",
"627 -373 OFFCURVE",
"589 -403 CURVE SMOOTH",
"582 -409 OFFCURVE",
"574 -412 OFFCURVE",
"567 -412 CURVE SMOOTH",
"555 -412 OFFCURVE",
"546 -405 OFFCURVE",
"545 -389 CURVE SMOOTH",
"517 -67 OFFCURVE",
"517 282 OFFCURVE"
);
}
);
width = 936;
}
);
unicode = 05DA;
},
{
glyphname = kafhebrew;
lastChange = "2015-11-23 15:57:31 +0000";
layers = (
{
layerId = "BDAF7641-AC9B-4450-A8AE-7BAB26ED3EC6";
name = Bold;
paths = (
{
closed = 1;
nodes = (
"119 270 CURVE SMOOTH",
"138 299 OFFCURVE",
"159 301 OFFCURVE",
"175 301 CURVE SMOOTH",
"517 301 LINE",
"571 301 OFFCURVE",
"627 351 OFFCURVE",
"627 446 CURVE SMOOTH",
"627 586 OFFCURVE",
"541 690 OFFCURVE",
"401 690 CURVE SMOOTH",
"123 690 LINE",
"68 690 OFFCURVE",
"30 699 OFFCURVE",
"30 733 CURVE SMOOTH",
"30 787 OFFCURVE",
"157 1011 OFFCURVE",
"200 1054 CURVE SMOOTH",
"218 1072 OFFCURVE",
"227 1081 OFFCURVE",
"245 1081 CURVE SMOOTH",
"258 1081 OFFCURVE",
"272 1065 OFFCURVE",
"275 1043 CURVE SMOOTH",
"285 997 OFFCURVE",
"292 991 OFFCURVE",
"321 991 CURVE SMOOTH",
"559 991 LINE SMOOTH",
"767 991 OFFCURVE",
"868 776 OFFCURVE",
"868 600 CURVE SMOOTH",
"868 498 OFFCURVE",
"860 421 OFFCURVE",
"815 308 CURVE SMOOTH",
"772 202 OFFCURVE",
"695 79 OFFCURVE",
"637 27 CURVE SMOOTH",
"618 9 OFFCURVE",
"603 0 OFFCURVE",
"566 0 CURVE SMOOTH",
"51 0 LINE",
"25 0 OFFCURVE",
"13 5 OFFCURVE",
"13 29 CURVE SMOOTH",
"13 67 OFFCURVE",
"93 233 OFFCURVE"
);
}
);
width = 936;
}
);
unicode = 05DB;
},
{
glyphname = lamedhebrew;
lastChange = "2015-11-23 15:57:31 +0000";
layers = (
{
guideLines = (
{
position = "{-120, -51}";
}
);
layerId = "BDAF7641-AC9B-4450-A8AE-7BAB26ED3EC6";
name = Bold;
paths = (
{
closed = 1;
nodes = (
"273 265 CURVE SMOOTH",
"285 279 OFFCURVE",
"290 284 OFFCURVE",
"306 287 CURVE SMOOTH",
"391 306 OFFCURVE",
"526 362 OFFCURVE",
"571 412 CURVE SMOOTH",
"607 455 OFFCURVE",
"625 515 OFFCURVE",
"625 581 CURVE SMOOTH",
"625 648 OFFCURVE",
"603 688 OFFCURVE",
"541 688 CURVE SMOOTH",
"216 688 LINE SMOOTH",
"97 688 OFFCURVE",
"80 722 OFFCURVE",
"80 830 CURVE SMOOTH",
"80 838 OFFCURVE",
"82 879 OFFCURVE",
"82 905 CURVE SMOOTH",
"82 941 OFFCURVE",
"80 980 OFFCURVE",
"75 1012 CURVE SMOOTH",
"66 1059 OFFCURVE",
"55 1095 OFFCURVE",
"35 1129 CURVE SMOOTH",
"32 1136 OFFCURVE",
"30 1142 OFFCURVE",
"30 1149 CURVE SMOOTH",
"30 1154 OFFCURVE",
"32 1161 OFFCURVE",
"35 1168 CURVE SMOOTH",
"61 1219 OFFCURVE",
"153 1324 OFFCURVE",
"195 1364 CURVE SMOOTH",
"202 1371 OFFCURVE",
"209 1376 OFFCURVE",
"216 1376 CURVE SMOOTH",
"237 1376 OFFCURVE",
"258 1355 OFFCURVE",
"266 1324 CURVE SMOOTH",
"283 1269 OFFCURVE",
"285 1104 OFFCURVE",
"285 1059 CURVE SMOOTH",
"285 1007 OFFCURVE",
"321 989 OFFCURVE",
"386 989 CURVE",
"752 989 LINE SMOOTH",
"839 989 OFFCURVE",
"878 941 OFFCURVE",
"878 860 CURVE SMOOTH",
"878 720 OFFCURVE",
"840 588 OFFCURVE",
"806 482 CURVE SMOOTH",
"741 284 OFFCURVE",
"603 108 OFFCURVE",
"419 27 CURVE SMOOTH",
"349 -4 OFFCURVE",
"220 -45 OFFCURVE",
"186 -45 CURVE SMOOTH",
"170 -45 OFFCURVE",
"162 -36 OFFCURVE",
"162 -18 CURVE SMOOTH",
"162 43 OFFCURVE",
"234 214 OFFCURVE"
);
}
);
width = 936;
}
);
unicode = 05DC;
userData = {
com.typemytype.robofont.guides = (
{
angle = 0;
isGlobal = 0;
magnetic = 5;
x = 0;
y = -25;
}
);
};
},
{
glyphname = finalmemhebrew;
lastChange = "2015-11-23 15:57:31 +0000";
layers = (
{
layerId = "BDAF7641-AC9B-4450-A8AE-7BAB26ED3EC6";
name = Bold;
paths = (
{
closed = 1;
nodes = (
"159 285 CURVE SMOOTH",
"159 359 OFFCURVE",
"148 599 OFFCURVE",
"139 643 CURVE SMOOTH",
"136 663 OFFCURVE",
"126 677 OFFCURVE",
"100 684 CURVE SMOOTH",
"89 686 OFFCURVE",
"62 686 OFFCURVE",
"48 690 CURVE SMOOTH",
"37 692 OFFCURVE",
"28 703 OFFCURVE",
"28 717 CURVE SMOOTH",
"28 725 OFFCURVE",
"41 756 OFFCURVE",
"46 769 CURVE SMOOTH",
"82 851 OFFCURVE",
"152 975 OFFCURVE",
"200 1038 CURVE SMOOTH",
"220 1065 OFFCURVE",
"236 1081 OFFCURVE",
"258 1081 CURVE SMOOTH",
"272 1081 OFFCURVE",
"288 1067 OFFCURVE",
"293 1048 CURVE SMOOTH",
"307 998 OFFCURVE",
"328 991 OFFCURVE",
"363 991 CURVE SMOOTH",
"878 991 LINE SMOOTH",
"1053 991 OFFCURVE",
"1085 838 OFFCURVE",
"1094 735 CURVE SMOOTH",
"1105 607 OFFCURVE",
"1107 545 OFFCURVE",
"1109 409 CURVE SMOOTH",
"1109 355 OFFCURVE",
"1107 312 OFFCURVE",
"1094 263 CURVE SMOOTH",
"1070 171 OFFCURVE",
"1048 91 OFFCURVE",
"1001 22 CURVE SMOOTH",
"991 4 OFFCURVE",
"976 0 OFFCURVE",
"953 0 CURVE SMOOTH",
"311 0 LINE",
"265 0 OFFCURVE",
"225 22 OFFCURVE",
"195 70 CURVE SMOOTH",
"164 120 OFFCURVE",
"159 228 OFFCURVE"
);
},
{
closed = 1;
nodes = (
"456 301 CURVE SMOOTH",
"865 301 LINE",
"892 301 OFFCURVE",
"895 337 OFFCURVE",
"895 346 CURVE SMOOTH",
"895 409 OFFCURVE",
"890 541 OFFCURVE",
"874 607 CURVE SMOOTH",
"861 658 OFFCURVE",
"806 690 OFFCURVE",
"755 690 CURVE SMOOTH",
"403 690 LINE",
"370 690 OFFCURVE",
"356 674 OFFCURVE",
"356 638 CURVE SMOOTH",
"356 588 OFFCURVE",
"365 431 OFFCURVE",
"381 366 CURVE SMOOTH",
"392 319 OFFCURVE",
"413 301 OFFCURVE"
);
}
);
width = 1221;
}
);
unicode = 05DD;
},
{
glyphname = memhebrew;
lastChange = "2015-11-23 15:57:31 +0000";
layers = (
{
layerId = "BDAF7641-AC9B-4450-A8AE-7BAB26ED3EC6";
name = Bold;
paths = (
{
closed = 1;
nodes = (
"112 -12 CURVE SMOOTH",
"112 9 OFFCURVE",
"162 188 OFFCURVE",
"186 276 CURVE SMOOTH",
"208 349 OFFCURVE",
"236 466 OFFCURVE",
"236 529 CURVE SMOOTH",
"236 556 OFFCURVE",
"227 585 OFFCURVE",
"220 602 CURVE SMOOTH",
"204 645 OFFCURVE",
"153 725 OFFCURVE",
"105 785 CURVE SMOOTH",
"98 794 OFFCURVE",
"93 799 OFFCURVE",
"93 809 CURVE SMOOTH",
"93 814 OFFCURVE",
"95 823 OFFCURVE",
"100 833 CURVE SMOOTH",
"119 871 OFFCURVE",
"189 978 OFFCURVE",
"261 1068 CURVE SMOOTH",
"268 1077 OFFCURVE",
"279 1081 OFFCURVE",
"286 1081 CURVE SMOOTH",
"295 1081 OFFCURVE",
"302 1075 OFFCURVE",
"311 1065 CURVE SMOOTH",
"367 998 OFFCURVE",
"410 910 OFFCURVE",
"430 858 CURVE SMOOTH",
"449 801 OFFCURVE",
"466 715 OFFCURVE",
"466 711 CURVE SMOOTH",
"466 710 OFFCURVE",
"468 708 OFFCURVE",
"469 708 CURVE SMOOTH",
"473 708 OFFCURVE",
"476 710 OFFCURVE",
"478 715 CURVE SMOOTH",
"507 778 OFFCURVE",
"559 901 OFFCURVE",
"616 957 CURVE SMOOTH",
"670 1009 OFFCURVE",
"725 1034 OFFCURVE",
"798 1034 CURVE SMOOTH",
"890 1034 OFFCURVE",
"981 984 OFFCURVE",
"1049 887 CURVE SMOOTH",
"1140 763 OFFCURVE",
"1154 585 OFFCURVE",
"1154 464 CURVE SMOOTH",
"1154 400 OFFCURVE",
"1152 355 OFFCURVE",
"1147 312 CURVE SMOOTH",
"1138 226 OFFCURVE",
"1089 101 OFFCURVE",
"1046 31 CURVE SMOOTH",
"1030 5 OFFCURVE",
"1015 0 OFFCURVE",
"987 0 CURVE SMOOTH",
"476 0 LINE",
"456 0 OFFCURVE",
"440 4 OFFCURVE",
"440 29 CURVE SMOOTH",
"440 32 OFFCURVE",
"449 58 OFFCURVE",
"458 77 CURVE SMOOTH",
"490 149 OFFCURVE",
"545 246 OFFCURVE",
"574 284 CURVE SMOOTH",
"584 294 OFFCURVE",
"589 301 OFFCURVE",
"615 301 CURVE SMOOTH",
"914 301 LINE",
"930 301 OFFCURVE",
"942 305 OFFCURVE",
"942 321 CURVE SMOOTH",
"942 382 OFFCURVE",
"930 441 OFFCURVE",
"921 491 CURVE SMOOTH",
"911 537 OFFCURVE",
"887 611 OFFCURVE",
"851 656 CURVE SMOOTH",
"813 701 OFFCURVE",
"748 730 OFFCURVE",
"685 730 CURVE SMOOTH",
"579 730 OFFCURVE",
"524 667 OFFCURVE",
"473 570 CURVE SMOOTH",
"430 486 OFFCURVE",
"396 389 OFFCURVE",
"372 308 CURVE SMOOTH",
"365 284 OFFCURVE",
"362 267 OFFCURVE",
"349 242 CURVE SMOOTH",
"319 181 OFFCURVE",
"229 58 OFFCURVE",
"160 -11 CURVE SMOOTH",
"146 -25 OFFCURVE",
"134 -29 OFFCURVE",
"126 -29 CURVE SMOOTH",
"118 -29 OFFCURVE",
"112 -22 OFFCURVE"
);
}
);
width = 1221;
}
);
unicode = 05DE;
},
{
glyphname = finalnunhebrew;
lastChange = "2015-11-23 15:57:31 +0000";
layers = (
{
layerId = "BDAF7641-AC9B-4450-A8AE-7BAB26ED3EC6";
name = Bold;
paths = (
{
closed = 1;
nodes = (
"365 178 CURVE SMOOTH",
"360 301 OFFCURVE",
"343 470 OFFCURVE",
"338 494 CURVE SMOOTH",
"324 568 OFFCURVE",
"302 620 OFFCURVE",
"273 656 CURVE SMOOTH",
"234 704 OFFCURVE",
"157 763 OFFCURVE",
"102 805 CURVE SMOOTH",
"91 812 OFFCURVE",
"83 821 OFFCURVE",
"83 830 CURVE SMOOTH",
"83 837 OFFCURVE",
"89 848 OFFCURVE",
"93 855 CURVE SMOOTH",
"125 912 OFFCURVE",
"170 985 OFFCURVE",
"237 1072 CURVE SMOOTH",
"242 1075 OFFCURVE",
"251 1081 OFFCURVE",
"256 1081 CURVE SMOOTH",
"259 1081 OFFCURVE",
"270 1079 OFFCURVE",
"277 1074 CURVE SMOOTH",
"360 1019 OFFCURVE",
"433 946 OFFCURVE",
"456 916 CURVE SMOOTH",
"501 860 OFFCURVE",
"510 835 OFFCURVE",
"524 756 CURVE SMOOTH",
"541 665 OFFCURVE",
"552 468 OFFCURVE",
"559 269 CURVE SMOOTH",
"564 138 OFFCURVE",
"566 -60 OFFCURVE",
"566 -123 CURVE SMOOTH",
"566 -133 OFFCURVE",
"564 -185 OFFCURVE",
"560 -192 CURVE SMOOTH",
"539 -244 OFFCURVE",
"473 -342 OFFCURVE",
"447 -375 CURVE SMOOTH",
"426 -403 OFFCURVE",
"410 -412 OFFCURVE",
"401 -412 CURVE SMOOTH",
"388 -412 OFFCURVE",
"379 -400 OFFCURVE",
"379 -362 CURVE SMOOTH",
"379 -199 OFFCURVE",
"372 60 OFFCURVE"
);
}
);
width = 650;
}
);
unicode = 05DF;
},
{
glyphname = nunhebrew;
lastChange = "2015-11-23 15:57:31 +0000";
layers = (
{
layerId = "BDAF7641-AC9B-4450-A8AE-7BAB26ED3EC6";
name = Bold;
paths = (
{
closed = 1;
nodes = (
"97 270 CURVE SMOOTH",
"109 294 OFFCURVE",
"125 299 OFFCURVE",
"141 299 CURVE SMOOTH",
"345 299 LINE",
"362 299 OFFCURVE",
"376 306 OFFCURVE",
"376 335 CURVE SMOOTH",
"376 434 OFFCURVE",
"367 475 OFFCURVE",
"356 518 CURVE SMOOTH",
"343 568 OFFCURVE",
"331 599 OFFCURVE",
"307 629 CURVE SMOOTH",
"273 676 OFFCURVE",
"195 751 OFFCURVE",
"87 799 CURVE SMOOTH",
"71 807 OFFCURVE",
"66 817 OFFCURVE",
"66 828 CURVE SMOOTH",
"66 837 OFFCURVE",
"69 846 OFFCURVE",
"75 855 CURVE SMOOTH",
"112 916 OFFCURVE",
"168 1011 OFFCURVE",
"222 1065 CURVE SMOOTH",
"232 1075 OFFCURVE",
"237 1081 OFFCURVE",
"251 1081 CURVE SMOOTH",
"259 1081 OFFCURVE",
"272 1074 OFFCURVE",
"286 1065 CURVE SMOOTH",
"349 1027 OFFCURVE",
"403 982 OFFCURVE",
"444 939 CURVE SMOOTH",
"485 896 OFFCURVE",
"526 810 OFFCURVE",
"545 725 CURVE SMOOTH",
"562 634 OFFCURVE",
"571 557 OFFCURVE",
"571 479 CURVE SMOOTH",
"571 409 OFFCURVE",
"566 319 OFFCURVE",
"546 248 CURVE SMOOTH",
"528 181 OFFCURVE",
"499 93 OFFCURVE",
"473 43 CURVE SMOOTH",
"460 18 OFFCURVE",
"440 0 OFFCURVE",
"417 0 CURVE SMOOTH",
"35 0 LINE",
"18 0 OFFCURVE",
"8 11 OFFCURVE",
"8 24 CURVE SMOOTH",
"8 43 OFFCURVE",
"69 219 OFFCURVE"
);
}
);
width = 650;
}
);
unicode = 05E0;
},
{
glyphname = samekhhebrew;
lastChange = "2015-11-23 15:57:31 +0000";
layers = (
{
layerId = "BDAF7641-AC9B-4450-A8AE-7BAB26ED3EC6";
name = Bold;
paths = (
{
closed = 1;
nodes = (
"237 547 CURVE SMOOTH",
"216 622 OFFCURVE",
"188 690 OFFCURVE",
"119 690 CURVE SMOOTH",
"66 690 OFFCURVE",
"55 704 OFFCURVE",
"55 732 CURVE SMOOTH",
"55 746 OFFCURVE",
"61 761 OFFCURVE",
"69 781 CURVE SMOOTH",
"89 823 OFFCURVE",
"179 982 OFFCURVE",
"223 1045 CURVE SMOOTH",
"244 1072 OFFCURVE",
"258 1079 OFFCURVE",
"273 1079 CURVE SMOOTH",
"299 1079 OFFCURVE",
"307 1065 OFFCURVE",
"311 1041 CURVE SMOOTH",
"319 1000 OFFCURVE",
"336 989 OFFCURVE",
"377 989 CURVE SMOOTH",
"1021 989 LINE",
"1098 989 OFFCURVE",
"1162 921 OFFCURVE",
"1162 814 CURVE SMOOTH",
"1162 634 OFFCURVE",
"1094 443 OFFCURVE",
"1044 325 CURVE SMOOTH",
"991 199 OFFCURVE",
"938 145 OFFCURVE",
"846 86 CURVE SMOOTH",
"761 34 OFFCURVE",
"618 -32 OFFCURVE",
"512 -32 CURVE SMOOTH",
"466 -32 OFFCURVE",
"432 -14 OFFCURVE",
"403 36 CURVE SMOOTH",
"342 142 OFFCURVE",
"288 373 OFFCURVE"
);
},
{
closed = 1;
nodes = (
"607 276 CURVE SMOOTH",
"677 276 OFFCURVE",
"788 325 OFFCURVE",
"851 361 CURVE SMOOTH",
"901 389 OFFCURVE",
"940 455 OFFCURVE",
"940 547 CURVE SMOOTH",
"940 641 OFFCURVE",
"899 686 OFFCURVE",
"813 686 CURVE",
"475 686 LINE",
"453 686 OFFCURVE",
"440 679 OFFCURVE",
"440 662 CURVE SMOOTH",
"440 633 OFFCURVE",
"489 434 OFFCURVE",
"537 326 CURVE SMOOTH",
"553 289 OFFCURVE",
"577 276 OFFCURVE"
);
}
);
width = 1221;
}
);
unicode = 05E1;
},
{
glyphname = ayinhebrew;
lastChange = "2015-11-23 15:57:31 +0000";
layers = (
{
layerId = "BDAF7641-AC9B-4450-A8AE-7BAB26ED3EC6";
name = Bold;
paths = (
{
closed = 1;
nodes = (
"162 140 CURVE SMOOTH",
"168 149 OFFCURVE",
"175 158 OFFCURVE",
"193 166 CURVE SMOOTH",
"227 185 OFFCURVE",
"270 204 OFFCURVE",
"285 214 CURVE SMOOTH",
"290 217 OFFCURVE",
"292 219 OFFCURVE",
"292 226 CURVE SMOOTH",
"292 255 OFFCURVE",
"181 609 OFFCURVE",
"64 746 CURVE SMOOTH",
"48 763 OFFCURVE",
"42 778 OFFCURVE",
"42 788 CURVE SMOOTH",
"42 833 OFFCURVE",
"182 1038 OFFCURVE",
"211 1062 CURVE SMOOTH",
"218 1070 OFFCURVE",
"229 1079 OFFCURVE",
"245 1079 CURVE SMOOTH",
"261 1079 OFFCURVE",
"270 1065 OFFCURVE",
"279 1045 CURVE SMOOTH",
"374 826 OFFCURVE",
"444 506 OFFCURVE",
"478 335 CURVE SMOOTH",
"480 326 OFFCURVE",
"483 321 OFFCURVE",
"489 321 CURVE SMOOTH",
"492 321 OFFCURVE",
"499 325 OFFCURVE",
"509 330 CURVE SMOOTH",
"533 344 OFFCURVE",
"623 398 OFFCURVE",
"648 421 CURVE SMOOTH",
"666 438 OFFCURVE",
"680 455 OFFCURVE",
"680 491 CURVE SMOOTH",
"680 536 OFFCURVE",
"634 688 OFFCURVE",
"605 747 CURVE SMOOTH",
"596 765 OFFCURVE",
"577 795 OFFCURVE",
"577 819 CURVE SMOOTH",
"577 858 OFFCURVE",
"709 1034 OFFCURVE",
"738 1067 CURVE SMOOTH",
"741 1072 OFFCURVE",
"755 1079 OFFCURVE",
"767 1079 CURVE SMOOTH",
"777 1079 OFFCURVE",
"791 1072 OFFCURVE",
"801 1059 CURVE SMOOTH",
"834 1005 OFFCURVE",
"876 821 OFFCURVE",
"876 717 CURVE SMOOTH",
"876 633 OFFCURVE",
"865 604 OFFCURVE",
"863 585 CURVE SMOOTH",
"853 520 OFFCURVE",
"777 305 OFFCURVE",
"725 222 CURVE SMOOTH",
"690 163 OFFCURVE",
"646 127 OFFCURVE",
"582 84 CURVE SMOOTH",
"546 61 OFFCURVE",
"299 -79 OFFCURVE",
"152 -140 CURVE SMOOTH",
"112 -156 OFFCURVE",
"97 -161 OFFCURVE",
"85 -161 CURVE SMOOTH",
"69 -161 OFFCURVE",
"61 -152 OFFCURVE",
"61 -137 CURVE SMOOTH",
"61 -113 OFFCURVE",
"126 79 OFFCURVE"
);
}
);
width = 936;
}
);
unicode = 05E2;
},
{
glyphname = finalpehebrew;
lastChange = "2015-11-23 15:57:31 +0000";
layers = (
{
layerId = "BDAF7641-AC9B-4450-A8AE-7BAB26ED3EC6";
name = Bold;
paths = (
{
closed = 1;
nodes = (
"668 163 CURVE SMOOTH",
"661 279 OFFCURVE",
"656 353 OFFCURVE",
"643 470 CURVE SMOOTH",
"634 554 OFFCURVE",
"579 631 OFFCURVE",
"507 674 CURVE SMOOTH",
"466 699 OFFCURVE",
"353 758 OFFCURVE",
"306 758 CURVE SMOOTH",
"299 758 OFFCURVE",
"290 753 OFFCURVE",
"288 742 CURVE SMOOTH",
"285 727 OFFCURVE",
"281 706 OFFCURVE",
"281 684 CURVE SMOOTH",
"281 627 OFFCURVE",
"317 583 OFFCURVE",
"369 554 CURVE SMOOTH",
"406 534 OFFCURVE",
"419 525 OFFCURVE",
"419 509 CURVE SMOOTH",
"419 501 OFFCURVE",
"412 484 OFFCURVE",
"410 479 CURVE SMOOTH",
"386 424 OFFCURVE",
"335 342 OFFCURVE",
"306 298 CURVE SMOOTH",
"300 291 OFFCURVE",
"292 287 OFFCURVE",
"286 287 CURVE SMOOTH",
"272 287 OFFCURVE",
"237 303 OFFCURVE",
"193 339 CURVE SMOOTH",
"125 393 OFFCURVE",
"62 480 OFFCURVE",
"62 604 CURVE SMOOTH",
"62 699 OFFCURVE",
"91 787 OFFCURVE",
"153 871 CURVE SMOOTH",
"195 925 OFFCURVE",
"272 1014 OFFCURVE",
"315 1050 CURVE SMOOTH",
"336 1070 OFFCURVE",
"350 1079 OFFCURVE",
"369 1079 CURVE SMOOTH",
"468 1079 OFFCURVE",
"630 989 OFFCURVE",
"707 925 CURVE SMOOTH",
"786 858 OFFCURVE",
"813 801 OFFCURVE",
"834 655 CURVE SMOOTH",
"846 571 OFFCURVE",
"854 380 OFFCURVE",
"858 325 CURVE SMOOTH",
"865 185 OFFCURVE",
"868 34 OFFCURVE",
"868 -104 CURVE SMOOTH",
"868 -125 OFFCURVE",
"868 -183 OFFCURVE",
"853 -214 CURVE SMOOTH",
"827 -260 OFFCURVE",
"804 -312 OFFCURVE",
"752 -387 CURVE SMOOTH",
"740 -405 OFFCURVE",
"731 -412 OFFCURVE",
"718 -412 CURVE SMOOTH",
"706 -412 OFFCURVE",
"700 -405 OFFCURVE",
"699 -382 CURVE SMOOTH",
"687 -258 OFFCURVE",
"671 101 OFFCURVE"
);
}
);
width = 936;
}
);
unicode = 05E3;
},
{
glyphname = pehebrew;
lastChange = "2015-11-23 15:57:31 +0000";
layers = (
{
layerId = "BDAF7641-AC9B-4450-A8AE-7BAB26ED3EC6";
name = Bold;
paths = (
{
closed = 1;
nodes = (
"141 272 CURVE SMOOTH",
"152 289 OFFCURVE",
"164 301 OFFCURVE",
"188 301 CURVE",
"612 301 LINE",
"637 301 OFFCURVE",
"650 315 OFFCURVE",
"650 344 CURVE SMOOTH",
"650 385 OFFCURVE",
"639 508 OFFCURVE",
"616 585 CURVE SMOOTH",
"608 607 OFFCURVE",
"593 634 OFFCURVE",
"567 663 CURVE SMOOTH",
"505 733 OFFCURVE",
"376 785 OFFCURVE",
"338 785 CURVE SMOOTH",
"317 785 OFFCURVE",
"309 754 OFFCURVE",
"309 732 CURVE SMOOTH",
"309 704 OFFCURVE",
"335 656 OFFCURVE",
"384 633 CURVE SMOOTH",
"408 624 OFFCURVE",
"419 611 OFFCURVE",
"419 599 CURVE SMOOTH",
"419 592 OFFCURVE",
"415 586 OFFCURVE",
"412 579 CURVE SMOOTH",
"392 537 OFFCURVE",
"329 438 OFFCURVE",
"307 412 CURVE SMOOTH",
"299 402 OFFCURVE",
"285 396 OFFCURVE",
"275 396 CURVE SMOOTH",
"268 396 OFFCURVE",
"256 403 OFFCURVE",
"242 412 CURVE SMOOTH",
"188 450 OFFCURVE",
"93 515 OFFCURVE",
"93 631 CURVE SMOOTH",
"93 684 OFFCURVE",
"112 742 OFFCURVE",
"141 799 CURVE SMOOTH",
"186 886 OFFCURVE",
"306 1023 OFFCURVE",
"372 1065 CURVE SMOOTH",
"376 1067 OFFCURVE",
"388 1079 OFFCURVE",
"408 1079 CURVE SMOOTH",
"449 1079 OFFCURVE",
"637 997 OFFCURVE",
"713 928 CURVE SMOOTH",
"754 891 OFFCURVE",
"813 837 OFFCURVE",
"832 697 CURVE SMOOTH",
"849 585 OFFCURVE",
"851 468 OFFCURVE",
"851 409 CURVE SMOOTH",
"851 357 OFFCURVE",
"842 308 OFFCURVE",
"829 265 CURVE SMOOTH",
"811 207 OFFCURVE",
"767 82 OFFCURVE",
"725 20 CURVE SMOOTH",
"716 5 OFFCURVE",
"706 0 OFFCURVE",
"687 0 CURVE",
"69 0 LINE",
"42 0 OFFCURVE",
"35 11 OFFCURVE",
"35 24 CURVE SMOOTH",
"35 72 OFFCURVE",
"102 214 OFFCURVE"
);
}
);
width = 936;
}
);
unicode = 05E4;
},
{
glyphname = finaltsadihebrew;
lastChange = "2015-11-23 15:57:31 +0000";
layers = (
{
layerId = "BDAF7641-AC9B-4450-A8AE-7BAB26ED3EC6";
name = Bold;
paths = (
{
closed = 1;
nodes = (
"507 285 CURVE SMOOTH",
"401 477 OFFCURVE",
"220 694 OFFCURVE",
"87 794 CURVE SMOOTH",
"64 812 OFFCURVE",
"51 819 OFFCURVE",
"51 835 CURVE SMOOTH",
"51 841 OFFCURVE",
"55 855 OFFCURVE",
"62 867 CURVE SMOOTH",
"104 941 OFFCURVE",
"138 995 OFFCURVE",
"184 1059 CURVE SMOOTH",
"196 1075 OFFCURVE",
"206 1081 OFFCURVE",
"215 1081 CURVE SMOOTH",
"223 1081 OFFCURVE",
"232 1072 OFFCURVE",
"239 1065 CURVE SMOOTH",
"413 891 OFFCURVE",
"526 739 OFFCURVE",
"632 552 CURVE SMOOTH",
"637 543 OFFCURVE",
"641 536 OFFCURVE",
"646 536 CURVE SMOOTH",
"656 536 OFFCURVE",
"671 573 OFFCURVE",
"671 619 CURVE SMOOTH",
"671 688 OFFCURVE",
"641 751 OFFCURVE",
"618 788 CURVE SMOOTH",
"616 792 OFFCURVE",
"607 801 OFFCURVE",
"607 817 CURVE SMOOTH",
"607 824 OFFCURVE",
"608 833 OFFCURVE",
"615 846 CURVE SMOOTH",
"630 884 OFFCURVE",
"727 1021 OFFCURVE",
"770 1067 CURVE SMOOTH",
"781 1077 OFFCURVE",
"786 1081 OFFCURVE",
"797 1081 CURVE SMOOTH",
"810 1081 OFFCURVE",
"818 1072 OFFCURVE",
"827 1050 CURVE SMOOTH",
"854 989 OFFCURVE",
"881 914 OFFCURVE",
"881 817 CURVE SMOOTH",
"881 674 OFFCURVE",
"793 566 OFFCURVE",
"720 457 CURVE SMOOTH",
"713 446 OFFCURVE",
"704 438 OFFCURVE",
"704 431 CURVE SMOOTH",
"704 421 OFFCURVE",
"706 416 OFFCURVE",
"707 412 CURVE SMOOTH",
"772 292 OFFCURVE",
"840 77 OFFCURVE",
"888 -81 CURVE SMOOTH",
"895 -104 OFFCURVE",
"904 -135 OFFCURVE",
"904 -151 CURVE SMOOTH",
"904 -165 OFFCURVE",
"902 -176 OFFCURVE",
"897 -190 CURVE SMOOTH",
"876 -246 OFFCURVE",
"842 -326 OFFCURVE",
"808 -387 CURVE SMOOTH",
"798 -403 OFFCURVE",
"793 -412 OFFCURVE",
"783 -412 CURVE SMOOTH",
"769 -412 OFFCURVE",
"763 -405 OFFCURVE",
"755 -375 CURVE SMOOTH",
"704 -147 OFFCURVE",
"605 108 OFFCURVE"
);
}
);
width = 936;
}
);
unicode = 05E5;
},
{
glyphname = tsadihebrew;
lastChange = "2015-11-23 15:57:31 +0000";
layers = (
{
layerId = "BDAF7641-AC9B-4450-A8AE-7BAB26ED3EC6";
name = Bold;
paths = (
{
closed = 1;
nodes = (
"155 269 CURVE SMOOTH",
"162 279 OFFCURVE",
"181 299 OFFCURVE",
"209 299 CURVE SMOOTH",
"555 299 LINE",
"564 299 OFFCURVE",
"577 301 OFFCURVE",
"577 312 CURVE SMOOTH",
"577 317 OFFCURVE",
"571 326 OFFCURVE",
"564 332 CURVE SMOOTH",
"466 419 OFFCURVE",
"251 550 OFFCURVE",
"132 696 CURVE SMOOTH",
"97 739 OFFCURVE",
"55 807 OFFCURVE",
"55 828 CURVE SMOOTH",
"55 869 OFFCURVE",
"182 1029 OFFCURVE",
"218 1067 CURVE SMOOTH",
"225 1074 OFFCURVE",
"230 1081 OFFCURVE",
"239 1081 CURVE SMOOTH",
"256 1081 OFFCURVE",
"263 1062 OFFCURVE",
"266 1052 CURVE SMOOTH",
"293 961 OFFCURVE",
"342 896 OFFCURVE",
"417 821 CURVE SMOOTH",
"478 758 OFFCURVE",
"566 679 OFFCURVE",
"639 624 CURVE SMOOTH",
"641 622 OFFCURVE",
"643 622 OFFCURVE",
"644 622 CURVE SMOOTH",
"650 622 OFFCURVE",
"656 629 OFFCURVE",
"656 638 CURVE SMOOTH",
"656 660 OFFCURVE",
"650 704 OFFCURVE",
"636 749 CURVE SMOOTH",
"623 792 OFFCURVE",
"605 812 OFFCURVE",
"605 828 CURVE SMOOTH",
"605 838 OFFCURVE",
"608 841 OFFCURVE",
"616 853 CURVE SMOOTH",
"661 927 OFFCURVE",
"745 1034 OFFCURVE",
"770 1061 CURVE SMOOTH",
"783 1074 OFFCURVE",
"790 1081 OFFCURVE",
"798 1081 CURVE SMOOTH",
"810 1081 OFFCURVE",
"820 1068 OFFCURVE",
"827 1061 CURVE SMOOTH",
"842 1045 OFFCURVE",
"883 968 OFFCURVE",
"883 871 CURVE SMOOTH",
"883 749 OFFCURVE",
"847 677 OFFCURVE",
"772 556 CURVE SMOOTH",
"763 541 OFFCURVE",
"757 539 OFFCURVE",
"757 527 CURVE SMOOTH",
"757 518 OFFCURVE",
"765 513 OFFCURVE",
"779 496 CURVE SMOOTH",
"815 460 OFFCURVE",
"888 373 OFFCURVE",
"888 333 CURVE SMOOTH",
"888 292 OFFCURVE",
"832 133 OFFCURVE",
"767 22 CURVE SMOOTH",
"754 4 OFFCURVE",
"738 0 OFFCURVE",
"711 0 CURVE SMOOTH",
"91 0 LINE",
"69 0 OFFCURVE",
"53 7 OFFCURVE",
"53 24 CURVE SMOOTH",
"53 58 OFFCURVE",
"123 219 OFFCURVE"
);
}
);
width = 936;
}
);
unicode = 05E6;
},
{
glyphname = qofhebrew;
lastChange = "2015-11-23 15:57:31 +0000";
layers = (
{
layerId = "BDAF7641-AC9B-4450-A8AE-7BAB26ED3EC6";
name = Bold;
paths = (
{
closed = 1;
nodes = (
"209 627 CURVE SMOOTH",
"206 660 OFFCURVE",
"181 681 OFFCURVE",
"152 681 CURVE SMOOTH",
"123 681 OFFCURVE",
"97 688 OFFCURVE",
"85 692 CURVE SMOOTH",
"73 696 OFFCURVE",
"66 711 OFFCURVE",
"66 718 CURVE SMOOTH",
"66 763 OFFCURVE",
"216 1009 OFFCURVE",
"277 1070 CURVE SMOOTH",
"286 1079 OFFCURVE",
"297 1082 OFFCURVE",
"307 1082 CURVE SMOOTH",
"322 1082 OFFCURVE",
"335 1075 OFFCURVE",
"340 1057 CURVE SMOOTH",
"353 1005 OFFCURVE",
"365 991 OFFCURVE",
"392 991 CURVE SMOOTH",
"1017 991 LINE SMOOTH",
"1145 991 OFFCURVE",
"1166 874 OFFCURVE",
"1166 767 CURVE SMOOTH",
"1166 694 OFFCURVE",
"1138 597 OFFCURVE",
"1119 550 CURVE SMOOTH",
"1096 487 OFFCURVE",
"1035 347 OFFCURVE",
"993 272 CURVE SMOOTH",
"951 204 OFFCURVE",
"906 145 OFFCURVE",
"854 108 CURVE SMOOTH",
"784 58 OFFCURVE",
"594 -41 OFFCURVE",
"531 -41 CURVE SMOOTH",
"517 -41 OFFCURVE",
"505 -34 OFFCURVE",
"505 -20 CURVE SMOOTH",
"505 9 OFFCURVE",
"545 158 OFFCURVE",
"573 228 CURVE SMOOTH",
"586 258 OFFCURVE",
"598 267 OFFCURVE",
"623 276 CURVE SMOOTH",
"668 292 OFFCURVE",
"774 330 OFFCURVE",
"847 385 CURVE SMOOTH",
"881 410 OFFCURVE",
"888 443 OFFCURVE",
"897 480 CURVE SMOOTH",
"908 527 OFFCURVE",
"908 563 OFFCURVE",
"908 606 CURVE SMOOTH",
"908 665 OFFCURVE",
"887 688 OFFCURVE",
"827 688 CURVE SMOOTH",
"496 688 LINE",
"458 688 OFFCURVE",
"446 662 OFFCURVE",
"446 629 CURVE SMOOTH",
"446 -24 LINE SMOOTH",
"446 -89 OFFCURVE",
"444 -159 OFFCURVE",
"437 -183 CURVE SMOOTH",
"428 -210 OFFCURVE",
"420 -224 OFFCURVE",
"410 -244 CURVE SMOOTH",
"381 -294 OFFCURVE",
"356 -337 OFFCURVE",
"317 -385 CURVE SMOOTH",
"300 -405 OFFCURVE",
"293 -410 OFFCURVE",
"279 -410 CURVE SMOOTH",
"265 -410 OFFCURVE",
"256 -398 OFFCURVE",
"254 -362 CURVE SMOOTH",
"242 -77 OFFCURVE",
"227 355 OFFCURVE"
);
}
);
width = 1221;
}
);
unicode = 05E7;
},
{
glyphname = reshhebrew;
lastChange = "2015-11-23 15:57:31 +0000";
layers = (
{
layerId = "BDAF7641-AC9B-4450-A8AE-7BAB26ED3EC6";
name = Bold;
paths = (
{
closed = 1;
nodes = (
"601 448 CURVE SMOOTH",
"577 590 OFFCURVE",
"483 686 OFFCURVE",
"336 686 CURVE SMOOTH",
"68 686 LINE",
"46 686 OFFCURVE",
"30 697 OFFCURVE",
"30 711 CURVE SMOOTH",
"30 781 OFFCURVE",
"136 989 OFFCURVE",
"208 1062 CURVE SMOOTH",
"213 1068 OFFCURVE",
"223 1081 OFFCURVE",
"234 1081 CURVE SMOOTH",
"247 1081 OFFCURVE",
"256 1077 OFFCURVE",
"259 1061 CURVE SMOOTH",
"268 1011 OFFCURVE",
"286 989 OFFCURVE",
"307 989 CURVE SMOOTH",
"501 989 LINE",
"629 989 OFFCURVE",
"734 912 OFFCURVE",
"776 809 CURVE SMOOTH",
"820 690 OFFCURVE",
"829 452 OFFCURVE",
"829 373 CURVE SMOOTH",
"829 272 OFFCURVE",
"825 242 OFFCURVE",
"822 228 CURVE SMOOTH",
"803 159 OFFCURVE",
"747 58 OFFCURVE",
"692 -24 CURVE SMOOTH",
"678 -41 OFFCURVE",
"671 -46 OFFCURVE",
"659 -46 CURVE SMOOTH",
"644 -46 OFFCURVE",
"632 -31 OFFCURVE",
"630 16 CURVE SMOOTH",
"623 178 OFFCURVE",
"623 326 OFFCURVE"
);
}
);
width = 936;
}
);
unicode = 05E8;
},
{
glyphname = shinhebrew;
lastChange = "2015-11-23 15:57:31 +0000";
layers = (
{
layerId = "BDAF7641-AC9B-4450-A8AE-7BAB26ED3EC6";
name = Bold;
paths = (
{
closed = 1;
nodes = (
"225 464 CURVE SMOOTH",
"189 568 OFFCURVE",
"141 683 OFFCURVE",
"89 778 CURVE SMOOTH",
"80 794 OFFCURVE",
"69 817 OFFCURVE",
"69 833 CURVE SMOOTH",
"69 844 OFFCURVE",
"75 858 OFFCURVE",
"80 869 CURVE SMOOTH",
"107 921 OFFCURVE",
"175 1016 OFFCURVE",
"220 1061 CURVE SMOOTH",
"229 1070 OFFCURVE",
"234 1079 OFFCURVE",
"249 1079 CURVE SMOOTH",
"266 1079 OFFCURVE",
"275 1068 OFFCURVE",
"288 1050 CURVE SMOOTH",
"307 1021 OFFCURVE",
"355 893 OFFCURVE",
"381 801 CURVE SMOOTH",
"408 708 OFFCURVE",
"430 619 OFFCURVE",
"439 570 CURVE SMOOTH",
"439 568 OFFCURVE",
"442 552 OFFCURVE",
"451 552 CURVE SMOOTH",
"487 552 OFFCURVE",
"530 624 OFFCURVE",
"530 706 CURVE SMOOTH",
"530 754 OFFCURVE",
"516 799 OFFCURVE",
"507 823 CURVE SMOOTH",
"503 831 OFFCURVE",
"499 841 OFFCURVE",
"499 848 CURVE SMOOTH",
"499 862 OFFCURVE",
"505 869 OFFCURVE",
"512 882 CURVE SMOOTH",
"550 941 OFFCURVE",
"603 1014 OFFCURVE",
"650 1061 CURVE SMOOTH",
"657 1068 OFFCURVE",
"668 1079 OFFCURVE",
"680 1079 CURVE SMOOTH",
"695 1079 OFFCURVE",
"709 1072 OFFCURVE",
"718 1055 CURVE SMOOTH",
"741 1021 OFFCURVE",
"767 903 OFFCURVE",
"767 848 CURVE SMOOTH",
"767 774 OFFCURVE",
"741 742 OFFCURVE",
"721 708 CURVE SMOOTH",
"684 641 OFFCURVE",
"598 545 OFFCURVE",
"494 450 CURVE SMOOTH",
"492 448 OFFCURVE",
"475 436 OFFCURVE",
"475 426 CURVE SMOOTH",
"475 423 OFFCURVE",
"475 417 OFFCURVE",
"476 412 CURVE SMOOTH",
"485 376 OFFCURVE",
"496 328 OFFCURVE",
"507 310 CURVE SMOOTH",
"521 284 OFFCURVE",
"530 270 OFFCURVE",
"577 270 CURVE SMOOTH",
"677 270 OFFCURVE",
"811 346 OFFCURVE",
"861 387 CURVE SMOOTH",
"916 431 OFFCURVE",
"947 460 OFFCURVE",
"947 534 CURVE SMOOTH",
"947 619 OFFCURVE",
"888 785 OFFCURVE",
"880 809 CURVE SMOOTH",
"874 823 OFFCURVE",
"870 835 OFFCURVE",
"870 844 CURVE SMOOTH",
"870 850 OFFCURVE",
"872 857 OFFCURVE",
"876 862 CURVE SMOOTH",
"906 912 OFFCURVE",
"969 1004 OFFCURVE",
"1041 1067 CURVE SMOOTH",
"1048 1072 OFFCURVE",
"1063 1079 OFFCURVE",
"1071 1079 CURVE SMOOTH",
"1094 1079 OFFCURVE",
"1104 1061 OFFCURVE",
"1111 1045 CURVE SMOOTH",
"1133 993 OFFCURVE",
"1164 850 OFFCURVE",
"1164 765 CURVE SMOOTH",
"1164 679 OFFCURVE",
"1141 606 OFFCURVE",
"1128 554 CURVE SMOOTH",
"1085 390 OFFCURVE",
"1032 303 OFFCURVE",
"1012 265 CURVE SMOOTH",
"983 210 OFFCURVE",
"919 129 OFFCURVE",
"860 93 CURVE SMOOTH",
"791 52 OFFCURVE",
"594 -32 OFFCURVE",
"497 -32 CURVE SMOOTH",
"437 -32 OFFCURVE",
"362 12 OFFCURVE",
"335 111 CURVE SMOOTH",
"307 212 OFFCURVE",
"281 303 OFFCURVE"
);
}
);
width = 1221;
}
);
unicode = 05E9;
},
{
glyphname = tavhebrew;
lastChange = "2015-11-23 15:57:31 +0000";
layers = (
{
layerId = "BDAF7641-AC9B-4450-A8AE-7BAB26ED3EC6";
name = Bold;
paths = (
{
closed = 1;
nodes = (
"34 48 CURVE SMOOTH",
"51 122 OFFCURVE",
"95 231 OFFCURVE",
"129 276 CURVE SMOOTH",
"139 291 OFFCURVE",
"153 292 OFFCURVE",
"164 292 CURVE SMOOTH",
"285 292 LINE",
"304 292 OFFCURVE",
"313 305 OFFCURVE",
"313 317 CURVE SMOOTH",
"313 332 OFFCURVE",
"261 536 OFFCURVE",
"218 648 CURVE SMOOTH",
"206 683 OFFCURVE",
"170 686 OFFCURVE",
"146 686 CURVE SMOOTH",
"78 686 LINE",
"64 686 OFFCURVE",
"41 697 OFFCURVE",
"41 725 CURVE SMOOTH",
"41 732 OFFCURVE",
"44 744 OFFCURVE",
"51 763 CURVE SMOOTH",
"98 884 OFFCURVE",
"148 968 OFFCURVE",
"209 1052 CURVE SMOOTH",
"220 1067 OFFCURVE",
"234 1079 OFFCURVE",
"256 1079 CURVE SMOOTH",
"277 1079 OFFCURVE",
"290 1057 OFFCURVE",
"293 1047 CURVE SMOOTH",
"309 1002 OFFCURVE",
"324 987 OFFCURVE",
"353 987 CURVE SMOOTH",
"868 987 LINE",
"947 987 OFFCURVE",
"998 935 OFFCURVE",
"1025 894 CURVE SMOOTH",
"1048 860 OFFCURVE",
"1053 805 OFFCURVE",
"1060 735 CURVE SMOOTH",
"1075 595 OFFCURVE",
"1084 450 OFFCURVE",
"1084 308 CURVE SMOOTH",
"1084 219 OFFCURVE",
"1082 199 OFFCURVE",
"1066 166 CURVE SMOOTH",
"1046 127 OFFCURVE",
"991 39 OFFCURVE",
"937 -32 CURVE SMOOTH",
"931 -39 OFFCURVE",
"923 -48 OFFCURVE",
"908 -48 CURVE SMOOTH",
"894 -48 OFFCURVE",
"890 -32 OFFCURVE",
"890 -12 CURVE SMOOTH",
"890 138 OFFCURVE",
"865 457 OFFCURVE",
"836 607 CURVE SMOOTH",
"825 669 OFFCURVE",
"801 686 OFFCURVE",
"740 686 CURVE SMOOTH",
"476 686 LINE",
"460 686 OFFCURVE",
"453 677 OFFCURVE",
"453 670 CURVE",
"460 641 LINE SMOOTH",
"482 554 OFFCURVE",
"524 390 OFFCURVE",
"524 339 CURVE SMOOTH",
"524 303 OFFCURVE",
"517 274 OFFCURVE",
"510 246 CURVE SMOOTH",
"497 192 OFFCURVE",
"461 97 OFFCURVE",
"422 22 CURVE SMOOTH",
"413 5 OFFCURVE",
"403 -2 OFFCURVE",
"381 -2 CURVE SMOOTH",
"66 -2 LINE",
"39 -2 OFFCURVE",
"30 11 OFFCURVE",
"30 29 CURVE SMOOTH",
"30 34 OFFCURVE",
"32 41 OFFCURVE"
);
}
);
width = 1221;
}
);
unicode = 05EA;
},
{
glyphname = shinshindothebrew;
lastChange = "2015-11-23 15:57:31 +0000";
layers = (
{
components = (
{
name = shinhebrew;
}
);
layerId = "BDAF7641-AC9B-4450-A8AE-7BAB26ED3EC6";
name = Bold;
paths = (
{
closed = 1;
nodes = (
"1003 1199 CURVE SMOOTH",
"1003 1159 OFFCURVE",
"969 1127 OFFCURVE",
"930 1127 CURVE SMOOTH",
"888 1127 OFFCURVE",
"856 1159 OFFCURVE",
"856 1199 CURVE SMOOTH",
"856 1240 OFFCURVE",
"888 1272 OFFCURVE",
"930 1272 CURVE SMOOTH",
"969 1272 OFFCURVE",
"1003 1240 OFFCURVE"
);
}
);
width = 1221;
}
);
unicode = FB2A;
},
{
glyphname = shinsindothebrew;
lastChange = "2015-11-23 15:57:31 +0000";
layers = (
{
components = (
{
name = shinhebrew;
}
);
layerId = "BDAF7641-AC9B-4450-A8AE-7BAB26ED3EC6";
name = Bold;
paths = (
{
closed = 1;
nodes = (
"399 1199 CURVE SMOOTH",
"399 1159 OFFCURVE",
"365 1127 OFFCURVE",
"326 1127 CURVE SMOOTH",
"285 1127 OFFCURVE",
"252 1159 OFFCURVE",
"252 1199 CURVE SMOOTH",
"252 1240 OFFCURVE",
"285 1272 OFFCURVE",
"326 1272 CURVE SMOOTH",
"365 1272 OFFCURVE",
"399 1240 OFFCURVE"
);
}
);
width = 1221;
}
);
unicode = FB2B;
},
{
glyphname = shindageshshindothebrew;
lastChange = "2015-11-23 15:57:31 +0000";
layers = (
{
components = (
{
name = shinhebrew;
},
{
name = dageshhebrew;
transform = "{1, 0, 0, 1, 445, 0}";
}
);
layerId = "BDAF7641-AC9B-4450-A8AE-7BAB26ED3EC6";
name = Bold;
paths = (
{
closed = 1;
nodes = (
"1003 1199 CURVE SMOOTH",
"1003 1159 OFFCURVE",
"969 1127 OFFCURVE",
"930 1127 CURVE SMOOTH",
"888 1127 OFFCURVE",
"856 1159 OFFCURVE",
"856 1199 CURVE SMOOTH",
"856 1240 OFFCURVE",
"888 1272 OFFCURVE",
"930 1272 CURVE SMOOTH",
"969 1272 OFFCURVE",
"1003 1240 OFFCURVE"
);
}
);
width = 1221;
}
);
unicode = FB2C;
},
{
glyphname = shindageshsindothebrew;
lastChange = "2015-11-23 15:57:31 +0000";
layers = (
{
components = (
{
name = shinhebrew;
},
{
name = dageshhebrew;
transform = "{1, 0, 0, 1, 445, 0}";
}
);
layerId = "BDAF7641-AC9B-4450-A8AE-7BAB26ED3EC6";
name = Bold;
paths = (
{
closed = 1;
nodes = (
"399 1199 CURVE SMOOTH",
"399 1159 OFFCURVE",
"365 1127 OFFCURVE",
"326 1127 CURVE SMOOTH",
"285 1127 OFFCURVE",
"252 1159 OFFCURVE",
"252 1199 CURVE SMOOTH",
"252 1240 OFFCURVE",
"285 1272 OFFCURVE",
"326 1272 CURVE SMOOTH",
"365 1272 OFFCURVE",
"399 1240 OFFCURVE"
);
}
);
width = 1221;
}
);
unicode = FB2D;
},
{
glyphname = tsadidageshhebrew;
lastChange = "2015-11-23 17:02:16 +0000";
layers = (
{
layerId = "BDAF7641-AC9B-4450-A8AE-7BAB26ED3EC6";
name = Bold;
paths = (
{
closed = 1;
nodes = (
"155 269 CURVE SMOOTH",
"162 279 OFFCURVE",
"181 299 OFFCURVE",
"209 299 CURVE SMOOTH",
"555 299 LINE",
"564 299 OFFCURVE",
"577 301 OFFCURVE",
"577 312 CURVE SMOOTH",
"577 317 OFFCURVE",
"571 326 OFFCURVE",
"564 332 CURVE SMOOTH",
"466 419 OFFCURVE",
"251 550 OFFCURVE",
"132 696 CURVE SMOOTH",
"97 739 OFFCURVE",
"55 807 OFFCURVE",
"55 828 CURVE SMOOTH",
"55 869 OFFCURVE",
"182 1029 OFFCURVE",
"218 1067 CURVE SMOOTH",
"225 1074 OFFCURVE",
"230 1081 OFFCURVE",
"239 1081 CURVE SMOOTH",
"256 1081 OFFCURVE",
"263 1062 OFFCURVE",
"266 1052 CURVE SMOOTH",
"293 961 OFFCURVE",
"342 896 OFFCURVE",
"417 821 CURVE SMOOTH",
"478 758 OFFCURVE",
"566 679 OFFCURVE",
"639 624 CURVE SMOOTH",
"641 622 OFFCURVE",
"643 622 OFFCURVE",
"644 622 CURVE SMOOTH",
"650 622 OFFCURVE",
"656 629 OFFCURVE",
"656 638 CURVE SMOOTH",
"656 660 OFFCURVE",
"650 704 OFFCURVE",
"636 749 CURVE SMOOTH",
"623 792 OFFCURVE",
"605 812 OFFCURVE",
"605 828 CURVE SMOOTH",
"605 838 OFFCURVE",
"608 841 OFFCURVE",
"616 853 CURVE SMOOTH",
"661 927 OFFCURVE",
"745 1034 OFFCURVE",
"770 1061 CURVE SMOOTH",
"783 1074 OFFCURVE",
"790 1081 OFFCURVE",
"798 1081 CURVE SMOOTH",
"810 1081 OFFCURVE",
"820 1068 OFFCURVE",
"827 1061 CURVE SMOOTH",
"842 1045 OFFCURVE",
"883 968 OFFCURVE",
"883 871 CURVE SMOOTH",
"883 749 OFFCURVE",
"847 677 OFFCURVE",
"772 556 CURVE SMOOTH",
"763 541 OFFCURVE",
"757 539 OFFCURVE",
"757 527 CURVE SMOOTH",
"757 518 OFFCURVE",
"765 513 OFFCURVE",
"779 496 CURVE SMOOTH",
"815 460 OFFCURVE",
"888 373 OFFCURVE",
"888 333 CURVE SMOOTH",
"888 292 OFFCURVE",
"832 133 OFFCURVE",
"767 22 CURVE SMOOTH",
"754 4 OFFCURVE",
"738 0 OFFCURVE",
"711 0 CURVE SMOOTH",
"91 0 LINE",
"69 0 OFFCURVE",
"53 7 OFFCURVE",
"53 24 CURVE SMOOTH",
"53 58 OFFCURVE",
"123 219 OFFCURVE"
);
},
{
closed = 1;
nodes = (
"256 437 CURVE SMOOTH",
"256 398 OFFCURVE",
"223 365 OFFCURVE",
"184 365 CURVE SMOOTH",
"143 365 OFFCURVE",
"110 398 OFFCURVE",
"110 437 CURVE SMOOTH",
"110 478 OFFCURVE",
"143 510 OFFCURVE",
"184 510 CURVE SMOOTH",
"223 510 OFFCURVE",
"256 478 OFFCURVE"
);
}
);
width = 936;
}
);
unicode = FB46;
},
{
glyphname = zero;
lastChange = "2015-11-23 15:57:31 +0000";
layers = (
{
guideLines = (
{
position = "{-120, 1180}";
},
{
position = "{-120, 1470}";
}
);
layerId = "BDAF7641-AC9B-4450-A8AE-7BAB26ED3EC6";
name = Bold;
paths = (
{
closed = 1;
nodes = (
"57 648 CURVE SMOOTH",
"57 780 OFFCURVE",
"91 910 OFFCURVE",
"118 991 CURVE SMOOTH",
"139 1054 OFFCURVE",
"170 1111 OFFCURVE",
"211 1159 CURVE SMOOTH",
"292 1255 OFFCURVE",
"372 1285 OFFCURVE",
"460 1285 CURVE SMOOTH",
"552 1285 OFFCURVE",
"643 1240 OFFCURVE",
"725 1147 CURVE SMOOTH",
"829 1029 OFFCURVE",
"865 831 OFFCURVE",
"865 634 CURVE SMOOTH",
"865 472 OFFCURVE",
"811 249 OFFCURVE",
"706 118 CURVE SMOOTH",
"618 9 OFFCURVE",
"546 -32 OFFCURVE",
"451 -32 CURVE SMOOTH",
"353 -32 OFFCURVE",
"268 14 OFFCURVE",
"193 109 CURVE SMOOTH",
"136 183 OFFCURVE",
"57 380 OFFCURVE"
);
},
{
closed = 1;
nodes = (
"510 258 CURVE SMOOTH",
"548 258 OFFCURVE",
"577 265 OFFCURVE",
"594 298 CURVE SMOOTH",
"616 337 OFFCURVE",
"627 424 OFFCURVE",
"627 498 CURVE SMOOTH",
"627 577 OFFCURVE",
"607 746 OFFCURVE",
"589 819 CURVE SMOOTH",
"579 867 OFFCURVE",
"552 934 OFFCURVE",
"507 961 CURVE SMOOTH",
"496 970 OFFCURVE",
"446 1000 OFFCURVE",
"383 1000 CURVE SMOOTH",
"349 1000 OFFCURVE",
"319 977 OFFCURVE",
"307 925 CURVE SMOOTH",
"293 864 OFFCURVE",
"288 751 OFFCURVE",
"288 703 CURVE SMOOTH",
"288 570 OFFCURVE",
"306 421 OFFCURVE",
"343 353 CURVE SMOOTH",
"381 284 OFFCURVE",
"444 258 OFFCURVE"
);
}
);
width = 938;
}
);
unicode = 0030;
userData = {
com.typemytype.robofont.guides = (
{
angle = 0;
isGlobal = 0;
magnetic = 5;
x = 0;
y = 576;
},
{
angle = 0;
isGlobal = 0;
magnetic = 5;
x = 0;
y = 718;
}
);
};
},
{
glyphname = one;
lastChange = "2015-11-23 15:57:31 +0000";
layers = (
{
guideLines = (
{
position = "{-120, 1470}";
}
);
layerId = "BDAF7641-AC9B-4450-A8AE-7BAB26ED3EC6";
name = Bold;
paths = (
{
closed = 1;
nodes = (
"198 276 CURVE SMOOTH",
"209 291 OFFCURVE",
"220 298 OFFCURVE",
"244 298 CURVE SMOOTH",
"338 298 LINE",
"363 298 OFFCURVE",
"369 319 OFFCURVE",
"369 335 CURVE SMOOTH",
"369 426 OFFCURVE",
"362 647 OFFCURVE",
"356 730 CURVE SMOOTH",
"353 787 OFFCURVE",
"347 884 OFFCURVE",
"277 925 CURVE SMOOTH",
"244 946 OFFCURVE",
"153 961 OFFCURVE",
"129 966 CURVE SMOOTH",
"109 971 OFFCURVE",
"102 980 OFFCURVE",
"102 1002 CURVE SMOOTH",
"102 1029 OFFCURVE",
"116 1054 OFFCURVE",
"148 1082 CURVE SMOOTH",
"211 1142 OFFCURVE",
"290 1202 OFFCURVE",
"377 1251 CURVE SMOOTH",
"435 1281 OFFCURVE",
"485 1296 OFFCURVE",
"528 1296 CURVE SMOOTH",
"577 1296 OFFCURVE",
"605 1265 OFFCURVE",
"612 1222 CURVE SMOOTH",
"636 1095 OFFCURVE",
"636 966 OFFCURVE",
"636 838 CURVE SMOOTH",
"636 552 OFFCURVE",
"652 417 OFFCURVE",
"656 355 CURVE SMOOTH",
"659 313 OFFCURVE",
"668 298 OFFCURVE",
"697 298 CURVE SMOOTH",
"839 298 LINE",
"856 298 OFFCURVE",
"874 285 OFFCURVE",
"874 263 CURVE SMOOTH",
"874 253 OFFCURVE",
"868 231 OFFCURVE",
"861 217 CURVE SMOOTH",
"832 158 OFFCURVE",
"790 61 OFFCURVE",
"757 22 CURVE SMOOTH",
"743 4 OFFCURVE",
"733 0 OFFCURVE",
"704 0 CURVE SMOOTH",
"139 0 LINE",
"109 0 OFFCURVE",
"89 12 OFFCURVE",
"89 32 CURVE SMOOTH",
"89 74 OFFCURVE",
"175 244 OFFCURVE"
);
}
);
width = 938;
}
);
unicode = 0031;
userData = {
com.typemytype.robofont.guides = (
{
angle = 0;
isGlobal = 0;
magnetic = 5;
x = 0;
y = 718;
}
);
};
},
{
glyphname = two;
lastChange = "2015-11-23 15:57:31 +0000";
layers = (
{
layerId = "BDAF7641-AC9B-4450-A8AE-7BAB26ED3EC6";
name = Bold;
paths = (
{
closed = 1;
nodes = (
"211 315 CURVE SMOOTH",
"265 414 OFFCURVE",
"353 513 OFFCURVE",
"391 563 CURVE SMOOTH",
"442 629 OFFCURVE",
"507 725 OFFCURVE",
"507 795 CURVE SMOOTH",
"507 914 OFFCURVE",
"410 973 OFFCURVE",
"345 991 CURVE SMOOTH",
"288 1007 OFFCURVE",
"195 1016 OFFCURVE",
"162 1016 CURVE SMOOTH",
"126 1016 OFFCURVE",
"123 1036 OFFCURVE",
"123 1041 CURVE SMOOTH",
"123 1050 OFFCURVE",
"209 1211 OFFCURVE",
"249 1253 CURVE SMOOTH",
"265 1271 OFFCURVE",
"281 1281 OFFCURVE",
"304 1281 CURVE SMOOTH",
"384 1281 OFFCURVE",
"528 1265 OFFCURVE",
"584 1242 CURVE SMOOTH",
"685 1197 OFFCURVE",
"793 1103 OFFCURVE",
"793 932 CURVE SMOOTH",
"793 814 OFFCURVE",
"692 672 OFFCURVE",
"584 545 CURVE SMOOTH",
"552 508 OFFCURVE",
"468 368 OFFCURVE",
"468 328 CURVE SMOOTH",
"468 303 OFFCURVE",
"483 296 OFFCURVE",
"509 296 CURVE SMOOTH",
"839 296 LINE",
"860 296 OFFCURVE",
"863 291 OFFCURVE",
"863 282 CURVE SMOOTH",
"863 226 OFFCURVE",
"795 102 OFFCURVE",
"743 27 CURVE SMOOTH",
"729 7 OFFCURVE",
"721 0 OFFCURVE",
"699 0 CURVE SMOOTH",
"143 0 LINE",
"114 0 OFFCURVE",
"100 4 OFFCURVE",
"100 25 CURVE SMOOTH",
"100 97 OFFCURVE",
"200 298 OFFCURVE"
);
}
);
width = 938;
}
);
unicode = 0032;
},
{
glyphname = three;
lastChange = "2015-11-23 15:57:31 +0000";
layers = (
{
layerId = "BDAF7641-AC9B-4450-A8AE-7BAB26ED3EC6";
name = Bold;
paths = (
{
closed = 1;
nodes = (
"82 111 CURVE SMOOTH",
"112 172 OFFCURVE",
"174 244 OFFCURVE",
"200 270 CURVE SMOOTH",
"213 284 OFFCURVE",
"222 292 OFFCURVE",
"232 292 CURVE SMOOTH",
"242 292 OFFCURVE",
"254 287 OFFCURVE",
"266 279 CURVE SMOOTH",
"293 265 OFFCURVE",
"367 240 OFFCURVE",
"428 240 CURVE SMOOTH",
"489 240 OFFCURVE",
"559 291 OFFCURVE",
"559 368 CURVE SMOOTH",
"559 419 OFFCURVE",
"507 470 OFFCURVE",
"449 486 CURVE SMOOTH",
"406 498 OFFCURVE",
"349 509 OFFCURVE",
"307 509 CURVE SMOOTH",
"283 509 OFFCURVE",
"270 513 OFFCURVE",
"270 537 CURVE SMOOTH",
"270 590 OFFCURVE",
"338 722 OFFCURVE",
"422 773 CURVE SMOOTH",
"482 809 OFFCURVE",
"516 841 OFFCURVE",
"516 907 CURVE SMOOTH",
"516 966 OFFCURVE",
"473 995 OFFCURVE",
"419 1011 CURVE SMOOTH",
"360 1029 OFFCURVE",
"239 1034 OFFCURVE",
"195 1034 CURVE SMOOTH",
"175 1034 OFFCURVE",
"162 1038 OFFCURVE",
"162 1055 CURVE SMOOTH",
"162 1079 OFFCURVE",
"259 1226 OFFCURVE",
"295 1262 CURVE SMOOTH",
"306 1272 OFFCURVE",
"315 1281 OFFCURVE",
"333 1281 CURVE SMOOTH",
"377 1281 OFFCURVE",
"543 1260 OFFCURVE",
"620 1228 CURVE SMOOTH",
"704 1194 OFFCURVE",
"767 1113 OFFCURVE",
"767 1012 CURVE SMOOTH",
"767 894 OFFCURVE",
"690 799 OFFCURVE",
"650 756 CURVE SMOOTH",
"641 747 OFFCURVE",
"639 740 OFFCURVE",
"639 737 CURVE SMOOTH",
"639 727 OFFCURVE",
"646 725 OFFCURVE",
"652 722 CURVE SMOOTH",
"692 696 OFFCURVE",
"832 640 OFFCURVE",
"832 445 CURVE SMOOTH",
"832 291 OFFCURVE",
"741 165 OFFCURVE",
"661 88 CURVE SMOOTH",
"574 5 OFFCURVE",
"442 -32 OFFCURVE",
"362 -32 CURVE SMOOTH",
"281 -32 OFFCURVE",
"186 -4 OFFCURVE",
"97 45 CURVE SMOOTH",
"87 50 OFFCURVE",
"71 61 OFFCURVE",
"71 75 CURVE SMOOTH",
"71 84 OFFCURVE",
"75 99 OFFCURVE"
);
}
);
width = 938;
}
);
unicode = 0033;
},
{
glyphname = four;
lastChange = "2015-11-23 15:57:31 +0000";
layers = (
{
layerId = "BDAF7641-AC9B-4450-A8AE-7BAB26ED3EC6";
name = Bold;
paths = (
{
closed = 1;
nodes = (
"482 305 CURVE SMOOTH",
"482 337 OFFCURVE",
"469 347 OFFCURVE",
"446 347 CURVE SMOOTH",
"138 347 LINE",
"75 347 OFFCURVE",
"30 400 OFFCURVE",
"30 472 CURVE SMOOTH",
"30 570 OFFCURVE",
"98 754 OFFCURVE",
"153 862 CURVE SMOOTH",
"188 927 OFFCURVE",
"256 1045 OFFCURVE",
"336 1120 CURVE SMOOTH",
"394 1175 OFFCURVE",
"475 1222 OFFCURVE",
"531 1251 CURVE SMOOTH",
"567 1269 OFFCURVE",
"608 1286 OFFCURVE",
"630 1286 CURVE SMOOTH",
"648 1286 OFFCURVE",
"675 1271 OFFCURVE",
"677 1236 CURVE SMOOTH",
"687 1110 OFFCURVE",
"697 681 OFFCURVE",
"697 660 CURVE SMOOTH",
"697 648 OFFCURVE",
"700 641 OFFCURVE",
"720 641 CURVE SMOOTH",
"858 641 LINE",
"878 641 OFFCURVE",
"888 629 OFFCURVE",
"888 606 CURVE SMOOTH",
"888 561 OFFCURVE",
"834 400 OFFCURVE",
"803 359 CURVE SMOOTH",
"797 347 OFFCURVE",
"786 346 OFFCURVE",
"779 346 CURVE SMOOTH",
"709 346 LINE",
"697 346 OFFCURVE",
"690 326 OFFCURVE",
"690 299 CURVE SMOOTH",
"690 192 LINE SMOOTH",
"690 176 OFFCURVE",
"687 156 OFFCURVE",
"677 138 CURVE SMOOTH",
"639 74 OFFCURVE",
"593 11 OFFCURVE",
"553 -29 CURVE SMOOTH",
"543 -39 OFFCURVE",
"537 -45 OFFCURVE",
"519 -45 CURVE SMOOTH",
"503 -45 OFFCURVE",
"489 -34 OFFCURVE",
"489 16 CURVE SMOOTH",
"489 63 OFFCURVE",
"482 258 OFFCURVE"
);
},
{
closed = 1;
nodes = (
"313 641 CURVE SMOOTH",
"439 641 LINE SMOOTH",
"463 641 OFFCURVE",
"473 647 OFFCURVE",
"473 679 CURVE SMOOTH",
"473 730 OFFCURVE",
"460 905 OFFCURVE",
"454 959 CURVE SMOOTH",
"453 971 OFFCURVE",
"453 987 OFFCURVE",
"439 987 CURVE SMOOTH",
"412 987 OFFCURVE",
"321 916 OFFCURVE",
"290 843 CURVE SMOOTH",
"273 805 OFFCURVE",
"259 735 OFFCURVE",
"259 683 CURVE SMOOTH",
"259 652 OFFCURVE",
"279 641 OFFCURVE"
);
}
);
width = 936;
}
);
unicode = 0034;
},
{
glyphname = five;
lastChange = "2015-11-23 15:57:31 +0000";
layers = (
{
layerId = "BDAF7641-AC9B-4450-A8AE-7BAB26ED3EC6";
name = Bold;
paths = (
{
closed = 1;
nodes = (
"204 272 CURVE SMOOTH",
"211 279 OFFCURVE",
"218 287 OFFCURVE",
"232 287 CURVE SMOOTH",
"242 287 OFFCURVE",
"254 285 OFFCURVE",
"268 279 CURVE SMOOTH",
"306 263 OFFCURVE",
"379 238 OFFCURVE",
"444 238 CURVE SMOOTH",
"526 238 OFFCURVE",
"573 298 OFFCURVE",
"573 361 CURVE SMOOTH",
"573 403 OFFCURVE",
"555 459 OFFCURVE",
"519 484 CURVE SMOOTH",
"489 506 OFFCURVE",
"447 511 OFFCURVE",
"377 511 CURVE SMOOTH",
"236 511 LINE",
"195 511 OFFCURVE",
"174 527 OFFCURVE",
"167 571 CURVE SMOOTH",
"146 690 OFFCURVE",
"145 781 OFFCURVE",
"145 970 CURVE SMOOTH",
"145 1050 OFFCURVE",
"218 1206 OFFCURVE",
"297 1274 CURVE SMOOTH",
"307 1283 OFFCURVE",
"313 1286 OFFCURVE",
"322 1286 CURVE SMOOTH",
"340 1286 OFFCURVE",
"343 1269 OFFCURVE",
"347 1260 CURVE SMOOTH",
"360 1221 OFFCURVE",
"374 1211 OFFCURVE",
"415 1211 CURVE SMOOTH",
"795 1211 LINE",
"831 1211 OFFCURVE",
"847 1201 OFFCURVE",
"847 1173 CURVE SMOOTH",
"847 1111 OFFCURVE",
"790 978 OFFCURVE",
"759 930 CURVE SMOOTH",
"747 908 OFFCURVE",
"736 903 OFFCURVE",
"682 903 CURVE SMOOTH",
"439 903 LINE",
"415 903 OFFCURVE",
"406 896 OFFCURVE",
"406 872 CURVE SMOOTH",
"406 846 OFFCURVE",
"410 819 OFFCURVE",
"410 794 CURVE SMOOTH",
"410 776 OFFCURVE",
"417 773 OFFCURVE",
"442 773 CURVE SMOOTH",
"516 773 LINE",
"541 773 OFFCURVE",
"656 756 OFFCURVE",
"723 701 CURVE SMOOTH",
"786 648 OFFCURVE",
"836 573 OFFCURVE",
"836 459 CURVE SMOOTH",
"836 308 OFFCURVE",
"738 158 OFFCURVE",
"690 104 CURVE SMOOTH",
"593 -4 OFFCURVE",
"501 -32 OFFCURVE",
"405 -32 CURVE SMOOTH",
"293 -32 OFFCURVE",
"179 9 OFFCURVE",
"116 34 CURVE SMOOTH",
"89 45 OFFCURVE",
"85 53 OFFCURVE",
"85 63 CURVE SMOOTH",
"85 86 OFFCURVE",
"164 231 OFFCURVE"
);
}
);
width = 938;
}
);
unicode = 0035;
},
{
glyphname = six;
lastChange = "2015-11-23 15:57:31 +0000";
layers = (
{
layerId = "BDAF7641-AC9B-4450-A8AE-7BAB26ED3EC6";
name = Bold;
paths = (
{
closed = 1;
nodes = (
"13 351 CURVE SMOOTH",
"13 489 OFFCURVE",
"107 667 OFFCURVE",
"193 819 CURVE SMOOTH",
"281 975 OFFCURVE",
"350 1068 OFFCURVE",
"384 1120 CURVE SMOOTH",
"408 1152 OFFCURVE",
"424 1163 OFFCURVE",
"446 1178 CURVE SMOOTH",
"510 1217 OFFCURVE",
"639 1285 OFFCURVE",
"685 1285 CURVE SMOOTH",
"713 1285 OFFCURVE",
"731 1264 OFFCURVE",
"731 1247 CURVE SMOOTH",
"731 1228 OFFCURVE",
"716 1211 OFFCURVE",
"706 1195 CURVE SMOOTH",
"634 1086 OFFCURVE",
"494 912 OFFCURVE",
"419 774 CURVE SMOOTH",
"417 771 OFFCURVE",
"415 769 OFFCURVE",
"415 767 CURVE SMOOTH",
"415 763 OFFCURVE",
"419 761 OFFCURVE",
"422 761 CURVE SMOOTH",
"426 761 OFFCURVE",
"430 763 OFFCURVE",
"433 765 CURVE SMOOTH",
"447 774 OFFCURVE",
"507 794 OFFCURVE",
"564 794 CURVE SMOOTH",
"736 794 OFFCURVE",
"858 626 OFFCURVE",
"858 473 CURVE SMOOTH",
"858 337 OFFCURVE",
"808 226 OFFCURVE",
"716 125 CURVE SMOOTH",
"654 53 OFFCURVE",
"546 -32 OFFCURVE",
"415 -32 CURVE SMOOTH",
"309 -32 OFFCURVE",
"198 18 OFFCURVE",
"139 75 CURVE SMOOTH",
"97 115 OFFCURVE",
"13 200 OFFCURVE"
);
},
{
closed = 1;
nodes = (
"336 284 CURVE SMOOTH",
"376 253 OFFCURVE",
"432 231 OFFCURVE",
"460 231 CURVE SMOOTH",
"569 231 OFFCURVE",
"622 294 OFFCURVE",
"622 385 CURVE SMOOTH",
"622 450 OFFCURVE",
"571 568 OFFCURVE",
"439 568 CURVE SMOOTH",
"333 568 OFFCURVE",
"273 494 OFFCURVE",
"273 400 CURVE SMOOTH",
"273 353 OFFCURVE",
"299 312 OFFCURVE"
);
}
);
width = 936;
}
);
unicode = 0036;
},
{
glyphname = seven;
lastChange = "2015-11-23 15:57:31 +0000";
layers = (
{
layerId = "BDAF7641-AC9B-4450-A8AE-7BAB26ED3EC6";
name = Bold;
paths = (
{
closed = 1;
nodes = (
"206 299 CURVE SMOOTH",
"252 421 OFFCURVE",
"319 530 OFFCURVE",
"412 652 CURVE SMOOTH",
"456 713 OFFCURVE",
"517 844 OFFCURVE",
"517 882 CURVE SMOOTH",
"517 898 OFFCURVE",
"503 910 OFFCURVE",
"480 910 CURVE SMOOTH",
"98 910 LINE",
"57 910 OFFCURVE",
"32 916 OFFCURVE",
"32 948 CURVE SMOOTH",
"32 951 OFFCURVE",
"42 987 OFFCURVE",
"53 1014 CURVE SMOOTH",
"89 1110 OFFCURVE",
"143 1208 OFFCURVE",
"186 1264 CURVE SMOOTH",
"196 1278 OFFCURVE",
"218 1286 OFFCURVE",
"232 1286 CURVE SMOOTH",
"251 1286 OFFCURVE",
"265 1276 OFFCURVE",
"270 1262 CURVE SMOOTH",
"285 1219 OFFCURVE",
"293 1211 OFFCURVE",
"331 1211 CURVE SMOOTH",
"810 1211 LINE",
"870 1211 OFFCURVE",
"888 1178 OFFCURVE",
"888 1145 CURVE SMOOTH",
"888 1095 OFFCURVE",
"844 977 OFFCURVE",
"784 874 CURVE SMOOTH",
"748 810 OFFCURVE",
"702 751 OFFCURVE",
"666 703 CURVE SMOOTH",
"612 629 OFFCURVE",
"553 527 OFFCURVE",
"519 439 CURVE SMOOTH",
"505 402 OFFCURVE",
"480 312 OFFCURVE",
"480 269 CURVE SMOOTH",
"480 238 OFFCURVE",
"466 215 OFFCURVE",
"449 192 CURVE SMOOTH",
"396 113 OFFCURVE",
"290 11 OFFCURVE",
"220 -32 CURVE SMOOTH",
"213 -38 OFFCURVE",
"200 -43 OFFCURVE",
"191 -43 CURVE SMOOTH",
"170 -43 OFFCURVE",
"157 -27 OFFCURVE",
"157 2 CURVE SMOOTH",
"157 138 OFFCURVE",
"179 229 OFFCURVE"
);
}
);
width = 938;
}
);
unicode = 0037;
},
{
glyphname = eight;
lastChange = "2015-11-23 15:57:31 +0000";
layers = (
{
layerId = "BDAF7641-AC9B-4450-A8AE-7BAB26ED3EC6";
name = Bold;
paths = (
{
closed = 1;
nodes = (
"53 308 CURVE SMOOTH",
"53 466 OFFCURVE",
"175 585 OFFCURVE",
"204 607 CURVE SMOOTH",
"213 614 OFFCURVE",
"215 617 OFFCURVE",
"215 620 CURVE SMOOTH",
"215 624 OFFCURVE",
"209 626 OFFCURVE",
"200 631 CURVE SMOOTH",
"126 672 OFFCURVE",
"68 753 OFFCURVE",
"68 879 CURVE SMOOTH",
"68 956 OFFCURVE",
"111 1072 OFFCURVE",
"181 1156 CURVE SMOOTH",
"244 1231 OFFCURVE",
"328 1281 OFFCURVE",
"410 1281 CURVE SMOOTH",
"496 1281 OFFCURVE",
"582 1249 OFFCURVE",
"641 1206 CURVE SMOOTH",
"718 1152 OFFCURVE",
"757 1062 OFFCURVE",
"757 989 CURVE SMOOTH",
"757 884 OFFCURVE",
"711 801 OFFCURVE",
"639 722 CURVE SMOOTH",
"637 720 OFFCURVE",
"634 717 OFFCURVE",
"634 713 CURVE SMOOTH",
"634 710 OFFCURVE",
"636 704 OFFCURVE",
"644 701 CURVE SMOOTH",
"704 669 OFFCURVE",
"755 631 OFFCURVE",
"788 600 CURVE SMOOTH",
"849 543 OFFCURVE",
"858 466 OFFCURVE",
"858 424 CURVE SMOOTH",
"858 323 OFFCURVE",
"791 178 OFFCURVE",
"685 72 CURVE SMOOTH",
"603 -9 OFFCURVE",
"507 -32 OFFCURVE",
"428 -32 CURVE SMOOTH",
"376 -32 OFFCURVE",
"290 -22 OFFCURVE",
"213 29 CURVE SMOOTH",
"132 81 OFFCURVE",
"53 193 OFFCURVE"
);
},
{
closed = 1;
nodes = (
"548 424 CURVE SMOOTH",
"514 452 OFFCURVE",
"398 518 OFFCURVE",
"381 527 CURVE SMOOTH",
"379 529 OFFCURVE",
"369 536 OFFCURVE",
"356 536 CURVE SMOOTH",
"338 536 OFFCURVE",
"285 493 OFFCURVE",
"285 409 CURVE SMOOTH",
"285 317 OFFCURVE",
"356 246 OFFCURVE",
"461 246 CURVE SMOOTH",
"528 246 OFFCURVE",
"584 282 OFFCURVE",
"584 355 CURVE SMOOTH",
"584 378 OFFCURVE",
"579 400 OFFCURVE"
);
},
{
closed = 1;
nodes = (
"394 1016 CURVE SMOOTH",
"331 1016 OFFCURVE",
"311 971 OFFCURVE",
"311 944 CURVE SMOOTH",
"311 923 OFFCURVE",
"319 903 OFFCURVE",
"335 882 CURVE SMOOTH",
"360 851 OFFCURVE",
"483 787 OFFCURVE",
"489 787 CURVE SMOOTH",
"496 787 OFFCURVE",
"505 797 OFFCURVE",
"514 809 CURVE SMOOTH",
"531 833 OFFCURVE",
"539 867 OFFCURVE",
"539 889 CURVE SMOOTH",
"539 970 OFFCURVE",
"469 1016 OFFCURVE"
);
}
);
width = 938;
}
);
unicode = 0038;
},
{
glyphname = nine;
lastChange = "2015-11-23 15:57:31 +0000";
layers = (
{
layerId = "BDAF7641-AC9B-4450-A8AE-7BAB26ED3EC6";
name = Bold;
paths = (
{
closed = 1;
nodes = (
"220 55 CURVE SMOOTH",
"273 156 OFFCURVE",
"398 333 OFFCURVE",
"454 424 CURVE SMOOTH",
"458 431 OFFCURVE",
"460 436 OFFCURVE",
"460 439 CURVE SMOOTH",
"460 445 OFFCURVE",
"454 448 OFFCURVE",
"447 448 CURVE SMOOTH",
"442 448 OFFCURVE",
"401 432 OFFCURVE",
"363 432 CURVE SMOOTH",
"295 432 OFFCURVE",
"213 455 OFFCURVE",
"132 536 CURVE SMOOTH",
"66 604 OFFCURVE",
"41 686 OFFCURVE",
"41 781 CURVE SMOOTH",
"41 905 OFFCURVE",
"132 1057 OFFCURVE",
"168 1100 CURVE SMOOTH",
"218 1161 OFFCURVE",
"326 1281 OFFCURVE",
"499 1281 CURVE SMOOTH",
"587 1281 OFFCURVE",
"704 1240 OFFCURVE",
"795 1154 CURVE SMOOTH",
"883 1068 OFFCURVE",
"899 961 OFFCURVE",
"899 869 CURVE SMOOTH",
"899 788 OFFCURVE",
"874 722 OFFCURVE",
"847 665 CURVE SMOOTH",
"781 525 OFFCURVE",
"637 289 OFFCURVE",
"548 161 CURVE SMOOTH",
"530 137 OFFCURVE",
"499 79 OFFCURVE",
"458 52 CURVE SMOOTH",
"412 22 OFFCURVE",
"324 -24 OFFCURVE",
"234 -43 CURVE SMOOTH",
"227 -45 OFFCURVE",
"225 -45 OFFCURVE",
"220 -45 CURVE SMOOTH",
"195 -45 OFFCURVE",
"184 -31 OFFCURVE",
"184 -18 CURVE SMOOTH",
"184 -2 OFFCURVE",
"209 36 OFFCURVE"
);
},
{
closed = 1;
nodes = (
"569 704 CURVE SMOOTH",
"607 730 OFFCURVE",
"629 773 OFFCURVE",
"629 830 CURVE SMOOTH",
"629 869 OFFCURVE",
"608 930 OFFCURVE",
"567 966 CURVE SMOOTH",
"531 998 OFFCURVE",
"490 1009 OFFCURVE",
"437 1009 CURVE SMOOTH",
"392 1009 OFFCURVE",
"356 998 OFFCURVE",
"331 971 CURVE SMOOTH",
"304 941 OFFCURVE",
"290 903 OFFCURVE",
"290 857 CURVE SMOOTH",
"290 739 OFFCURVE",
"372 674 OFFCURVE",
"461 674 CURVE SMOOTH",
"499 674 OFFCURVE",
"543 686 OFFCURVE"
);
}
);
width = 936;
}
);
unicode = 0039;
},
{
glyphname = zero.001;
lastChange = "2015-11-23 15:57:31 +0000";
layers = (
{
guideLines = (
{
position = "{-120, 1180}";
},
{
position = "{-120, 1221}";
}
);
layerId = "BDAF7641-AC9B-4450-A8AE-7BAB26ED3EC6";
name = Bold;
paths = (
{
closed = 1;
nodes = (
"21 534 CURVE SMOOTH",
"21 688 OFFCURVE",
"69 860 OFFCURVE",
"164 973 CURVE SMOOTH",
"230 1052 OFFCURVE",
"309 1081 OFFCURVE",
"394 1081 CURVE SMOOTH",
"678 1081 OFFCURVE",
"793 787 OFFCURVE",
"793 523 CURVE SMOOTH",
"793 387 OFFCURVE",
"743 204 OFFCURVE",
"646 93 CURVE SMOOTH",
"566 2 OFFCURVE",
"485 -32 OFFCURVE",
"401 -32 CURVE SMOOTH",
"306 -32 OFFCURVE",
"211 2 OFFCURVE",
"146 86 CURVE SMOOTH",
"73 181 OFFCURVE",
"21 306 OFFCURVE"
);
},
{
closed = 1;
nodes = (
"451 208 CURVE SMOOTH",
"483 208 OFFCURVE",
"514 215 OFFCURVE",
"530 242 CURVE SMOOTH",
"548 272 OFFCURVE",
"574 326 OFFCURVE",
"574 431 CURVE SMOOTH",
"574 500 OFFCURVE",
"573 571 OFFCURVE",
"541 686 CURVE SMOOTH",
"528 732 OFFCURVE",
"487 794 OFFCURVE",
"447 817 CURVE SMOOTH",
"437 824 OFFCURVE",
"394 846 OFFCURVE",
"336 846 CURVE SMOOTH",
"306 846 OFFCURVE",
"279 823 OFFCURVE",
"266 778 CURVE SMOOTH",
"249 717 OFFCURVE",
"237 662 OFFCURVE",
"237 600 CURVE SMOOTH",
"237 475 OFFCURVE",
"259 347 OFFCURVE",
"292 292 CURVE SMOOTH",
"326 233 OFFCURVE",
"394 208 OFFCURVE"
);
}
);
width = 816;
}
);
userData = {
com.typemytype.robofont.guides = (
{
angle = 0;
isGlobal = 0;
magnetic = 5;
x = 0;
y = 576;
},
{
angle = 0;
isGlobal = 0;
magnetic = 5;
x = 0;
y = 596;
}
);
};
},
{
glyphname = one.001;
lastChange = "2015-11-23 15:57:31 +0000";
layers = (
{
guideLines = (
{
position = "{-120, 1235}";
}
);
layerId = "BDAF7641-AC9B-4450-A8AE-7BAB26ED3EC6";
name = Bold;
paths = (
{
closed = 1;
nodes = (
"157 267 CURVE SMOOTH",
"167 277 OFFCURVE",
"175 285 OFFCURVE",
"195 285 CURVE SMOOTH",
"300 285 LINE",
"322 285 OFFCURVE",
"326 305 OFFCURVE",
"326 317 CURVE SMOOTH",
"326 393 OFFCURVE",
"322 532 OFFCURVE",
"319 611 CURVE SMOOTH",
"317 658 OFFCURVE",
"313 747 OFFCURVE",
"258 780 CURVE SMOOTH",
"227 797 OFFCURVE",
"159 810 OFFCURVE",
"138 814 CURVE SMOOTH",
"121 819 OFFCURVE",
"114 824 OFFCURVE",
"114 844 CURVE SMOOTH",
"114 865 OFFCURVE",
"126 886 OFFCURVE",
"155 910 CURVE SMOOTH",
"208 961 OFFCURVE",
"272 1011 OFFCURVE",
"345 1050 CURVE SMOOTH",
"394 1077 OFFCURVE",
"437 1089 OFFCURVE",
"471 1089 CURVE SMOOTH",
"512 1089 OFFCURVE",
"541 1062 OFFCURVE",
"550 1016 CURVE SMOOTH",
"569 910 OFFCURVE",
"569 814 OFFCURVE",
"569 708 CURVE SMOOTH",
"569 466 OFFCURVE",
"582 383 OFFCURVE",
"584 330 CURVE SMOOTH",
"587 296 OFFCURVE",
"623 284 OFFCURVE",
"650 284 CURVE SMOOTH",
"769 284 LINE",
"783 284 OFFCURVE",
"798 272 OFFCURVE",
"798 256 CURVE SMOOTH",
"798 248 OFFCURVE",
"793 228 OFFCURVE",
"786 215 CURVE SMOOTH",
"765 166 OFFCURVE",
"723 52 OFFCURVE",
"699 18 CURVE SMOOTH",
"687 4 OFFCURVE",
"675 0 OFFCURVE",
"652 0 CURVE SMOOTH",
"97 0 LINE",
"71 0 OFFCURVE",
"55 11 OFFCURVE",
"55 27 CURVE SMOOTH",
"55 63 OFFCURVE",
"139 240 OFFCURVE"
);
}
);
width = 816;
}
);
userData = {
com.typemytype.robofont.guides = (
{
angle = 0;
isGlobal = 0;
magnetic = 5;
x = 0;
y = 603;
}
);
};
},
{
glyphname = two.001;
lastChange = "2015-11-23 15:57:31 +0000";
layers = (
{
layerId = "BDAF7641-AC9B-4450-A8AE-7BAB26ED3EC6";
name = Bold;
paths = (
{
closed = 1;
nodes = (
"193 267 CURVE SMOOTH",
"239 347 OFFCURVE",
"309 428 OFFCURVE",
"342 470 CURVE SMOOTH",
"384 527 OFFCURVE",
"453 606 OFFCURVE",
"453 665 CURVE SMOOTH",
"453 765 OFFCURVE",
"367 805 OFFCURVE",
"313 821 CURVE SMOOTH",
"265 833 OFFCURVE",
"170 833 OFFCURVE",
"143 833 CURVE SMOOTH",
"112 833 OFFCURVE",
"109 851 OFFCURVE",
"109 855 CURVE SMOOTH",
"109 862 OFFCURVE",
"186 1021 OFFCURVE",
"220 1055 CURVE SMOOTH",
"232 1072 OFFCURVE",
"247 1081 OFFCURVE",
"266 1081 CURVE SMOOTH",
"335 1081 OFFCURVE",
"471 1059 OFFCURVE",
"517 1040 CURVE SMOOTH",
"603 1002 OFFCURVE",
"706 918 OFFCURVE",
"706 774 CURVE SMOOTH",
"706 674 OFFCURVE",
"608 561 OFFCURVE",
"519 455 CURVE SMOOTH",
"492 423 OFFCURVE",
"428 342 OFFCURVE",
"428 310 CURVE SMOOTH",
"428 289 OFFCURVE",
"442 284 OFFCURVE",
"463 284 CURVE SMOOTH",
"765 284 LINE",
"783 284 OFFCURVE",
"786 277 OFFCURVE",
"786 270 CURVE SMOOTH",
"786 224 OFFCURVE",
"706 88 OFFCURVE",
"663 25 CURVE SMOOTH",
"650 9 OFFCURVE",
"643 2 OFFCURVE",
"625 2 CURVE SMOOTH",
"138 2 LINE",
"114 2 OFFCURVE",
"102 5 OFFCURVE",
"102 24 CURVE SMOOTH",
"102 84 OFFCURVE",
"148 190 OFFCURVE"
);
}
);
width = 816;
}
);
},
{
glyphname = three.001;
lastChange = "2015-11-23 15:57:31 +0000";
layers = (
{
layerId = "BDAF7641-AC9B-4450-A8AE-7BAB26ED3EC6";
name = Bold;
paths = (
{
closed = 1;
nodes = (
"75 86 CURVE SMOOTH",
"100 137 OFFCURVE",
"164 231 OFFCURVE",
"184 251 CURVE SMOOTH",
"195 262 OFFCURVE",
"200 269 OFFCURVE",
"213 269 CURVE SMOOTH",
"220 269 OFFCURVE",
"230 263 OFFCURVE",
"242 258 CURVE SMOOTH",
"263 246 OFFCURVE",
"306 224 OFFCURVE",
"356 224 CURVE SMOOTH",
"405 224 OFFCURVE",
"475 242 OFFCURVE",
"475 296 CURVE SMOOTH",
"475 342 OFFCURVE",
"428 390 OFFCURVE",
"381 403 CURVE SMOOTH",
"345 414 OFFCURVE",
"297 421 OFFCURVE",
"263 421 CURVE SMOOTH",
"242 421 OFFCURVE",
"230 426 OFFCURVE",
"230 448 CURVE SMOOTH",
"230 491 OFFCURVE",
"285 599 OFFCURVE",
"356 643 CURVE SMOOTH",
"403 672 OFFCURVE",
"437 696 OFFCURVE",
"437 744 CURVE SMOOTH",
"437 788 OFFCURVE",
"396 814 OFFCURVE",
"353 828 CURVE SMOOTH",
"302 843 OFFCURVE",
"202 846 OFFCURVE",
"167 846 CURVE SMOOTH",
"150 846 OFFCURVE",
"139 850 OFFCURVE",
"139 865 CURVE SMOOTH",
"139 884 OFFCURVE",
"218 1034 OFFCURVE",
"249 1065 CURVE SMOOTH",
"258 1074 OFFCURVE",
"265 1081 OFFCURVE",
"281 1081 CURVE SMOOTH",
"437 1081 OFFCURVE",
"663 1023 OFFCURVE",
"663 833 CURVE SMOOTH",
"663 735 OFFCURVE",
"589 656 OFFCURVE",
"555 620 CURVE SMOOTH",
"548 613 OFFCURVE",
"546 607 OFFCURVE",
"546 604 CURVE SMOOTH",
"546 597 OFFCURVE",
"553 595 OFFCURVE",
"557 592 CURVE SMOOTH",
"591 570 OFFCURVE",
"725 515 OFFCURVE",
"725 361 CURVE SMOOTH",
"725 233 OFFCURVE",
"644 127 OFFCURVE",
"579 65 CURVE SMOOTH",
"507 -5 OFFCURVE",
"376 -32 OFFCURVE",
"307 -32 CURVE SMOOTH",
"239 -32 OFFCURVE",
"160 -12 OFFCURVE",
"87 32 CURVE SMOOTH",
"78 38 OFFCURVE",
"66 45 OFFCURVE",
"66 58 CURVE SMOOTH",
"66 65 OFFCURVE",
"69 75 OFFCURVE"
);
}
);
width = 816;
}
);
},
{
glyphname = four.001;
lastChange = "2015-11-23 15:57:31 +0000";
layers = (
{
layerId = "BDAF7641-AC9B-4450-A8AE-7BAB26ED3EC6";
name = Bold;
paths = (
{
closed = 1;
nodes = (
"403 253 CURVE SMOOTH",
"403 282 OFFCURVE",
"392 291 OFFCURVE",
"372 291 CURVE SMOOTH",
"100 291 LINE",
"46 291 OFFCURVE",
"8 333 OFFCURVE",
"8 393 CURVE SMOOTH",
"8 477 OFFCURVE",
"76 643 OFFCURVE",
"123 733 CURVE SMOOTH",
"152 788 OFFCURVE",
"202 887 OFFCURVE",
"270 949 CURVE SMOOTH",
"319 997 OFFCURVE",
"391 1038 OFFCURVE",
"439 1057 CURVE SMOOTH",
"469 1070 OFFCURVE",
"533 1089 OFFCURVE",
"552 1089 CURVE SMOOTH",
"566 1089 OFFCURVE",
"587 1077 OFFCURVE",
"587 1048 CURVE SMOOTH",
"598 941 OFFCURVE",
"605 595 OFFCURVE",
"605 577 CURVE SMOOTH",
"605 568 OFFCURVE",
"610 561 OFFCURVE",
"629 561 CURVE SMOOTH",
"763 561 LINE",
"779 561 OFFCURVE",
"790 550 OFFCURVE",
"790 530 CURVE SMOOTH",
"790 493 OFFCURVE",
"727 340 OFFCURVE",
"700 305 CURVE SMOOTH",
"695 298 OFFCURVE",
"685 289 OFFCURVE",
"678 289 CURVE SMOOTH",
"616 289 LINE",
"605 289 OFFCURVE",
"598 272 OFFCURVE",
"598 249 CURVE SMOOTH",
"598 174 LINE SMOOTH",
"598 161 OFFCURVE",
"593 144 OFFCURVE",
"586 129 CURVE SMOOTH",
"557 72 OFFCURVE",
"496 0 OFFCURVE",
"463 -32 CURVE SMOOTH",
"456 -39 OFFCURVE",
"449 -45 OFFCURVE",
"435 -45 CURVE SMOOTH",
"420 -45 OFFCURVE",
"408 -36 OFFCURVE",
"408 5 CURVE SMOOTH",
"408 45 OFFCURVE",
"403 215 OFFCURVE"
);
},
{
closed = 1;
nodes = (
"290 561 CURVE SMOOTH",
"391 561 LINE",
"412 561 OFFCURVE",
"419 566 OFFCURVE",
"419 590 CURVE SMOOTH",
"419 634 OFFCURVE",
"410 767 OFFCURVE",
"405 812 CURVE SMOOTH",
"403 823 OFFCURVE",
"403 838 OFFCURVE",
"391 838 CURVE SMOOTH",
"367 838 OFFCURVE",
"295 780 OFFCURVE",
"270 717 CURVE SMOOTH",
"258 686 OFFCURVE",
"245 640 OFFCURVE",
"245 597 CURVE SMOOTH",
"245 570 OFFCURVE",
"261 561 OFFCURVE"
);
}
);
width = 814;
}
);
},
{
glyphname = five.001;
lastChange = "2015-11-23 15:57:31 +0000";
layers = (
{
layerId = "BDAF7641-AC9B-4450-A8AE-7BAB26ED3EC6";
name = Bold;
paths = (
{
closed = 1;
nodes = (
"198 260 CURVE SMOOTH",
"204 265 OFFCURVE",
"209 270 OFFCURVE",
"222 270 CURVE SMOOTH",
"229 270 OFFCURVE",
"239 269 OFFCURVE",
"252 265 CURVE SMOOTH",
"283 251 OFFCURVE",
"333 231 OFFCURVE",
"386 231 CURVE SMOOTH",
"456 231 OFFCURVE",
"489 272 OFFCURVE",
"489 312 CURVE SMOOTH",
"489 335 OFFCURVE",
"482 369 OFFCURVE",
"451 390 CURVE SMOOTH",
"426 409 OFFCURVE",
"391 412 OFFCURVE",
"331 412 CURVE SMOOTH",
"213 412 LINE",
"177 412 OFFCURVE",
"159 426 OFFCURVE",
"153 464 CURVE SMOOTH",
"138 563 OFFCURVE",
"136 665 OFFCURVE",
"136 824 CURVE SMOOTH",
"136 891 OFFCURVE",
"196 1021 OFFCURVE",
"263 1079 CURVE SMOOTH",
"272 1086 OFFCURVE",
"277 1089 OFFCURVE",
"285 1089 CURVE SMOOTH",
"299 1089 OFFCURVE",
"302 1075 OFFCURVE",
"306 1068 CURVE SMOOTH",
"317 1034 OFFCURVE",
"328 1027 OFFCURVE",
"363 1027 CURVE SMOOTH",
"692 1027 LINE",
"720 1027 OFFCURVE",
"734 1018 OFFCURVE",
"734 995 CURVE SMOOTH",
"734 942 OFFCURVE",
"685 821 OFFCURVE",
"661 780 CURVE SMOOTH",
"650 761 OFFCURVE",
"641 758 OFFCURVE",
"596 758 CURVE SMOOTH",
"399 758 LINE",
"381 758 OFFCURVE",
"372 751 OFFCURVE",
"372 732 CURVE SMOOTH",
"372 710 OFFCURVE",
"376 686 OFFCURVE",
"376 665 CURVE SMOOTH",
"376 648 OFFCURVE",
"381 647 OFFCURVE",
"403 647 CURVE SMOOTH",
"469 647 LINE",
"489 647 OFFCURVE",
"584 638 OFFCURVE",
"641 592 CURVE SMOOTH",
"693 549 OFFCURVE",
"740 477 OFFCURVE",
"740 380 CURVE SMOOTH",
"740 253 OFFCURVE",
"654 127 OFFCURVE",
"612 82 CURVE SMOOTH",
"531 -9 OFFCURVE",
"435 -32 OFFCURVE",
"355 -32 CURVE SMOOTH",
"261 -32 OFFCURVE",
"164 2 OFFCURVE",
"111 24 CURVE SMOOTH",
"89 32 OFFCURVE",
"85 39 OFFCURVE",
"85 46 CURVE SMOOTH",
"85 67 OFFCURVE",
"164 224 OFFCURVE"
);
}
);
width = 816;
}
);
},
{
glyphname = six.001;
lastChange = "2015-11-23 15:57:31 +0000";
layers = (
{
layerId = "BDAF7641-AC9B-4450-A8AE-7BAB26ED3EC6";
name = Bold;
paths = (
{
closed = 1;
nodes = (
"13 291 CURVE SMOOTH",
"13 405 OFFCURVE",
"93 556 OFFCURVE",
"167 683 CURVE SMOOTH",
"244 816 OFFCURVE",
"306 905 OFFCURVE",
"335 949 CURVE SMOOTH",
"353 977 OFFCURVE",
"370 989 OFFCURVE",
"391 1002 CURVE SMOOTH",
"442 1036 OFFCURVE",
"567 1088 OFFCURVE",
"607 1088 CURVE SMOOTH",
"629 1088 OFFCURVE",
"644 1070 OFFCURVE",
"644 1055 CURVE SMOOTH",
"644 1040 OFFCURVE",
"632 1019 OFFCURVE",
"618 1002 CURVE SMOOTH",
"550 916 OFFCURVE",
"456 785 OFFCURVE",
"394 670 CURVE SMOOTH",
"392 667 OFFCURVE",
"391 665 OFFCURVE",
"391 663 CURVE SMOOTH",
"391 662 OFFCURVE",
"394 660 OFFCURVE",
"396 660 CURVE SMOOTH",
"399 660 OFFCURVE",
"403 662 OFFCURVE",
"405 663 CURVE SMOOTH",
"417 670 OFFCURVE",
"449 679 OFFCURVE",
"497 679 CURVE SMOOTH",
"650 679 OFFCURVE",
"750 520 OFFCURVE",
"750 393 CURVE SMOOTH",
"750 277 OFFCURVE",
"699 185 OFFCURVE",
"622 101 CURVE SMOOTH",
"566 41 OFFCURVE",
"471 -32 OFFCURVE",
"362 -32 CURVE SMOOTH",
"272 -32 OFFCURVE",
"174 9 OFFCURVE",
"125 55 CURVE SMOOTH",
"87 89 OFFCURVE",
"13 163 OFFCURVE"
);
},
{
closed = 1;
nodes = (
"300 242 CURVE SMOOTH",
"329 219 OFFCURVE",
"374 202 OFFCURVE",
"396 202 CURVE SMOOTH",
"483 202 OFFCURVE",
"526 248 OFFCURVE",
"526 321 CURVE SMOOTH",
"526 369 OFFCURVE",
"490 472 OFFCURVE",
"391 472 CURVE SMOOTH",
"309 472 OFFCURVE",
"254 402 OFFCURVE",
"254 330 CURVE SMOOTH",
"254 294 OFFCURVE",
"272 263 OFFCURVE"
);
}
);
width = 816;
}
);
},
{
glyphname = seven.001;
lastChange = "2015-11-23 15:57:31 +0000";
layers = (
{
layerId = "BDAF7641-AC9B-4450-A8AE-7BAB26ED3EC6";
name = Bold;
paths = (
{
closed = 1;
nodes = (
"193 246 CURVE SMOOTH",
"232 347 OFFCURVE",
"290 436 OFFCURVE",
"367 537 CURVE SMOOTH",
"405 590 OFFCURVE",
"461 686 OFFCURVE",
"461 718 CURVE SMOOTH",
"461 732 OFFCURVE",
"449 742 OFFCURVE",
"430 742 CURVE SMOOTH",
"91 742 LINE",
"57 742 OFFCURVE",
"35 747 OFFCURVE",
"35 774 CURVE SMOOTH",
"35 776 OFFCURVE",
"48 819 OFFCURVE",
"57 843 CURVE SMOOTH",
"87 921 OFFCURVE",
"139 1023 OFFCURVE",
"177 1070 CURVE SMOOTH",
"186 1082 OFFCURVE",
"204 1089 OFFCURVE",
"215 1089 CURVE SMOOTH",
"230 1089 OFFCURVE",
"244 1081 OFFCURVE",
"247 1070 CURVE SMOOTH",
"259 1034 OFFCURVE",
"266 1027 OFFCURVE",
"299 1027 CURVE SMOOTH",
"721 1027 LINE",
"772 1027 OFFCURVE",
"788 998 OFFCURVE",
"788 971 CURVE SMOOTH",
"788 930 OFFCURVE",
"747 817 OFFCURVE",
"697 732 CURVE SMOOTH",
"666 677 OFFCURVE",
"627 627 OFFCURVE",
"598 588 CURVE SMOOTH",
"552 525 OFFCURVE",
"496 438 OFFCURVE",
"468 362 CURVE SMOOTH",
"454 332 OFFCURVE",
"433 262 OFFCURVE",
"433 226 CURVE SMOOTH",
"433 199 OFFCURVE",
"422 174 OFFCURVE",
"408 156 CURVE SMOOTH",
"363 89 OFFCURVE",
"268 7 OFFCURVE",
"213 -31 CURVE SMOOTH",
"206 -36 OFFCURVE",
"193 -41 OFFCURVE",
"186 -41 CURVE SMOOTH",
"168 -41 OFFCURVE",
"157 -29 OFFCURVE",
"157 -4 CURVE SMOOTH",
"157 109 OFFCURVE",
"170 186 OFFCURVE"
);
}
);
width = 816;
}
);
},
{
glyphname = eight.001;
lastChange = "2015-11-23 15:57:31 +0000";
layers = (
{
layerId = "BDAF7641-AC9B-4450-A8AE-7BAB26ED3EC6";
name = Bold;
paths = (
{
closed = 1;
nodes = (
"48 256 CURVE SMOOTH",
"48 393 OFFCURVE",
"162 489 OFFCURVE",
"189 509 CURVE SMOOTH",
"196 515 OFFCURVE",
"198 520 OFFCURVE",
"198 522 CURVE SMOOTH",
"198 525 OFFCURVE",
"191 527 OFFCURVE",
"182 532 CURVE SMOOTH",
"119 570 OFFCURVE",
"66 631 OFFCURVE",
"66 737 CURVE SMOOTH",
"66 803 OFFCURVE",
"100 901 OFFCURVE",
"159 973 CURVE SMOOTH",
"213 1040 OFFCURVE",
"299 1081 OFFCURVE",
"370 1081 CURVE SMOOTH",
"442 1081 OFFCURVE",
"524 1054 OFFCURVE",
"577 1019 CURVE SMOOTH",
"641 977 OFFCURVE",
"680 894 OFFCURVE",
"680 830 CURVE SMOOTH",
"680 742 OFFCURVE",
"646 679 OFFCURVE",
"582 614 CURVE SMOOTH",
"579 611 OFFCURVE",
"571 606 OFFCURVE",
"571 602 CURVE SMOOTH",
"571 599 OFFCURVE",
"574 595 OFFCURVE",
"582 592 CURVE SMOOTH",
"630 564 OFFCURVE",
"677 537 OFFCURVE",
"704 511 CURVE SMOOTH",
"757 464 OFFCURVE",
"763 390 OFFCURVE",
"763 357 CURVE SMOOTH",
"763 269 OFFCURVE",
"709 145 OFFCURVE",
"616 58 CURVE SMOOTH",
"545 -9 OFFCURVE",
"451 -32 OFFCURVE",
"384 -32 CURVE SMOOTH",
"340 -32 OFFCURVE",
"252 -24 OFFCURVE",
"189 20 CURVE SMOOTH",
"119 65 OFFCURVE",
"48 159 OFFCURVE"
);
},
{
closed = 1;
nodes = (
"497 357 CURVE SMOOTH",
"469 380 OFFCURVE",
"363 436 OFFCURVE",
"345 445 CURVE SMOOTH",
"342 446 OFFCURVE",
"335 452 OFFCURVE",
"324 452 CURVE SMOOTH",
"309 452 OFFCURVE",
"251 414 OFFCURVE",
"251 340 CURVE SMOOTH",
"251 263 OFFCURVE",
"324 204 OFFCURVE",
"413 204 CURVE SMOOTH",
"485 204 OFFCURVE",
"528 233 OFFCURVE",
"528 296 CURVE SMOOTH",
"528 315 OFFCURVE",
"523 333 OFFCURVE"
);
},
{
closed = 1;
nodes = (
"356 853 CURVE SMOOTH",
"302 853 OFFCURVE",
"277 817 OFFCURVE",
"277 794 CURVE SMOOTH",
"277 774 OFFCURVE",
"285 758 OFFCURVE",
"299 740 CURVE SMOOTH",
"321 715 OFFCURVE",
"433 662 OFFCURVE",
"437 662 CURVE SMOOTH",
"442 662 OFFCURVE",
"451 670 OFFCURVE",
"460 681 CURVE SMOOTH",
"475 703 OFFCURVE",
"490 727 OFFCURVE",
"490 746 CURVE SMOOTH",
"490 816 OFFCURVE",
"420 853 OFFCURVE"
);
}
);
width = 816;
}
);
},
{
glyphname = nine.001;
lastChange = "2015-11-23 15:57:31 +0000";
layers = (
{
layerId = "BDAF7641-AC9B-4450-A8AE-7BAB26ED3EC6";
name = Bold;
paths = (
{
closed = 1;
nodes = (
"175 39 CURVE SMOOTH",
"222 125 OFFCURVE",
"324 263 OFFCURVE",
"370 342 CURVE SMOOTH",
"374 347 OFFCURVE",
"376 351 OFFCURVE",
"376 355 CURVE SMOOTH",
"376 361 OFFCURVE",
"370 362 OFFCURVE",
"365 362 CURVE SMOOTH",
"360 362 OFFCURVE",
"333 353 OFFCURVE",
"300 353 CURVE SMOOTH",
"244 353 OFFCURVE",
"168 373 OFFCURVE",
"98 441 CURVE SMOOTH",
"41 498 OFFCURVE",
"21 571 OFFCURVE",
"21 652 CURVE SMOOTH",
"21 758 OFFCURVE",
"105 894 OFFCURVE",
"136 930 CURVE SMOOTH",
"181 982 OFFCURVE",
"272 1081 OFFCURVE",
"420 1081 CURVE SMOOTH",
"494 1081 OFFCURVE",
"601 1047 OFFCURVE",
"678 973 CURVE SMOOTH",
"754 900 OFFCURVE",
"776 797 OFFCURVE",
"776 727 CURVE SMOOTH",
"776 660 OFFCURVE",
"750 604 OFFCURVE",
"727 554 CURVE SMOOTH",
"670 434 OFFCURVE",
"553 242 OFFCURVE",
"480 129 CURVE SMOOTH",
"458 97 OFFCURVE",
"432 58 OFFCURVE",
"396 36 CURVE SMOOTH",
"356 11 OFFCURVE",
"208 -46 OFFCURVE",
"175 -46 CURVE SMOOTH",
"155 -46 OFFCURVE",
"145 -36 OFFCURVE",
"145 -25 CURVE SMOOTH",
"145 -11 OFFCURVE",
"167 22 OFFCURVE"
);
},
{
closed = 1;
nodes = (
"475 597 CURVE SMOOTH",
"505 617 OFFCURVE",
"517 650 OFFCURVE",
"517 696 CURVE SMOOTH",
"517 725 OFFCURVE",
"503 774 OFFCURVE",
"469 801 CURVE SMOOTH",
"442 824 OFFCURVE",
"410 833 OFFCURVE",
"369 833 CURVE SMOOTH",
"333 833 OFFCURVE",
"306 824 OFFCURVE",
"286 805 CURVE SMOOTH",
"266 781 OFFCURVE",
"254 751 OFFCURVE",
"254 717 CURVE SMOOTH",
"254 626 OFFCURVE",
"319 575 OFFCURVE",
"388 575 CURVE SMOOTH",
"417 575 OFFCURVE",
"453 583 OFFCURVE"
);
}
);
width = 816;
}
);
},
{
glyphname = asterisk;
lastChange = "2015-11-23 15:57:31 +0000";
layers = (
{
guideLines = (
{
position = "{-120, 1591}";
}
);
layerId = "BDAF7641-AC9B-4450-A8AE-7BAB26ED3EC6";
name = Bold;
paths = (
{
closed = 1;
nodes = (
"338 1077 CURVE SMOOTH",
"333 1081 OFFCURVE",
"329 1082 OFFCURVE",
"324 1082 CURVE SMOOTH",
"321 1082 OFFCURVE",
"317 1081 OFFCURVE",
"313 1077 CURVE SMOOTH",
"300 1072 OFFCURVE",
"209 1007 OFFCURVE",
"196 1002 CURVE SMOOTH",
"193 998 OFFCURVE",
"189 998 OFFCURVE",
"186 998 CURVE SMOOTH",
"177 998 OFFCURVE",
"168 1005 OFFCURVE",
"168 1018 CURVE SMOOTH",
"168 1041 OFFCURVE",
"209 1127 OFFCURVE",
"209 1142 CURVE SMOOTH",
"209 1158 OFFCURVE",
"208 1165 OFFCURVE",
"204 1168 CURVE SMOOTH",
"174 1192 OFFCURVE",
"116 1229 OFFCURVE",
"105 1236 CURVE SMOOTH",
"98 1240 OFFCURVE",
"97 1251 OFFCURVE",
"97 1255 CURVE SMOOTH",
"97 1262 OFFCURVE",
"100 1269 OFFCURVE",
"112 1269 CURVE",
"230 1269 LINE SMOOTH",
"245 1269 OFFCURVE",
"259 1274 OFFCURVE",
"263 1291 CURVE SMOOTH",
"273 1320 OFFCURVE",
"302 1407 OFFCURVE",
"307 1416 CURVE SMOOTH",
"309 1425 OFFCURVE",
"317 1430 OFFCURVE",
"324 1430 CURVE SMOOTH",
"331 1430 OFFCURVE",
"338 1425 OFFCURVE",
"340 1416 CURVE SMOOTH",
"343 1407 OFFCURVE",
"377 1320 OFFCURVE",
"386 1291 CURVE SMOOTH",
"392 1274 OFFCURVE",
"406 1269 OFFCURVE",
"419 1269 CURVE SMOOTH",
"533 1269 LINE SMOOTH",
"546 1269 OFFCURVE",
"550 1262 OFFCURVE",
"550 1255 CURVE SMOOTH",
"550 1251 OFFCURVE",
"543 1238 OFFCURVE",
"535 1235 CURVE SMOOTH",
"524 1228 OFFCURVE",
"476 1192 OFFCURVE",
"447 1168 CURVE SMOOTH",
"442 1165 OFFCURVE",
"440 1158 OFFCURVE",
"440 1142 CURVE SMOOTH",
"440 1122 OFFCURVE",
"478 1043 OFFCURVE",
"478 1019 CURVE SMOOTH",
"478 1007 OFFCURVE",
"471 998 OFFCURVE",
"461 998 CURVE SMOOTH",
"461 998 OFFCURVE",
"456 1002 OFFCURVE",
"454 1002 CURVE SMOOTH",
"440 1007 OFFCURVE",
"349 1072 OFFCURVE"
);
}
);
width = 652;
}
);
unicode = 002A;
userData = {
com.typemytype.robofont.guides = (
{
angle = 0;
isGlobal = 0;
magnetic = 5;
x = 0;
y = 777;
}
);
};
},
{
glyphname = backslash;
lastChange = "2015-11-23 15:57:31 +0000";
layers = (
{
guideLines = (
{
position = "{-120, 1333}";
},
{
position = "{-120, -246}";
}
);
layerId = "BDAF7641-AC9B-4450-A8AE-7BAB26ED3EC6";
name = Bold;
paths = (
{
closed = 1;
nodes = (
"553 -166 LINE",
"562 -188 OFFCURVE",
"569 -197 OFFCURVE",
"579 -197 CURVE SMOOTH",
"594 -197 OFFCURVE",
"601 -183 OFFCURVE",
"603 -172 CURVE SMOOTH",
"608 -149 OFFCURVE",
"625 -58 OFFCURVE",
"625 -38 CURVE SMOOTH",
"625 -20 OFFCURVE",
"616 -2 OFFCURVE",
"612 5 CURVE SMOOTH",
"526 185 OFFCURVE",
"435 400 OFFCURVE",
"367 573 CURVE SMOOTH",
"279 795 OFFCURVE",
"150 1113 OFFCURVE",
"107 1224 CURVE SMOOTH",
"104 1233 OFFCURVE",
"97 1238 OFFCURVE",
"89 1238 CURVE SMOOTH",
"80 1238 OFFCURVE",
"75 1229 OFFCURVE",
"68 1215 CURVE SMOOTH",
"55 1190 OFFCURVE",
"41 1154 OFFCURVE",
"32 1129 CURVE SMOOTH",
"25 1110 OFFCURVE",
"25 1108 OFFCURVE",
"25 1095 CURVE SMOOTH",
"25 1081 OFFCURVE",
"42 1054 OFFCURVE",
"51 1036 CURVE SMOOTH",
"112 912 OFFCURVE",
"159 805 OFFCURVE",
"281 508 CURVE SMOOTH"
);
}
);
width = 652;
}
);
unicode = 005C;
userData = {
com.typemytype.robofont.guides = (
{
angle = 0;
isGlobal = 0;
magnetic = 5;
x = 0;
y = 651;
},
{
angle = 0;
isGlobal = 0;
magnetic = 5;
x = 0;
y = -120;
}
);
};
},
{
glyphname = periodcentered;
lastChange = "2015-11-23 15:57:31 +0000";
layers = (
{
layerId = "BDAF7641-AC9B-4450-A8AE-7BAB26ED3EC6";
name = Bold;
paths = (
{
closed = 1;
nodes = (
"174 407 CURVE SMOOTH",
"168 414 OFFCURVE",
"162 423 OFFCURVE",
"162 434 CURVE SMOOTH",
"162 443 OFFCURVE",
"164 453 OFFCURVE",
"175 466 CURVE SMOOTH",
"198 494 OFFCURVE",
"290 595 OFFCURVE",
"313 617 CURVE SMOOTH",
"322 626 OFFCURVE",
"335 634 OFFCURVE",
"347 634 CURVE SMOOTH",
"358 634 OFFCURVE",
"365 629 OFFCURVE",
"376 619 CURVE SMOOTH",
"424 566 OFFCURVE",
"485 518 OFFCURVE",
"541 486 CURVE SMOOTH",
"553 479 OFFCURVE",
"560 468 OFFCURVE",
"560 453 CURVE SMOOTH",
"560 443 OFFCURVE",
"553 426 OFFCURVE",
"548 419 CURVE SMOOTH",
"499 351 OFFCURVE",
"458 303 OFFCURVE",
"413 258 CURVE SMOOTH",
"406 251 OFFCURVE",
"396 244 OFFCURVE",
"384 244 CURVE SMOOTH",
"374 244 OFFCURVE",
"365 246 OFFCURVE",
"356 251 CURVE SMOOTH",
"283 289 OFFCURVE",
"218 346 OFFCURVE"
);
}
);
width = 575;
}
);
unicode = 00B7;
},
{
glyphname = bullet;
lastChange = "2015-11-23 15:57:31 +0000";
layers = (
{
layerId = "BDAF7641-AC9B-4450-A8AE-7BAB26ED3EC6";
name = Bold;
paths = (
{
closed = 1;
nodes = (
"57 441 CURVE SMOOTH",
"51 450 OFFCURVE",
"44 459 OFFCURVE",
"44 472 CURVE SMOOTH",
"44 482 OFFCURVE",
"46 494 OFFCURVE",
"59 509 CURVE SMOOTH",
"85 541 OFFCURVE",
"191 656 OFFCURVE",
"216 681 CURVE SMOOTH",
"227 690 OFFCURVE",
"242 701 OFFCURVE",
"256 701 CURVE SMOOTH",
"268 701 OFFCURVE",
"275 696 OFFCURVE",
"288 683 CURVE SMOOTH",
"345 624 OFFCURVE",
"413 568 OFFCURVE",
"476 530 CURVE SMOOTH",
"490 523 OFFCURVE",
"497 511 OFFCURVE",
"497 494 CURVE SMOOTH",
"497 482 OFFCURVE",
"490 464 OFFCURVE",
"485 455 CURVE SMOOTH",
"430 378 OFFCURVE",
"383 323 OFFCURVE",
"331 270 CURVE SMOOTH",
"322 263 OFFCURVE",
"309 255 OFFCURVE",
"299 255 CURVE SMOOTH",
"286 255 OFFCURVE",
"275 256 OFFCURVE",
"265 263 CURVE SMOOTH",
"182 306 OFFCURVE",
"107 371 OFFCURVE"
);
}
);
width = 570;
}
);
unicode = 2022;
},
{
glyphname = colon;
lastChange = "2015-11-23 15:57:31 +0000";
layers = (
{
layerId = "BDAF7641-AC9B-4450-A8AE-7BAB26ED3EC6";
name = Bold;
paths = (
{
closed = 1;
nodes = (
"155 648 CURVE SMOOTH",
"150 656 OFFCURVE",
"145 665 OFFCURVE",
"145 676 CURVE SMOOTH",
"145 684 OFFCURVE",
"146 696 OFFCURVE",
"157 708 CURVE SMOOTH",
"181 735 OFFCURVE",
"272 835 OFFCURVE",
"295 857 CURVE SMOOTH",
"304 865 OFFCURVE",
"317 874 OFFCURVE",
"329 874 CURVE SMOOTH",
"340 874 OFFCURVE",
"347 869 OFFCURVE",
"358 858 CURVE SMOOTH",
"406 807 OFFCURVE",
"468 758 OFFCURVE",
"523 727 CURVE SMOOTH",
"533 720 OFFCURVE",
"541 710 OFFCURVE",
"541 696 CURVE SMOOTH",
"541 684 OFFCURVE",
"533 669 OFFCURVE",
"528 662 CURVE SMOOTH",
"482 593 OFFCURVE",
"440 545 OFFCURVE",
"394 500 CURVE SMOOTH",
"386 493 OFFCURVE",
"377 486 OFFCURVE",
"367 486 CURVE SMOOTH",
"356 486 OFFCURVE",
"347 487 OFFCURVE",
"338 493 CURVE SMOOTH",
"265 530 OFFCURVE",
"200 588 OFFCURVE"
);
},
{
closed = 1;
nodes = (
"155 133 CURVE SMOOTH",
"150 140 OFFCURVE",
"145 149 OFFCURVE",
"145 159 CURVE SMOOTH",
"145 169 OFFCURVE",
"146 179 OFFCURVE",
"157 192 CURVE SMOOTH",
"181 221 OFFCURVE",
"272 321 OFFCURVE",
"295 342 CURVE SMOOTH",
"304 351 OFFCURVE",
"317 361 OFFCURVE",
"329 361 CURVE SMOOTH",
"340 361 OFFCURVE",
"347 355 OFFCURVE",
"358 344 CURVE SMOOTH",
"406 292 OFFCURVE",
"468 244 OFFCURVE",
"523 212 CURVE SMOOTH",
"533 204 OFFCURVE",
"541 193 OFFCURVE",
"541 179 CURVE SMOOTH",
"541 169 OFFCURVE",
"533 152 OFFCURVE",
"528 145 CURVE SMOOTH",
"482 77 OFFCURVE",
"440 29 OFFCURVE",
"394 -14 CURVE SMOOTH",
"386 -22 OFFCURVE",
"377 -29 OFFCURVE",
"367 -29 CURVE SMOOTH",
"356 -29 OFFCURVE",
"347 -27 OFFCURVE",
"338 -22 CURVE SMOOTH",
"265 16 OFFCURVE",
"200 72 OFFCURVE"
);
}
);
width = 616;
}
);
unicode = 003A;
},
{
glyphname = comma;
lastChange = "2015-11-23 15:57:31 +0000";
layers = (
{
layerId = "BDAF7641-AC9B-4450-A8AE-7BAB26ED3EC6";
name = Bold;
paths = (
{
closed = 1;
nodes = (
"136 -185 CURVE SMOOTH",
"160 -115 OFFCURVE",
"208 0 OFFCURVE",
"222 75 CURVE SMOOTH",
"232 137 OFFCURVE",
"236 190 OFFCURVE",
"236 222 CURVE SMOOTH",
"236 240 OFFCURVE",
"244 251 OFFCURVE",
"252 263 CURVE SMOOTH",
"277 298 OFFCURVE",
"360 375 OFFCURVE",
"410 405 CURVE SMOOTH",
"422 412 OFFCURVE",
"437 419 OFFCURVE",
"453 419 CURVE SMOOTH",
"471 417 OFFCURVE",
"497 361 OFFCURVE",
"497 284 CURVE SMOOTH",
"497 186 OFFCURVE",
"471 102 OFFCURVE",
"394 -31 CURVE SMOOTH",
"347 -109 OFFCURVE",
"270 -195 OFFCURVE",
"204 -246 CURVE SMOOTH",
"182 -262 OFFCURVE",
"160 -269 OFFCURVE",
"141 -269 CURVE SMOOTH",
"129 -269 OFFCURVE",
"118 -256 OFFCURVE",
"118 -244 CURVE SMOOTH",
"118 -229 OFFCURVE",
"129 -204 OFFCURVE"
);
}
);
width = 587;
}
);
unicode = 002C;
},
{
glyphname = ellipsis;
lastChange = "2015-11-23 15:57:31 +0000";
layers = (
{
layerId = "BDAF7641-AC9B-4450-A8AE-7BAB26ED3EC6";
name = Bold;
paths = (
{
closed = 1;
nodes = (
"702 135 CURVE SMOOTH",
"697 142 OFFCURVE",
"692 151 OFFCURVE",
"692 161 CURVE SMOOTH",
"692 171 OFFCURVE",
"693 181 OFFCURVE",
"704 193 CURVE SMOOTH",
"727 222 OFFCURVE",
"818 321 OFFCURVE",
"842 342 CURVE SMOOTH",
"851 351 OFFCURVE",
"863 361 OFFCURVE",
"876 361 CURVE SMOOTH",
"887 361 OFFCURVE",
"894 355 OFFCURVE",
"904 344 CURVE SMOOTH",
"953 292 OFFCURVE",
"1014 246 OFFCURVE",
"1070 214 CURVE SMOOTH",
"1082 207 OFFCURVE",
"1089 195 OFFCURVE",
"1089 181 CURVE SMOOTH",
"1089 171 OFFCURVE",
"1082 154 OFFCURVE",
"1077 147 CURVE SMOOTH",
"1028 79 OFFCURVE",
"987 31 OFFCURVE",
"942 -14 CURVE SMOOTH",
"935 -22 OFFCURVE",
"924 -29 OFFCURVE",
"914 -29 CURVE SMOOTH",
"902 -29 OFFCURVE",
"894 -27 OFFCURVE",
"885 -22 CURVE SMOOTH",
"811 16 OFFCURVE",
"747 74 OFFCURVE"
);
},
{
closed = 1;
nodes = (
"1232 135 CURVE SMOOTH",
"1227 142 OFFCURVE",
"1222 151 OFFCURVE",
"1222 161 CURVE SMOOTH",
"1222 171 OFFCURVE",
"1224 181 OFFCURVE",
"1234 193 CURVE SMOOTH",
"1258 222 OFFCURVE",
"1349 321 OFFCURVE",
"1372 342 CURVE SMOOTH",
"1381 351 OFFCURVE",
"1393 361 OFFCURVE",
"1406 361 CURVE SMOOTH",
"1417 361 OFFCURVE",
"1424 355 OFFCURVE",
"1435 344 CURVE SMOOTH",
"1483 292 OFFCURVE",
"1544 246 OFFCURVE",
"1600 214 CURVE SMOOTH",
"1612 207 OFFCURVE",
"1619 195 OFFCURVE",
"1619 181 CURVE SMOOTH",
"1619 171 OFFCURVE",
"1612 154 OFFCURVE",
"1607 147 CURVE SMOOTH",
"1559 79 OFFCURVE",
"1518 31 OFFCURVE",
"1473 -14 CURVE SMOOTH",
"1465 -22 OFFCURVE",
"1455 -29 OFFCURVE",
"1444 -29 CURVE SMOOTH",
"1433 -29 OFFCURVE",
"1424 -27 OFFCURVE",
"1415 -22 CURVE SMOOTH",
"1342 16 OFFCURVE",
"1277 74 OFFCURVE"
);
},
{
closed = 1;
nodes = (
"174 135 CURVE SMOOTH",
"168 142 OFFCURVE",
"162 151 OFFCURVE",
"162 161 CURVE SMOOTH",
"162 171 OFFCURVE",
"164 181 OFFCURVE",
"175 193 CURVE SMOOTH",
"198 222 OFFCURVE",
"290 321 OFFCURVE",
"313 342 CURVE SMOOTH",
"322 351 OFFCURVE",
"335 361 OFFCURVE",
"347 361 CURVE SMOOTH",
"358 361 OFFCURVE",
"365 355 OFFCURVE",
"376 344 CURVE SMOOTH",
"424 292 OFFCURVE",
"485 246 OFFCURVE",
"541 214 CURVE SMOOTH",
"553 207 OFFCURVE",
"560 195 OFFCURVE",
"560 181 CURVE SMOOTH",
"560 171 OFFCURVE",
"553 154 OFFCURVE",
"548 147 CURVE SMOOTH",
"499 79 OFFCURVE",
"458 31 OFFCURVE",
"413 -14 CURVE SMOOTH",
"406 -22 OFFCURVE",
"396 -29 OFFCURVE",
"384 -29 CURVE SMOOTH",
"374 -29 OFFCURVE",
"365 -27 OFFCURVE",
"356 -22 CURVE SMOOTH",
"283 16 OFFCURVE",
"218 74 OFFCURVE"
);
}
);
width = 1739;
}
);
unicode = 2026;
},
{
glyphname = exclam;
lastChange = "2015-11-23 15:57:31 +0000";
layers = (
{
layerId = "BDAF7641-AC9B-4450-A8AE-7BAB26ED3EC6";
name = Bold;
paths = (
{
closed = 1;
nodes = (
"175 133 CURVE SMOOTH",
"170 140 OFFCURVE",
"164 149 OFFCURVE",
"164 159 CURVE SMOOTH",
"164 169 OFFCURVE",
"167 179 OFFCURVE",
"177 192 CURVE SMOOTH",
"200 221 OFFCURVE",
"292 321 OFFCURVE",
"315 342 CURVE SMOOTH",
"324 351 OFFCURVE",
"336 361 OFFCURVE",
"349 361 CURVE SMOOTH",
"360 361 OFFCURVE",
"367 355 OFFCURVE",
"377 344 CURVE SMOOTH",
"426 292 OFFCURVE",
"487 244 OFFCURVE",
"543 212 CURVE SMOOTH",
"553 204 OFFCURVE",
"560 193 OFFCURVE",
"560 179 CURVE SMOOTH",
"560 169 OFFCURVE",
"553 152 OFFCURVE",
"548 145 CURVE SMOOTH",
"501 77 OFFCURVE",
"460 31 OFFCURVE",
"413 -14 CURVE SMOOTH",
"406 -22 OFFCURVE",
"398 -29 OFFCURVE",
"386 -29 CURVE SMOOTH",
"376 -29 OFFCURVE",
"367 -27 OFFCURVE",
"358 -22 CURVE SMOOTH",
"285 16 OFFCURVE",
"220 72 OFFCURVE"
);
},
{
closed = 1;
nodes = (
"232 809 CURVE SMOOTH",
"222 903 OFFCURVE",
"218 998 OFFCURVE",
"218 1095 CURVE SMOOTH",
"218 1117 OFFCURVE",
"232 1142 OFFCURVE",
"247 1158 CURVE SMOOTH",
"258 1172 OFFCURVE",
"328 1249 OFFCURVE",
"379 1281 CURVE SMOOTH",
"398 1292 OFFCURVE",
"413 1301 OFFCURVE",
"435 1301 CURVE SMOOTH",
"461 1301 OFFCURVE",
"466 1278 OFFCURVE",
"468 1267 CURVE SMOOTH",
"475 1219 OFFCURVE",
"482 1025 OFFCURVE",
"482 910 CURVE SMOOTH",
"482 860 OFFCURVE",
"473 684 OFFCURVE",
"471 650 CURVE SMOOTH",
"469 633 OFFCURVE",
"468 614 OFFCURVE",
"458 600 CURVE SMOOTH",
"442 571 OFFCURVE",
"398 503 OFFCURVE",
"335 457 CURVE SMOOTH",
"328 452 OFFCURVE",
"322 448 OFFCURVE",
"313 448 CURVE SMOOTH",
"309 448 OFFCURVE",
"300 450 OFFCURVE",
"295 472 CURVE SMOOTH",
"275 554 OFFCURVE",
"244 713 OFFCURVE"
);
}
);
width = 652;
}
);
unicode = 0021;
},
{
glyphname = numbersign;
lastChange = "2015-11-23 15:57:31 +0000";
layers = (
{
layerId = "BDAF7641-AC9B-4450-A8AE-7BAB26ED3EC6";
name = Bold;
paths = (
{
closed = 1;
nodes = (
"695 1236 CURVE SMOOTH",
"699 1258 OFFCURVE",
"704 1276 OFFCURVE",
"720 1286 CURVE SMOOTH",
"770 1319 LINE SMOOTH",
"783 1327 OFFCURVE",
"793 1335 OFFCURVE",
"803 1335 CURVE SMOOTH",
"810 1335 OFFCURVE",
"815 1332 OFFCURVE",
"815 1320 CURVE SMOOTH",
"815 1305 OFFCURVE",
"803 1258 OFFCURVE",
"793 1219 CURVE SMOOTH",
"774 1140 OFFCURVE",
"729 970 OFFCURVE",
"729 968 CURVE SMOOTH",
"729 963 OFFCURVE",
"733 961 OFFCURVE",
"738 961 CURVE SMOOTH",
"940 961 LINE SMOOTH",
"960 961 OFFCURVE",
"967 954 OFFCURVE",
"967 942 CURVE SMOOTH",
"967 935 OFFCURVE",
"962 920 OFFCURVE",
"958 912 CURVE SMOOTH",
"924 843 OFFCURVE",
"890 780 OFFCURVE",
"858 730 CURVE SMOOTH",
"853 720 OFFCURVE",
"836 715 OFFCURVE",
"813 715 CURVE SMOOTH",
"692 715 LINE SMOOTH",
"677 715 OFFCURVE",
"673 711 OFFCURVE",
"671 701 CURVE SMOOTH",
"634 549 LINE",
"634 543 OFFCURVE",
"636 539 OFFCURVE",
"643 539 CURVE SMOOTH",
"847 539 LINE SMOOTH",
"867 539 OFFCURVE",
"874 532 OFFCURVE",
"874 522 CURVE SMOOTH",
"874 515 OFFCURVE",
"870 506 OFFCURVE",
"865 494 CURVE SMOOTH",
"824 412 OFFCURVE",
"783 340 OFFCURVE",
"755 308 CURVE SMOOTH",
"748 299 OFFCURVE",
"734 294 OFFCURVE",
"711 294 CURVE SMOOTH",
"600 294 LINE SMOOTH",
"586 294 OFFCURVE",
"586 285 OFFCURVE",
"584 282 CURVE SMOOTH",
"564 185 OFFCURVE",
"550 115 OFFCURVE",
"530 29 CURVE SMOOTH",
"524 2 OFFCURVE",
"516 -24 OFFCURVE",
"505 -38 CURVE SMOOTH",
"505 -38 OFFCURVE",
"469 -74 OFFCURVE",
"449 -95 CURVE SMOOTH",
"437 -108 OFFCURVE",
"426 -118 OFFCURVE",
"420 -118 CURVE SMOOTH",
"408 -118 OFFCURVE",
"401 -111 OFFCURVE",
"401 -101 CURVE SMOOTH",
"401 -93 OFFCURVE",
"410 -60 OFFCURVE",
"419 -29 CURVE SMOOTH",
"447 70 OFFCURVE",
"507 279 OFFCURVE",
"507 287 CURVE SMOOTH",
"507 291 OFFCURVE",
"505 294 OFFCURVE",
"496 294 CURVE SMOOTH",
"273 294 LINE SMOOTH",
"263 294 OFFCURVE",
"259 289 OFFCURVE",
"258 279 CURVE SMOOTH",
"202 29 LINE SMOOTH",
"196 2 OFFCURVE",
"188 -24 OFFCURVE",
"177 -38 CURVE",
"177 -38 OFFCURVE",
"141 -74 OFFCURVE",
"121 -95 CURVE SMOOTH",
"109 -108 OFFCURVE",
"98 -118 OFFCURVE",
"93 -118 CURVE SMOOTH",
"80 -118 OFFCURVE",
"73 -111 OFFCURVE",
"73 -101 CURVE SMOOTH",
"73 -93 OFFCURVE",
"83 -52 OFFCURVE",
"91 -29 CURVE SMOOTH",
"123 79 OFFCURVE",
"153 163 OFFCURVE",
"181 282 CURVE",
"181 287 OFFCURVE",
"179 294 OFFCURVE",
"170 294 CURVE SMOOTH",
"-28 294 LINE SMOOTH",
"-47 294 OFFCURVE",
"-54 301 OFFCURVE",
"-54 310 CURVE SMOOTH",
"-54 315 OFFCURVE",
"-52 321 OFFCURVE",
"-51 325 CURVE SMOOTH",
"-20 385 OFFCURVE",
"35 506 OFFCURVE",
"55 525 CURVE SMOOTH",
"69 537 OFFCURVE",
"82 539 OFFCURVE",
"93 539 CURVE SMOOTH",
"218 539 LINE SMOOTH",
"230 539 OFFCURVE",
"232 547 OFFCURVE",
"232 550 CURVE SMOOTH",
"252 636 OFFCURVE",
"251 613 OFFCURVE",
"268 704 CURVE SMOOTH",
"268 710 OFFCURVE",
"265 715 OFFCURVE",
"259 715 CURVE SMOOTH",
"76 715 LINE SMOOTH",
"57 715 OFFCURVE",
"49 722 OFFCURVE",
"49 732 CURVE SMOOTH",
"49 737 OFFCURVE",
"51 742 OFFCURVE",
"53 746 CURVE SMOOTH",
"80 801 OFFCURVE",
"145 927 OFFCURVE",
"164 946 CURVE SMOOTH",
"179 959 OFFCURVE",
"191 961 OFFCURVE",
"202 961 CURVE SMOOTH",
"307 961 LINE SMOOTH",
"317 961 OFFCURVE",
"322 966 OFFCURVE",
"324 975 CURVE SMOOTH",
"370 1236 LINE SMOOTH",
"374 1258 OFFCURVE",
"379 1276 OFFCURVE",
"396 1286 CURVE SMOOTH",
"446 1319 LINE SMOOTH",
"458 1327 OFFCURVE",
"469 1335 OFFCURVE",
"478 1335 CURVE SMOOTH",
"485 1335 OFFCURVE",
"490 1332 OFFCURVE",
"490 1320 CURVE SMOOTH",
"490 1305 OFFCURVE",
"478 1265 OFFCURVE",
"471 1235 CURVE SMOOTH",
"408 970 OFFCURVE",
"408 968 OFFCURVE",
"408 968 CURVE",
"408 963 OFFCURVE",
"415 961 OFFCURVE",
"420 961 CURVE SMOOTH",
"630 961 LINE SMOOTH",
"639 961 OFFCURVE",
"644 970 OFFCURVE",
"646 975 CURVE SMOOTH",
"664 1072 OFFCURVE",
"678 1144 OFFCURVE"
);
},
{
closed = 1;
nodes = (
"309 547 LINE",
"309 541 OFFCURVE",
"313 539 OFFCURVE",
"322 539 CURVE SMOOTH",
"535 539 LINE SMOOTH",
"550 539 OFFCURVE",
"555 547 OFFCURVE",
"555 552 CURVE SMOOTH",
"555 554 OFFCURVE",
"594 697 OFFCURVE",
"594 708 CURVE SMOOTH",
"594 711 OFFCURVE",
"591 717 OFFCURVE",
"582 717 CURVE SMOOTH",
"369 717 LINE SMOOTH",
"362 717 OFFCURVE",
"355 711 OFFCURVE",
"353 703 CURVE SMOOTH"
);
}
);
width = 938;
}
);
unicode = 0023;
},
{
glyphname = period;
lastChange = "2015-11-23 15:57:31 +0000";
layers = (
{
layerId = "BDAF7641-AC9B-4450-A8AE-7BAB26ED3EC6";
name = Bold;
paths = (
{
closed = 1;
nodes = (
"174 135 CURVE SMOOTH",
"168 142 OFFCURVE",
"162 151 OFFCURVE",
"162 161 CURVE SMOOTH",
"162 171 OFFCURVE",
"164 181 OFFCURVE",
"175 193 CURVE SMOOTH",
"198 222 OFFCURVE",
"290 321 OFFCURVE",
"313 342 CURVE SMOOTH",
"322 351 OFFCURVE",
"335 361 OFFCURVE",
"347 361 CURVE SMOOTH",
"358 361 OFFCURVE",
"365 355 OFFCURVE",
"376 344 CURVE SMOOTH",
"424 292 OFFCURVE",
"485 246 OFFCURVE",
"541 214 CURVE SMOOTH",
"553 207 OFFCURVE",
"560 195 OFFCURVE",
"560 181 CURVE SMOOTH",
"560 171 OFFCURVE",
"553 154 OFFCURVE",
"548 147 CURVE SMOOTH",
"499 79 OFFCURVE",
"458 31 OFFCURVE",
"413 -14 CURVE SMOOTH",
"406 -22 OFFCURVE",
"396 -29 OFFCURVE",
"384 -29 CURVE SMOOTH",
"374 -29 OFFCURVE",
"365 -27 OFFCURVE",
"356 -22 CURVE SMOOTH",
"283 16 OFFCURVE",
"218 74 OFFCURVE"
);
}
);
width = 570;
}
);
unicode = 002E;
},
{
glyphname = question;
lastChange = "2015-11-23 15:57:31 +0000";
layers = (
{
layerId = "BDAF7641-AC9B-4450-A8AE-7BAB26ED3EC6";
name = Bold;
paths = (
{
closed = 1;
nodes = (
"202 579 CURVE SMOOTH",
"202 622 OFFCURVE",
"220 679 OFFCURVE",
"245 724 CURVE SMOOTH",
"261 754 OFFCURVE",
"297 809 OFFCURVE",
"297 869 CURVE SMOOTH",
"297 973 OFFCURVE",
"118 1011 OFFCURVE",
"78 1027 CURVE SMOOTH",
"71 1031 OFFCURVE",
"68 1036 OFFCURVE",
"68 1043 CURVE SMOOTH",
"68 1052 OFFCURVE",
"69 1062 OFFCURVE",
"76 1074 CURVE SMOOTH",
"111 1129 OFFCURVE",
"164 1215 OFFCURVE",
"247 1283 CURVE SMOOTH",
"258 1292 OFFCURVE",
"270 1299 OFFCURVE",
"281 1299 CURVE SMOOTH",
"290 1299 OFFCURVE",
"293 1298 OFFCURVE",
"307 1294 CURVE SMOOTH",
"415 1267 OFFCURVE",
"569 1181 OFFCURVE",
"569 1036 CURVE SMOOTH",
"569 946 OFFCURVE",
"519 882 OFFCURVE",
"494 850 CURVE SMOOTH",
"446 788 OFFCURVE",
"408 730 OFFCURVE",
"408 688 CURVE SMOOTH",
"408 665 OFFCURVE",
"424 648 OFFCURVE",
"442 631 CURVE SMOOTH",
"453 620 OFFCURVE",
"458 617 OFFCURVE",
"458 602 CURVE SMOOTH",
"458 593 OFFCURVE",
"451 586 OFFCURVE",
"449 581 CURVE SMOOTH",
"430 545 OFFCURVE",
"370 475 OFFCURVE",
"347 453 CURVE SMOOTH",
"336 445 OFFCURVE",
"328 436 OFFCURVE",
"315 436 CURVE SMOOTH",
"300 436 OFFCURVE",
"286 443 OFFCURVE",
"281 448 CURVE SMOOTH",
"234 487 OFFCURVE",
"202 530 OFFCURVE"
);
},
{
closed = 1;
nodes = (
"160 135 CURVE SMOOTH",
"155 142 OFFCURVE",
"150 151 OFFCURVE",
"150 161 CURVE SMOOTH",
"150 171 OFFCURVE",
"152 181 OFFCURVE",
"162 193 CURVE SMOOTH",
"186 222 OFFCURVE",
"277 323 OFFCURVE",
"300 344 CURVE SMOOTH",
"309 353 OFFCURVE",
"322 362 OFFCURVE",
"335 362 CURVE SMOOTH",
"345 362 OFFCURVE",
"350 357 OFFCURVE",
"362 346 CURVE SMOOTH",
"412 294 OFFCURVE",
"473 246 OFFCURVE",
"526 214 CURVE SMOOTH",
"539 207 OFFCURVE",
"546 195 OFFCURVE",
"546 181 CURVE SMOOTH",
"546 171 OFFCURVE",
"539 154 OFFCURVE",
"533 147 CURVE SMOOTH",
"487 79 OFFCURVE",
"446 31 OFFCURVE",
"399 -14 CURVE SMOOTH",
"392 -22 OFFCURVE",
"381 -29 OFFCURVE",
"370 -29 CURVE SMOOTH",
"360 -29 OFFCURVE",
"350 -27 OFFCURVE",
"343 -22 CURVE SMOOTH",
"270 16 OFFCURVE",
"206 74 OFFCURVE"
);
}
);
width = 652;
}
);
unicode = 003F;
},
{
glyphname = quotedbl;
lastChange = "2015-11-23 15:57:31 +0000";
layers = (
{
guideLines = (
{
position = "{-120, 1282}";
},
{
position = "{-120, 524}";
},
{
position = "{-120, 1071}";
},
{
angle = 90;
position = "{169, 0}";
},
{
angle = 90;
position = "{402, 0}";
}
);
layerId = "BDAF7641-AC9B-4450-A8AE-7BAB26ED3EC6";
name = Bold;
paths = (
{
closed = 1;
nodes = (
"265 493 CURVE SMOOTH",
"245 493 OFFCURVE",
"229 509 OFFCURVE",
"225 523 CURVE SMOOTH",
"213 581 OFFCURVE",
"170 781 OFFCURVE",
"159 930 CURVE SMOOTH",
"155 966 OFFCURVE",
"155 1004 OFFCURVE",
"155 1047 CURVE SMOOTH",
"155 1074 OFFCURVE",
"168 1104 OFFCURVE",
"195 1104 CURVE SMOOTH",
"335 1104 LINE SMOOTH",
"362 1104 OFFCURVE",
"374 1074 OFFCURVE",
"374 1047 CURVE SMOOTH",
"374 1004 OFFCURVE",
"374 966 OFFCURVE",
"370 930 CURVE SMOOTH",
"360 781 OFFCURVE",
"319 581 OFFCURVE",
"306 523 CURVE SMOOTH",
"302 509 OFFCURVE",
"285 493 OFFCURVE"
);
},
{
closed = 1;
nodes = (
"664 493 CURVE SMOOTH",
"644 493 OFFCURVE",
"629 509 OFFCURVE",
"625 523 CURVE SMOOTH",
"612 581 OFFCURVE",
"569 781 OFFCURVE",
"559 930 CURVE SMOOTH",
"555 966 OFFCURVE",
"555 1004 OFFCURVE",
"555 1047 CURVE SMOOTH",
"555 1074 OFFCURVE",
"567 1104 OFFCURVE",
"594 1104 CURVE SMOOTH",
"734 1104 LINE SMOOTH",
"761 1104 OFFCURVE",
"774 1074 OFFCURVE",
"774 1047 CURVE SMOOTH",
"774 1004 OFFCURVE",
"774 966 OFFCURVE",
"770 930 CURVE SMOOTH",
"759 781 OFFCURVE",
"718 581 OFFCURVE",
"706 523 CURVE SMOOTH",
"702 509 OFFCURVE",
"684 493 OFFCURVE"
);
}
);
width = 929;
}
);
unicode = 0022;
userData = {
com.typemytype.robofont.guides = (
{
angle = 0;
isGlobal = 0;
magnetic = 5;
x = 0;
y = 626;
},
{
angle = 0;
isGlobal = 0;
magnetic = 5;
x = 0;
y = 256;
},
{
angle = 0;
isGlobal = 0;
magnetic = 5;
x = 0;
y = 523;
},
{
angle = 90;
isGlobal = 0;
magnetic = 5;
x = 141;
y = 0;
},
{
angle = 90;
isGlobal = 0;
magnetic = 5;
x = 255;
y = 0;
}
);
};
},
{
glyphname = quotesingle;
lastChange = "2015-11-23 15:57:31 +0000";
layers = (
{
guideLines = (
{
position = "{-120, 1282}";
},
{
position = "{-120, 524}";
},
{
position = "{-120, 1071}";
},
{
angle = 90;
position = "{64, 0}";
},
{
angle = 90;
position = "{298, 0}";
}
);
layerId = "BDAF7641-AC9B-4450-A8AE-7BAB26ED3EC6";
name = Bold;
paths = (
{
closed = 1;
nodes = (
"237 493 CURVE SMOOTH",
"218 493 OFFCURVE",
"202 509 OFFCURVE",
"198 523 CURVE SMOOTH",
"186 581 OFFCURVE",
"143 781 OFFCURVE",
"132 930 CURVE SMOOTH",
"129 966 OFFCURVE",
"129 1004 OFFCURVE",
"129 1047 CURVE SMOOTH",
"129 1074 OFFCURVE",
"141 1104 OFFCURVE",
"168 1104 CURVE SMOOTH",
"307 1104 LINE SMOOTH",
"335 1104 OFFCURVE",
"347 1074 OFFCURVE",
"347 1047 CURVE SMOOTH",
"347 1004 OFFCURVE",
"347 966 OFFCURVE",
"343 930 CURVE SMOOTH",
"333 781 OFFCURVE",
"292 581 OFFCURVE",
"279 523 CURVE SMOOTH",
"275 509 OFFCURVE",
"258 493 OFFCURVE"
);
}
);
width = 476;
}
);
unicode = 0027;
userData = {
com.typemytype.robofont.guides = (
{
angle = 0;
isGlobal = 0;
magnetic = 5;
x = 0;
y = 626;
},
{
angle = 0;
isGlobal = 0;
magnetic = 5;
x = 0;
y = 256;
},
{
angle = 0;
isGlobal = 0;
magnetic = 5;
x = 0;
y = 523;
},
{
angle = 90;
isGlobal = 0;
magnetic = 5;
x = 90;
y = 0;
},
{
angle = 90;
isGlobal = 0;
magnetic = 5;
x = 204;
y = 0;
}
);
};
},
{
glyphname = semicolon;
lastChange = "2015-11-23 15:57:31 +0000";
layers = (
{
layerId = "BDAF7641-AC9B-4450-A8AE-7BAB26ED3EC6";
name = Bold;
paths = (
{
closed = 1;
nodes = (
"136 -185 CURVE SMOOTH",
"160 -115 OFFCURVE",
"208 0 OFFCURVE",
"222 75 CURVE SMOOTH",
"232 137 OFFCURVE",
"236 190 OFFCURVE",
"236 222 CURVE SMOOTH",
"236 240 OFFCURVE",
"244 251 OFFCURVE",
"252 263 CURVE SMOOTH",
"277 298 OFFCURVE",
"360 375 OFFCURVE",
"410 405 CURVE SMOOTH",
"422 412 OFFCURVE",
"437 419 OFFCURVE",
"453 419 CURVE SMOOTH",
"471 417 OFFCURVE",
"497 361 OFFCURVE",
"497 284 CURVE SMOOTH",
"497 186 OFFCURVE",
"471 102 OFFCURVE",
"394 -31 CURVE SMOOTH",
"347 -109 OFFCURVE",
"272 -197 OFFCURVE",
"204 -246 CURVE SMOOTH",
"182 -262 OFFCURVE",
"160 -269 OFFCURVE",
"141 -269 CURVE SMOOTH",
"129 -269 OFFCURVE",
"118 -256 OFFCURVE",
"118 -244 CURVE SMOOTH",
"118 -229 OFFCURVE",
"129 -204 OFFCURVE"
);
},
{
closed = 1;
nodes = (
"164 647 CURVE SMOOTH",
"159 655 OFFCURVE",
"152 667 OFFCURVE",
"152 676 CURVE SMOOTH",
"152 684 OFFCURVE",
"153 696 OFFCURVE",
"164 708 CURVE SMOOTH",
"188 737 OFFCURVE",
"281 837 OFFCURVE",
"304 858 CURVE SMOOTH",
"313 865 OFFCURVE",
"326 874 OFFCURVE",
"338 874 CURVE SMOOTH",
"349 874 OFFCURVE",
"356 871 OFFCURVE",
"367 860 CURVE SMOOTH",
"417 809 OFFCURVE",
"476 758 OFFCURVE",
"531 725 CURVE SMOOTH",
"543 718 OFFCURVE",
"550 708 OFFCURVE",
"550 694 CURVE SMOOTH",
"550 683 OFFCURVE",
"545 669 OFFCURVE",
"539 662 CURVE SMOOTH",
"490 593 OFFCURVE",
"447 545 OFFCURVE",
"403 500 CURVE SMOOTH",
"396 493 OFFCURVE",
"386 486 OFFCURVE",
"376 486 CURVE SMOOTH",
"367 486 OFFCURVE",
"358 487 OFFCURVE",
"347 493 CURVE SMOOTH",
"275 530 OFFCURVE",
"209 586 OFFCURVE"
);
}
);
width = 652;
}
);
unicode = 003B;
},
{
glyphname = slash;
lastChange = "2015-11-23 15:57:31 +0000";
layers = (
{
layerId = "BDAF7641-AC9B-4450-A8AE-7BAB26ED3EC6";
name = Bold;
paths = (
{
closed = 1;
nodes = (
"259 473 CURVE SMOOTH",
"376 761 OFFCURVE",
"463 1034 OFFCURVE",
"489 1104 CURVE SMOOTH",
"496 1125 OFFCURVE",
"503 1138 OFFCURVE",
"519 1152 CURVE",
"620 1221 LINE SMOOTH",
"630 1229 OFFCURVE",
"644 1238 OFFCURVE",
"656 1238 CURVE SMOOTH",
"663 1238 OFFCURVE",
"668 1231 OFFCURVE",
"668 1226 CURVE SMOOTH",
"668 1219 OFFCURVE",
"663 1199 OFFCURVE",
"659 1190 CURVE SMOOTH",
"607 1055 OFFCURVE",
"439 656 OFFCURVE",
"379 508 CURVE SMOOTH",
"302 313 OFFCURVE",
"252 174 OFFCURVE",
"188 25 CURVE SMOOTH",
"168 -22 OFFCURVE",
"146 -89 OFFCURVE",
"132 -104 CURVE SMOOTH",
"105 -129 OFFCURVE",
"44 -163 OFFCURVE",
"23 -176 CURVE SMOOTH",
"13 -181 OFFCURVE",
"8 -183 OFFCURVE",
"3 -183 CURVE SMOOTH",
"-9 -183 OFFCURVE",
"-16 -176 OFFCURVE",
"-16 -165 CURVE SMOOTH",
"-16 -158 OFFCURVE",
"-13 -147 OFFCURVE",
"-9 -138 CURVE SMOOTH",
"41 -16 OFFCURVE",
"159 224 OFFCURVE"
);
}
);
width = 652;
}
);
unicode = 002F;
},
{
glyphname = braceleft;
lastChange = "2015-11-23 15:57:31 +0000";
layers = (
{
guideLines = (
{
position = "{-120, 565}";
},
{
angle = 90;
position = "{38, 0}";
},
{
angle = 90;
position = "{632, 0}";
}
);
layerId = "BDAF7641-AC9B-4450-A8AE-7BAB26ED3EC6";
name = Bold;
paths = (
{
closed = 1;
nodes = (
"587 1242 LINE",
"607 1242 OFFCURVE",
"620 1238 OFFCURVE",
"620 1222 CURVE SMOOTH",
"620 1222 OFFCURVE",
"616 1206 OFFCURVE",
"607 1195 CURVE SMOOTH",
"586 1168 OFFCURVE",
"553 1140 OFFCURVE",
"523 1118 CURVE SMOOTH",
"505 1106 OFFCURVE",
"487 1098 OFFCURVE",
"456 1098 CURVE SMOOTH",
"363 1098 LINE SMOOTH",
"307 1098 OFFCURVE",
"297 1065 OFFCURVE",
"297 1023 CURVE SMOOTH",
"297 961 OFFCURVE",
"306 846 OFFCURVE",
"306 760 CURVE SMOOTH",
"306 631 OFFCURVE",
"272 549 OFFCURVE",
"195 509 CURVE SMOOTH",
"191 508 OFFCURVE",
"189 503 OFFCURVE",
"189 498 CURVE SMOOTH",
"189 493 OFFCURVE",
"191 489 OFFCURVE",
"195 487 CURVE SMOOTH",
"272 448 OFFCURVE",
"306 366 OFFCURVE",
"306 236 CURVE SMOOTH",
"306 135 OFFCURVE",
"297 31 OFFCURVE",
"297 -36 CURVE SMOOTH",
"297 -74 OFFCURVE",
"307 -104 OFFCURVE",
"362 -104 CURVE SMOOTH",
"586 -104 LINE",
"605 -104 OFFCURVE",
"618 -108 OFFCURVE",
"618 -123 CURVE SMOOTH",
"618 -123 OFFCURVE",
"615 -140 OFFCURVE",
"605 -151 CURVE SMOOTH",
"584 -178 OFFCURVE",
"552 -207 OFFCURVE",
"521 -228 CURVE SMOOTH",
"503 -240 OFFCURVE",
"485 -248 OFFCURVE",
"454 -248 CURVE SMOOTH",
"300 -248 LINE",
"153 -248 OFFCURVE",
"100 -145 OFFCURVE",
"100 -5 CURVE SMOOTH",
"100 65 OFFCURVE",
"114 149 OFFCURVE",
"114 231 CURVE SMOOTH",
"114 301 OFFCURVE",
"98 361 OFFCURVE",
"32 387 CURVE SMOOTH",
"23 390 OFFCURVE",
"12 400 OFFCURVE",
"12 412 CURVE SMOOTH",
"12 585 LINE",
"12 597 OFFCURVE",
"23 606 OFFCURVE",
"32 609 CURVE SMOOTH",
"98 636 OFFCURVE",
"114 696 OFFCURVE",
"114 765 CURVE SMOOTH",
"114 848 OFFCURVE",
"100 932 OFFCURVE",
"100 1002 CURVE",
"100 1142 OFFCURVE",
"155 1243 OFFCURVE",
"304 1243 CURVE SMOOTH"
);
}
);
width = 652;
}
);
unicode = 007B;
userData = {
com.typemytype.robofont.guides = (
{
angle = 0;
isGlobal = 0;
magnetic = 5;
x = 0;
y = 276;
},
{
angle = 90;
isGlobal = 0;
magnetic = 5;
x = 77;
y = 0;
},
{
angle = 90;
isGlobal = 0;
magnetic = 5;
x = 367;
y = 0;
}
);
};
},
{
glyphname = braceright;
lastChange = "2015-11-23 15:57:31 +0000";
layers = (
{
guideLines = (
{
position = "{-120, 565}";
},
{
angle = 90;
position = "{38, 0}";
},
{
angle = 90;
position = "{619, 0}";
}
);
layerId = "BDAF7641-AC9B-4450-A8AE-7BAB26ED3EC6";
name = Bold;
paths = (
{
closed = 1;
nodes = (
"64 -246 LINE",
"44 -246 OFFCURVE",
"32 -242 OFFCURVE",
"32 -226 CURVE SMOOTH",
"32 -226 OFFCURVE",
"35 -210 OFFCURVE",
"44 -199 CURVE SMOOTH",
"66 -172 OFFCURVE",
"98 -144 OFFCURVE",
"129 -122 CURVE SMOOTH",
"146 -109 OFFCURVE",
"164 -102 OFFCURVE",
"195 -102 CURVE SMOOTH",
"288 -102 LINE SMOOTH",
"343 -102 OFFCURVE",
"355 -68 OFFCURVE",
"355 -27 CURVE SMOOTH",
"355 36 OFFCURVE",
"345 151 OFFCURVE",
"345 236 CURVE SMOOTH",
"345 366 OFFCURVE",
"379 448 OFFCURVE",
"456 487 CURVE SMOOTH",
"460 489 OFFCURVE",
"461 493 OFFCURVE",
"461 498 CURVE SMOOTH",
"461 503 OFFCURVE",
"460 508 OFFCURVE",
"456 509 CURVE SMOOTH",
"379 549 OFFCURVE",
"345 631 OFFCURVE",
"345 760 CURVE SMOOTH",
"345 862 OFFCURVE",
"355 966 OFFCURVE",
"355 1033 CURVE SMOOTH",
"355 1070 OFFCURVE",
"343 1100 OFFCURVE",
"290 1100 CURVE SMOOTH",
"66 1100 LINE SMOOTH",
"46 1100 OFFCURVE",
"34 1104 OFFCURVE",
"34 1120 CURVE SMOOTH",
"34 1120 OFFCURVE",
"37 1136 OFFCURVE",
"46 1147 CURVE SMOOTH",
"68 1173 OFFCURVE",
"100 1202 OFFCURVE",
"131 1224 CURVE SMOOTH",
"148 1236 OFFCURVE",
"167 1243 OFFCURVE",
"196 1243 CURVE SMOOTH",
"350 1243 LINE SMOOTH",
"497 1243 OFFCURVE",
"552 1142 OFFCURVE",
"552 1002 CURVE SMOOTH",
"552 932 OFFCURVE",
"537 848 OFFCURVE",
"537 765 CURVE SMOOTH",
"537 696 OFFCURVE",
"550 636 OFFCURVE",
"616 609 CURVE SMOOTH",
"625 606 OFFCURVE",
"636 597 OFFCURVE",
"636 585 CURVE SMOOTH",
"636 412 LINE SMOOTH",
"636 400 OFFCURVE",
"625 390 OFFCURVE",
"616 387 CURVE SMOOTH",
"550 361 OFFCURVE",
"537 301 OFFCURVE",
"537 231 CURVE SMOOTH",
"537 149 OFFCURVE",
"552 65 OFFCURVE",
"552 -5 CURVE SMOOTH",
"552 -145 OFFCURVE",
"496 -248 OFFCURVE",
"347 -248 CURVE SMOOTH"
);
}
);
width = 652;
}
);
unicode = 007D;
userData = {
com.typemytype.robofont.guides = (
{
angle = 0;
isGlobal = 0;
magnetic = 5;
x = 0;
y = 276;
},
{
angle = 90;
isGlobal = 0;
magnetic = 5;
x = 77;
y = 0;
},
{
angle = 90;
isGlobal = 0;
magnetic = 5;
x = 361;
y = 0;
}
);
};
},
{
glyphname = bracketleft;
lastChange = "2015-11-23 15:57:31 +0000";
layers = (
{
layerId = "BDAF7641-AC9B-4450-A8AE-7BAB26ED3EC6";
name = Bold;
paths = (
{
closed = 1;
nodes = (
"80 -101 CURVE SMOOTH",
"80 29 OFFCURVE",
"85 229 OFFCURVE",
"85 491 CURVE SMOOTH",
"85 753 OFFCURVE",
"80 964 OFFCURVE",
"80 1093 CURVE SMOOTH",
"80 1159 OFFCURVE",
"116 1242 OFFCURVE",
"196 1242 CURVE SMOOTH",
"584 1242 LINE SMOOTH",
"603 1242 OFFCURVE",
"618 1238 OFFCURVE",
"618 1222 CURVE SMOOTH",
"618 1222 OFFCURVE",
"615 1206 OFFCURVE",
"605 1195 CURVE SMOOTH",
"584 1168 OFFCURVE",
"552 1142 OFFCURVE",
"521 1118 CURVE SMOOTH",
"503 1106 OFFCURVE",
"485 1098 OFFCURVE",
"454 1098 CURVE SMOOTH",
"315 1098 LINE SMOOTH",
"299 1098 OFFCURVE",
"279 1086 OFFCURVE",
"279 1054 CURVE SMOOTH",
"279 964 OFFCURVE",
"283 624 OFFCURVE",
"283 491 CURVE SMOOTH",
"283 359 OFFCURVE",
"279 31 OFFCURVE",
"279 -60 CURVE SMOOTH",
"279 -91 OFFCURVE",
"299 -106 OFFCURVE",
"315 -106 CURVE SMOOTH",
"587 -106 LINE SMOOTH",
"607 -106 OFFCURVE",
"620 -109 OFFCURVE",
"620 -125 CURVE SMOOTH",
"620 -125 OFFCURVE",
"616 -142 OFFCURVE",
"607 -152 CURVE SMOOTH",
"586 -179 OFFCURVE",
"552 -208 OFFCURVE",
"523 -229 CURVE SMOOTH",
"505 -244 OFFCURVE",
"487 -249 OFFCURVE",
"456 -249 CURVE SMOOTH",
"196 -249 LINE SMOOTH",
"116 -249 OFFCURVE",
"80 -166 OFFCURVE"
);
}
);
width = 652;
}
);
unicode = 005B;
},
{
glyphname = bracketright;
lastChange = "2015-11-23 15:57:31 +0000";
layers = (
{
layerId = "BDAF7641-AC9B-4450-A8AE-7BAB26ED3EC6";
name = Bold;
paths = (
{
closed = 1;
nodes = (
"571 1093 CURVE SMOOTH",
"571 964 OFFCURVE",
"566 763 OFFCURVE",
"566 501 CURVE SMOOTH",
"566 240 OFFCURVE",
"571 29 OFFCURVE",
"571 -101 CURVE SMOOTH",
"571 -166 OFFCURVE",
"535 -249 OFFCURVE",
"454 -249 CURVE SMOOTH",
"68 -249 LINE SMOOTH",
"48 -249 OFFCURVE",
"34 -246 OFFCURVE",
"34 -229 CURVE SMOOTH",
"34 -229 OFFCURVE",
"37 -214 OFFCURVE",
"46 -202 CURVE SMOOTH",
"68 -176 OFFCURVE",
"100 -149 OFFCURVE",
"131 -125 CURVE SMOOTH",
"146 -113 OFFCURVE",
"167 -106 OFFCURVE",
"196 -106 CURVE SMOOTH",
"336 -106 LINE SMOOTH",
"353 -106 OFFCURVE",
"372 -93 OFFCURVE",
"372 -61 CURVE SMOOTH",
"372 29 OFFCURVE",
"369 369 OFFCURVE",
"369 501 CURVE SMOOTH",
"369 634 OFFCURVE",
"372 963 OFFCURVE",
"372 1052 CURVE SMOOTH",
"372 1084 OFFCURVE",
"353 1098 OFFCURVE",
"336 1098 CURVE SMOOTH",
"64 1098 LINE SMOOTH",
"44 1098 OFFCURVE",
"32 1103 OFFCURVE",
"32 1118 CURVE SMOOTH",
"32 1118 OFFCURVE",
"35 1134 OFFCURVE",
"44 1145 CURVE SMOOTH",
"66 1172 OFFCURVE",
"98 1201 OFFCURVE",
"129 1222 CURVE SMOOTH",
"148 1236 OFFCURVE",
"164 1242 OFFCURVE",
"195 1242 CURVE SMOOTH",
"454 1242 LINE SMOOTH",
"535 1242 OFFCURVE",
"571 1159 OFFCURVE"
);
}
);
width = 652;
}
);
unicode = 005D;
},
{
glyphname = parenleft;
lastChange = "2015-11-23 15:57:31 +0000";
layers = (
{
layerId = "BDAF7641-AC9B-4450-A8AE-7BAB26ED3EC6";
name = Bold;
paths = (
{
closed = 1;
nodes = (
"485 1145 CURVE SMOOTH",
"408 1007 OFFCURVE",
"302 780 OFFCURVE",
"302 579 CURVE SMOOTH",
"302 337 OFFCURVE",
"408 163 OFFCURVE",
"514 16 CURVE SMOOTH",
"524 2 OFFCURVE",
"535 -16 OFFCURVE",
"535 -29 CURVE SMOOTH",
"535 -38 OFFCURVE",
"531 -52 OFFCURVE",
"524 -74 CURVE SMOOTH",
"499 -149 OFFCURVE",
"480 -183 OFFCURVE",
"446 -251 CURVE SMOOTH",
"432 -279 OFFCURVE",
"424 -289 OFFCURVE",
"410 -289 CURVE SMOOTH",
"386 -289 OFFCURVE",
"365 -262 OFFCURVE",
"340 -229 CURVE SMOOTH",
"285 -159 OFFCURVE",
"222 -70 OFFCURVE",
"172 27 CURVE SMOOTH",
"104 158 OFFCURVE",
"71 340 OFFCURVE",
"71 453 CURVE SMOOTH",
"71 696 OFFCURVE",
"229 995 OFFCURVE",
"309 1118 CURVE SMOOTH",
"321 1134 OFFCURVE",
"331 1149 OFFCURVE",
"349 1166 CURVE SMOOTH",
"379 1194 OFFCURVE",
"456 1240 OFFCURVE",
"487 1253 CURVE SMOOTH",
"492 1255 OFFCURVE",
"499 1258 OFFCURVE",
"505 1258 CURVE SMOOTH",
"517 1258 OFFCURVE",
"526 1251 OFFCURVE",
"526 1233 CURVE SMOOTH",
"526 1204 OFFCURVE",
"503 1178 OFFCURVE"
);
}
);
width = 652;
}
);
unicode = 0028;
},
{
glyphname = parenright;
lastChange = "2015-11-23 15:57:31 +0000";
layers = (
{
layerId = "BDAF7641-AC9B-4450-A8AE-7BAB26ED3EC6";
name = Bold;
paths = (
{
closed = 1;
nodes = (
"121 -176 CURVE SMOOTH",
"198 -38 OFFCURVE",
"304 190 OFFCURVE",
"304 390 CURVE SMOOTH",
"304 633 OFFCURVE",
"198 807 OFFCURVE",
"93 954 CURVE SMOOTH",
"82 968 OFFCURVE",
"71 985 OFFCURVE",
"71 998 CURVE SMOOTH",
"71 1007 OFFCURVE",
"75 1021 OFFCURVE",
"82 1043 CURVE SMOOTH",
"107 1118 OFFCURVE",
"126 1152 OFFCURVE",
"160 1221 CURVE SMOOTH",
"175 1249 OFFCURVE",
"182 1258 OFFCURVE",
"196 1258 CURVE SMOOTH",
"220 1258 OFFCURVE",
"242 1235 OFFCURVE",
"266 1202 CURVE SMOOTH",
"322 1132 OFFCURVE",
"384 1040 OFFCURVE",
"435 942 CURVE SMOOTH",
"503 812 OFFCURVE",
"535 629 OFFCURVE",
"535 516 CURVE SMOOTH",
"535 274 OFFCURVE",
"377 -25 OFFCURVE",
"297 -149 CURVE SMOOTH",
"286 -165 OFFCURVE",
"275 -179 OFFCURVE",
"258 -197 CURVE SMOOTH",
"227 -224 OFFCURVE",
"150 -270 OFFCURVE",
"119 -284 CURVE SMOOTH",
"114 -285 OFFCURVE",
"107 -289 OFFCURVE",
"102 -289 CURVE SMOOTH",
"89 -289 OFFCURVE",
"80 -282 OFFCURVE",
"80 -263 CURVE SMOOTH",
"80 -235 OFFCURVE",
"104 -208 OFFCURVE"
);
}
);
width = 652;
}
);
unicode = 0029;
},
{
glyphname = emdash;
lastChange = "2015-11-23 15:57:31 +0000";
layers = (
{
guideLines = (
{
angle = 90;
position = "{933, 0}";
}
);
layerId = "BDAF7641-AC9B-4450-A8AE-7BAB26ED3EC6";
name = Bold;
paths = (
{
closed = 1;
nodes = (
"170 570 CURVE SMOOTH",
"191 599 OFFCURVE",
"211 609 OFFCURVE",
"249 609 CURVE SMOOTH",
"998 609 LINE SMOOTH",
"1027 609 OFFCURVE",
"1046 604 OFFCURVE",
"1046 575 CURVE SMOOTH",
"1046 564 OFFCURVE",
"1042 550 OFFCURVE",
"1035 534 CURVE SMOOTH",
"1022 501 OFFCURVE",
"1000 459 OFFCURVE",
"978 428 CURVE SMOOTH",
"957 400 OFFCURVE",
"944 389 OFFCURVE",
"919 389 CURVE SMOOTH",
"791 389 OFFCURVE",
"261 387 OFFCURVE",
"131 387 CURVE SMOOTH",
"111 387 OFFCURVE",
"85 393 OFFCURVE",
"85 419 CURVE SMOOTH",
"85 439 OFFCURVE",
"100 464 OFFCURVE",
"105 475 CURVE SMOOTH",
"111 486 OFFCURVE",
"134 523 OFFCURVE"
);
}
);
width = 1131;
}
);
unicode = 2014;
userData = {
com.typemytype.robofont.guides = (
{
angle = 90;
isGlobal = 0;
magnetic = 5;
x = 514;
y = 0;
}
);
};
},
{
glyphname = endash;
lastChange = "2015-11-23 15:57:31 +0000";
layers = (
{
layerId = "BDAF7641-AC9B-4450-A8AE-7BAB26ED3EC6";
name = Bold;
paths = (
{
closed = 1;
nodes = (
"170 570 CURVE SMOOTH",
"191 599 OFFCURVE",
"211 609 OFFCURVE",
"249 609 CURVE SMOOTH",
"818 609 LINE SMOOTH",
"847 609 OFFCURVE",
"867 602 OFFCURVE",
"867 573 CURVE SMOOTH",
"867 564 OFFCURVE",
"865 552 OFFCURVE",
"860 539 CURVE SMOOTH",
"847 506 OFFCURVE",
"822 460 OFFCURVE",
"798 428 CURVE SMOOTH",
"777 400 OFFCURVE",
"765 389 OFFCURVE",
"740 389 CURVE SMOOTH",
"612 389 OFFCURVE",
"261 387 OFFCURVE",
"131 387 CURVE SMOOTH",
"111 387 OFFCURVE",
"85 393 OFFCURVE",
"85 419 CURVE SMOOTH",
"85 439 OFFCURVE",
"95 452 OFFCURVE",
"100 462 CURVE SMOOTH",
"105 473 OFFCURVE",
"134 523 OFFCURVE"
);
}
);
width = 953;
}
);
unicode = 2013;
},
{
glyphname = hyphen;
lastChange = "2015-11-23 15:57:31 +0000";
layers = (
{
layerId = "BDAF7641-AC9B-4450-A8AE-7BAB26ED3EC6";
name = Bold;
paths = (
{
closed = 1;
nodes = (
"48 771 CURVE SMOOTH",
"53 781 OFFCURVE",
"107 887 OFFCURVE",
"141 939 CURVE SMOOTH",
"160 971 OFFCURVE",
"184 989 OFFCURVE",
"213 989 CURVE SMOOTH",
"569 989 LINE SMOOTH",
"598 989 OFFCURVE",
"623 980 OFFCURVE",
"623 946 CURVE SMOOTH",
"623 893 OFFCURVE",
"548 760 OFFCURVE",
"526 727 CURVE SMOOTH",
"507 697 OFFCURVE",
"496 688 OFFCURVE",
"471 688 CURVE SMOOTH",
"343 688 OFFCURVE",
"213 686 OFFCURVE",
"82 686 CURVE SMOOTH",
"62 686 OFFCURVE",
"35 692 OFFCURVE",
"35 718 CURVE SMOOTH",
"35 746 OFFCURVE",
"42 760 OFFCURVE"
);
}
);
width = 650;
}
);
unicode = 002D;
},
{
glyphname = guillemotleft;
lastChange = "2015-11-23 15:57:31 +0000";
layers = (
{
layerId = "BDAF7641-AC9B-4450-A8AE-7BAB26ED3EC6";
name = Bold;
paths = (
{
closed = 1;
nodes = (
"93 660 CURVE SMOOTH",
"64 624 OFFCURVE",
"5 536 OFFCURVE",
"-16 491 CURVE SMOOTH",
"-20 484 OFFCURVE",
"-24 473 OFFCURVE",
"-24 464 CURVE SMOOTH",
"-24 453 OFFCURVE",
"-20 443 OFFCURVE",
"-8 423 CURVE SMOOTH",
"20 378 OFFCURVE",
"118 270 OFFCURVE",
"167 229 CURVE SMOOTH",
"175 222 OFFCURVE",
"181 221 OFFCURVE",
"184 221 CURVE SMOOTH",
"189 221 OFFCURVE",
"196 224 OFFCURVE",
"202 229 CURVE SMOOTH",
"232 263 OFFCURVE",
"279 333 OFFCURVE",
"292 355 CURVE",
"292 355 OFFCURVE",
"302 375 OFFCURVE",
"302 383 CURVE SMOOTH",
"302 389 OFFCURVE",
"300 398 OFFCURVE",
"295 403 CURVE",
"209 500 LINE",
"204 506 OFFCURVE",
"200 516 OFFCURVE",
"200 522 CURVE SMOOTH",
"200 527 OFFCURVE",
"200 534 OFFCURVE",
"206 543 CURVE SMOOTH",
"227 586 OFFCURVE",
"266 681 OFFCURVE",
"288 725 CURVE SMOOTH",
"292 733 OFFCURVE",
"293 740 OFFCURVE",
"293 746 CURVE SMOOTH",
"293 753 OFFCURVE",
"286 758 OFFCURVE",
"277 758 CURVE SMOOTH",
"273 758 OFFCURVE",
"268 758 OFFCURVE",
"261 754 CURVE SMOOTH",
"247 749 OFFCURVE",
"157 706 OFFCURVE",
"148 701 CURVE SMOOTH",
"136 694 OFFCURVE",
"109 681 OFFCURVE"
);
},
{
closed = 1;
nodes = (
"461 660 CURVE SMOOTH",
"433 624 OFFCURVE",
"374 536 OFFCURVE",
"353 491 CURVE SMOOTH",
"349 484 OFFCURVE",
"345 473 OFFCURVE",
"345 464 CURVE SMOOTH",
"345 453 OFFCURVE",
"349 443 OFFCURVE",
"362 423 CURVE SMOOTH",
"388 378 OFFCURVE",
"487 270 OFFCURVE",
"535 229 CURVE SMOOTH",
"545 222 OFFCURVE",
"550 221 OFFCURVE",
"553 221 CURVE SMOOTH",
"559 221 OFFCURVE",
"566 224 OFFCURVE",
"571 229 CURVE SMOOTH",
"601 263 OFFCURVE",
"648 333 OFFCURVE",
"661 355 CURVE",
"661 355 OFFCURVE",
"671 375 OFFCURVE",
"671 383 CURVE SMOOTH",
"671 389 OFFCURVE",
"670 398 OFFCURVE",
"664 403 CURVE SMOOTH",
"579 500 LINE SMOOTH",
"573 506 OFFCURVE",
"569 516 OFFCURVE",
"569 522 CURVE SMOOTH",
"569 527 OFFCURVE",
"569 534 OFFCURVE",
"574 543 CURVE SMOOTH",
"596 586 OFFCURVE",
"636 681 OFFCURVE",
"657 725 CURVE SMOOTH",
"661 733 OFFCURVE",
"663 740 OFFCURVE",
"663 746 CURVE SMOOTH",
"663 753 OFFCURVE",
"656 758 OFFCURVE",
"646 758 CURVE SMOOTH",
"643 758 OFFCURVE",
"637 758 OFFCURVE",
"630 754 CURVE SMOOTH",
"616 749 OFFCURVE",
"526 706 OFFCURVE",
"517 701 CURVE SMOOTH",
"505 694 OFFCURVE",
"478 681 OFFCURVE"
);
}
);
width = 637;
}
);
unicode = 00AB;
},
{
glyphname = guillemotright;
lastChange = "2015-11-23 15:57:31 +0000";
layers = (
{
layerId = "BDAF7641-AC9B-4450-A8AE-7BAB26ED3EC6";
name = Bold;
paths = (
{
closed = 1;
nodes = (
"555 319 CURVE SMOOTH",
"584 355 OFFCURVE",
"643 443 OFFCURVE",
"664 487 CURVE SMOOTH",
"668 494 OFFCURVE",
"671 506 OFFCURVE",
"671 515 CURVE SMOOTH",
"671 525 OFFCURVE",
"668 536 OFFCURVE",
"656 556 CURVE SMOOTH",
"629 600 OFFCURVE",
"530 708 OFFCURVE",
"482 749 CURVE SMOOTH",
"473 756 OFFCURVE",
"468 758 OFFCURVE",
"463 758 CURVE SMOOTH",
"458 758 OFFCURVE",
"451 754 OFFCURVE",
"446 749 CURVE SMOOTH",
"415 715 OFFCURVE",
"369 645 OFFCURVE",
"356 624 CURVE",
"356 624 OFFCURVE",
"345 604 OFFCURVE",
"345 595 CURVE SMOOTH",
"345 590 OFFCURVE",
"347 581 OFFCURVE",
"353 575 CURVE SMOOTH",
"439 479 LINE SMOOTH",
"444 473 OFFCURVE",
"447 462 OFFCURVE",
"447 457 CURVE SMOOTH",
"447 452 OFFCURVE",
"447 445 OFFCURVE",
"442 436 CURVE SMOOTH",
"420 393 OFFCURVE",
"381 298 OFFCURVE",
"360 253 CURVE SMOOTH",
"356 246 OFFCURVE",
"355 238 OFFCURVE",
"355 233 CURVE SMOOTH",
"355 226 OFFCURVE",
"362 221 OFFCURVE",
"370 221 CURVE SMOOTH",
"374 221 OFFCURVE",
"379 221 OFFCURVE",
"386 224 CURVE SMOOTH",
"401 229 OFFCURVE",
"490 272 OFFCURVE",
"499 277 CURVE SMOOTH",
"512 285 OFFCURVE",
"539 298 OFFCURVE"
);
},
{
closed = 1;
nodes = (
"186 319 CURVE SMOOTH",
"215 355 OFFCURVE",
"273 443 OFFCURVE",
"295 487 CURVE SMOOTH",
"299 494 OFFCURVE",
"302 506 OFFCURVE",
"302 515 CURVE SMOOTH",
"302 525 OFFCURVE",
"299 536 OFFCURVE",
"286 556 CURVE SMOOTH",
"259 600 OFFCURVE",
"160 708 OFFCURVE",
"112 749 CURVE SMOOTH",
"104 756 OFFCURVE",
"98 758 OFFCURVE",
"95 758 CURVE SMOOTH",
"89 758 OFFCURVE",
"82 754 OFFCURVE",
"76 749 CURVE SMOOTH",
"46 715 OFFCURVE",
"-1 645 OFFCURVE",
"-13 624 CURVE",
"-13 624 OFFCURVE",
"-24 604 OFFCURVE",
"-24 595 CURVE SMOOTH",
"-24 590 OFFCURVE",
"-23 581 OFFCURVE",
"-16 575 CURVE SMOOTH",
"69 479 LINE SMOOTH",
"75 473 OFFCURVE",
"78 462 OFFCURVE",
"78 457 CURVE SMOOTH",
"78 452 OFFCURVE",
"78 445 OFFCURVE",
"73 436 CURVE SMOOTH",
"51 393 OFFCURVE",
"12 298 OFFCURVE",
"-9 253 CURVE SMOOTH",
"-13 246 OFFCURVE",
"-15 238 OFFCURVE",
"-15 233 CURVE SMOOTH",
"-15 226 OFFCURVE",
"-8 221 OFFCURVE",
"1 221 CURVE SMOOTH",
"5 221 OFFCURVE",
"10 221 OFFCURVE",
"18 224 CURVE SMOOTH",
"32 229 OFFCURVE",
"121 272 OFFCURVE",
"131 277 CURVE SMOOTH",
"143 285 OFFCURVE",
"170 298 OFFCURVE"
);
}
);
width = 637;
}
);
unicode = 00BB;
},
{
glyphname = guilsinglleft;
lastChange = "2015-11-23 15:57:31 +0000";
layers = (
{
layerId = "BDAF7641-AC9B-4450-A8AE-7BAB26ED3EC6";
name = Bold;
paths = (
{
closed = 1;
nodes = (
"93 660 CURVE SMOOTH",
"64 624 OFFCURVE",
"5 536 OFFCURVE",
"-16 491 CURVE SMOOTH",
"-20 484 OFFCURVE",
"-24 473 OFFCURVE",
"-24 464 CURVE SMOOTH",
"-24 453 OFFCURVE",
"-20 443 OFFCURVE",
"-8 423 CURVE SMOOTH",
"20 378 OFFCURVE",
"118 270 OFFCURVE",
"167 229 CURVE SMOOTH",
"175 222 OFFCURVE",
"181 221 OFFCURVE",
"184 221 CURVE SMOOTH",
"189 221 OFFCURVE",
"196 224 OFFCURVE",
"202 229 CURVE SMOOTH",
"232 263 OFFCURVE",
"279 333 OFFCURVE",
"292 355 CURVE",
"292 355 OFFCURVE",
"302 375 OFFCURVE",
"302 383 CURVE SMOOTH",
"302 389 OFFCURVE",
"300 398 OFFCURVE",
"295 403 CURVE SMOOTH",
"209 500 LINE SMOOTH",
"204 506 OFFCURVE",
"200 516 OFFCURVE",
"200 522 CURVE SMOOTH",
"200 527 OFFCURVE",
"200 534 OFFCURVE",
"206 543 CURVE SMOOTH",
"227 586 OFFCURVE",
"266 681 OFFCURVE",
"288 725 CURVE SMOOTH",
"292 733 OFFCURVE",
"293 740 OFFCURVE",
"293 746 CURVE SMOOTH",
"293 753 OFFCURVE",
"286 758 OFFCURVE",
"277 758 CURVE SMOOTH",
"273 758 OFFCURVE",
"268 758 OFFCURVE",
"261 754 CURVE SMOOTH",
"247 749 OFFCURVE",
"157 706 OFFCURVE",
"148 701 CURVE SMOOTH",
"136 694 OFFCURVE",
"109 681 OFFCURVE"
);
}
);
width = 334;
}
);
unicode = 2039;
},
{
glyphname = guilsinglright;
lastChange = "2015-11-23 15:57:31 +0000";
layers = (
{
layerId = "BDAF7641-AC9B-4450-A8AE-7BAB26ED3EC6";
name = Bold;
paths = (
{
closed = 1;
nodes = (
"186 319 CURVE SMOOTH",
"215 355 OFFCURVE",
"273 443 OFFCURVE",
"295 487 CURVE SMOOTH",
"299 494 OFFCURVE",
"302 506 OFFCURVE",
"302 515 CURVE SMOOTH",
"302 525 OFFCURVE",
"299 536 OFFCURVE",
"286 556 CURVE SMOOTH",
"259 600 OFFCURVE",
"160 708 OFFCURVE",
"112 749 CURVE SMOOTH",
"104 756 OFFCURVE",
"98 758 OFFCURVE",
"95 758 CURVE SMOOTH",
"89 758 OFFCURVE",
"82 754 OFFCURVE",
"76 749 CURVE SMOOTH",
"46 715 OFFCURVE",
"-1 645 OFFCURVE",
"-13 624 CURVE",
"-13 624 OFFCURVE",
"-24 604 OFFCURVE",
"-24 595 CURVE SMOOTH",
"-24 590 OFFCURVE",
"-23 581 OFFCURVE",
"-16 575 CURVE SMOOTH",
"69 479 LINE SMOOTH",
"75 473 OFFCURVE",
"78 462 OFFCURVE",
"78 457 CURVE SMOOTH",
"78 452 OFFCURVE",
"78 445 OFFCURVE",
"73 436 CURVE SMOOTH",
"51 393 OFFCURVE",
"12 298 OFFCURVE",
"-9 253 CURVE SMOOTH",
"-13 246 OFFCURVE",
"-15 238 OFFCURVE",
"-15 233 CURVE SMOOTH",
"-15 226 OFFCURVE",
"-8 221 OFFCURVE",
"1 221 CURVE SMOOTH",
"5 221 OFFCURVE",
"10 221 OFFCURVE",
"18 224 CURVE SMOOTH",
"32 229 OFFCURVE",
"121 272 OFFCURVE",
"131 277 CURVE SMOOTH",
"143 285 OFFCURVE",
"170 298 OFFCURVE"
);
}
);
width = 334;
}
);
unicode = 203A;
},
{
glyphname = quotedblbase;
lastChange = "2015-11-23 15:57:31 +0000";
layers = (
{
layerId = "BDAF7641-AC9B-4450-A8AE-7BAB26ED3EC6";
name = Bold;
paths = (
{
closed = 1;
nodes = (
"85 -202 CURVE SMOOTH",
"111 -133 OFFCURVE",
"157 -18 OFFCURVE",
"172 58 CURVE SMOOTH",
"182 118 OFFCURVE",
"186 172 OFFCURVE",
"186 204 CURVE SMOOTH",
"186 222 OFFCURVE",
"193 233 OFFCURVE",
"202 246 CURVE SMOOTH",
"227 279 OFFCURVE",
"309 357 OFFCURVE",
"360 387 CURVE SMOOTH",
"372 395 OFFCURVE",
"386 402 OFFCURVE",
"403 402 CURVE SMOOTH",
"420 400 OFFCURVE",
"447 342 OFFCURVE",
"447 265 CURVE SMOOTH",
"447 169 OFFCURVE",
"420 84 OFFCURVE",
"343 -48 CURVE SMOOTH",
"297 -127 OFFCURVE",
"220 -217 OFFCURVE",
"152 -265 CURVE SMOOTH",
"131 -282 OFFCURVE",
"119 -287 OFFCURVE",
"91 -287 CURVE SMOOTH",
"78 -287 OFFCURVE",
"68 -274 OFFCURVE",
"68 -262 CURVE SMOOTH",
"68 -248 OFFCURVE",
"78 -222 OFFCURVE"
);
},
{
closed = 1;
nodes = (
"482 -202 CURVE SMOOTH",
"507 -133 OFFCURVE",
"553 -18 OFFCURVE",
"567 58 CURVE SMOOTH",
"579 118 OFFCURVE",
"582 172 OFFCURVE",
"582 204 CURVE SMOOTH",
"582 222 OFFCURVE",
"589 233 OFFCURVE",
"598 246 CURVE SMOOTH",
"623 279 OFFCURVE",
"706 357 OFFCURVE",
"755 387 CURVE SMOOTH",
"769 395 OFFCURVE",
"783 402 OFFCURVE",
"798 402 CURVE SMOOTH",
"817 400 OFFCURVE",
"844 342 OFFCURVE",
"844 265 CURVE SMOOTH",
"844 169 OFFCURVE",
"817 84 OFFCURVE",
"740 -48 CURVE SMOOTH",
"693 -127 OFFCURVE",
"616 -217 OFFCURVE",
"548 -265 CURVE SMOOTH",
"526 -282 OFFCURVE",
"516 -287 OFFCURVE",
"487 -287 CURVE SMOOTH",
"475 -287 OFFCURVE",
"463 -274 OFFCURVE",
"463 -262 CURVE SMOOTH",
"463 -248 OFFCURVE",
"475 -222 OFFCURVE"
);
}
);
width = 927;
}
);
unicode = 201E;
},
{
glyphname = quotedblleft;
lastChange = "2015-11-23 15:57:31 +0000";
layers = (
{
layerId = "BDAF7641-AC9B-4450-A8AE-7BAB26ED3EC6";
name = Bold;
paths = (
{
closed = 1;
nodes = (
"825 1061 CURVE SMOOTH",
"801 991 OFFCURVE",
"754 876 OFFCURVE",
"740 801 CURVE SMOOTH",
"729 740 OFFCURVE",
"725 686 OFFCURVE",
"725 655 CURVE SMOOTH",
"725 636 OFFCURVE",
"718 626 OFFCURVE",
"709 613 CURVE SMOOTH",
"684 579 OFFCURVE",
"601 501 OFFCURVE",
"552 472 CURVE SMOOTH",
"539 464 OFFCURVE",
"524 457 OFFCURVE",
"509 457 CURVE SMOOTH",
"490 459 OFFCURVE",
"463 516 OFFCURVE",
"463 593 CURVE SMOOTH",
"463 690 OFFCURVE",
"490 774 OFFCURVE",
"567 907 CURVE SMOOTH",
"615 985 OFFCURVE",
"692 1075 OFFCURVE",
"759 1124 CURVE SMOOTH",
"781 1140 OFFCURVE",
"791 1145 OFFCURVE",
"820 1145 CURVE SMOOTH",
"832 1145 OFFCURVE",
"844 1132 OFFCURVE",
"844 1120 CURVE SMOOTH",
"844 1106 OFFCURVE",
"832 1081 OFFCURVE"
);
},
{
closed = 1;
nodes = (
"430 1061 CURVE SMOOTH",
"405 991 OFFCURVE",
"358 876 OFFCURVE",
"343 801 CURVE SMOOTH",
"333 740 OFFCURVE",
"329 686 OFFCURVE",
"329 655 CURVE SMOOTH",
"329 636 OFFCURVE",
"322 626 OFFCURVE",
"313 613 CURVE SMOOTH",
"288 579 OFFCURVE",
"206 501 OFFCURVE",
"155 472 CURVE SMOOTH",
"143 464 OFFCURVE",
"129 457 OFFCURVE",
"112 457 CURVE SMOOTH",
"95 459 OFFCURVE",
"68 516 OFFCURVE",
"68 593 CURVE SMOOTH",
"68 690 OFFCURVE",
"95 774 OFFCURVE",
"172 907 CURVE SMOOTH",
"218 985 OFFCURVE",
"295 1075 OFFCURVE",
"363 1124 CURVE SMOOTH",
"384 1140 OFFCURVE",
"396 1145 OFFCURVE",
"424 1145 CURVE SMOOTH",
"437 1145 OFFCURVE",
"447 1132 OFFCURVE",
"447 1120 CURVE SMOOTH",
"447 1106 OFFCURVE",
"437 1081 OFFCURVE"
);
}
);
width = 927;
}
);
unicode = 201C;
},
{
glyphname = quotedblright;
lastChange = "2015-11-23 15:57:31 +0000";
layers = (
{
layerId = "BDAF7641-AC9B-4450-A8AE-7BAB26ED3EC6";
name = Bold;
paths = (
{
closed = 1;
nodes = (
"102 541 CURVE SMOOTH",
"126 611 OFFCURVE",
"174 725 OFFCURVE",
"188 801 CURVE SMOOTH",
"198 862 OFFCURVE",
"202 916 OFFCURVE",
"202 948 CURVE SMOOTH",
"202 966 OFFCURVE",
"209 977 OFFCURVE",
"218 989 CURVE SMOOTH",
"244 1023 OFFCURVE",
"326 1100 OFFCURVE",
"376 1131 CURVE SMOOTH",
"388 1138 OFFCURVE",
"403 1145 OFFCURVE",
"419 1145 CURVE SMOOTH",
"437 1144 OFFCURVE",
"463 1086 OFFCURVE",
"463 1009 CURVE SMOOTH",
"463 912 OFFCURVE",
"437 828 OFFCURVE",
"360 696 CURVE",
"313 617 OFFCURVE",
"236 527 OFFCURVE",
"168 479 CURVE SMOOTH",
"146 462 OFFCURVE",
"136 457 OFFCURVE",
"107 457 CURVE SMOOTH",
"95 457 OFFCURVE",
"83 470 OFFCURVE",
"83 482 CURVE SMOOTH",
"83 496 OFFCURVE",
"95 522 OFFCURVE"
);
},
{
closed = 1;
nodes = (
"497 541 CURVE SMOOTH",
"523 611 OFFCURVE",
"569 725 OFFCURVE",
"584 801 CURVE SMOOTH",
"594 862 OFFCURVE",
"598 916 OFFCURVE",
"598 948 CURVE SMOOTH",
"598 966 OFFCURVE",
"605 977 OFFCURVE",
"615 989 CURVE SMOOTH",
"639 1023 OFFCURVE",
"721 1100 OFFCURVE",
"772 1131 CURVE SMOOTH",
"784 1138 OFFCURVE",
"798 1145 OFFCURVE",
"815 1145 CURVE SMOOTH",
"832 1144 OFFCURVE",
"860 1086 OFFCURVE",
"860 1009 CURVE SMOOTH",
"860 912 OFFCURVE",
"832 828 OFFCURVE",
"755 696 CURVE SMOOTH",
"709 617 OFFCURVE",
"632 527 OFFCURVE",
"564 479 CURVE SMOOTH",
"543 462 OFFCURVE",
"531 457 OFFCURVE",
"503 457 CURVE SMOOTH",
"490 457 OFFCURVE",
"480 470 OFFCURVE",
"480 482 CURVE SMOOTH",
"480 496 OFFCURVE",
"490 522 OFFCURVE"
);
}
);
width = 927;
}
);
unicode = 201D;
},
{
glyphname = quoteleft;
lastChange = "2015-11-23 15:57:31 +0000";
layers = (
{
layerId = "BDAF7641-AC9B-4450-A8AE-7BAB26ED3EC6";
name = Bold;
paths = (
{
closed = 1;
nodes = (
"485 1061 CURVE SMOOTH",
"460 991 OFFCURVE",
"413 876 OFFCURVE",
"399 801 CURVE SMOOTH",
"388 740 OFFCURVE",
"384 686 OFFCURVE",
"384 655 CURVE SMOOTH",
"384 636 OFFCURVE",
"377 626 OFFCURVE",
"369 613 CURVE SMOOTH",
"343 579 OFFCURVE",
"261 501 OFFCURVE",
"211 472 CURVE SMOOTH",
"198 464 OFFCURVE",
"184 457 OFFCURVE",
"168 457 CURVE SMOOTH",
"150 459 OFFCURVE",
"123 516 OFFCURVE",
"123 593 CURVE SMOOTH",
"123 690 OFFCURVE",
"150 774 OFFCURVE",
"227 907 CURVE SMOOTH",
"273 985 OFFCURVE",
"350 1075 OFFCURVE",
"419 1124 CURVE SMOOTH",
"440 1140 OFFCURVE",
"451 1145 OFFCURVE",
"480 1145 CURVE SMOOTH",
"492 1145 OFFCURVE",
"503 1132 OFFCURVE",
"503 1120 CURVE SMOOTH",
"503 1106 OFFCURVE",
"492 1081 OFFCURVE"
);
}
);
width = 587;
}
);
unicode = 2018;
},
{
glyphname = quoteright;
lastChange = "2015-11-23 15:57:31 +0000";
layers = (
{
layerId = "BDAF7641-AC9B-4450-A8AE-7BAB26ED3EC6";
name = Bold;
paths = (
{
closed = 1;
nodes = (
"102 541 CURVE SMOOTH",
"126 611 OFFCURVE",
"174 725 OFFCURVE",
"188 801 CURVE SMOOTH",
"198 862 OFFCURVE",
"202 916 OFFCURVE",
"202 948 CURVE SMOOTH",
"202 966 OFFCURVE",
"209 977 OFFCURVE",
"218 989 CURVE SMOOTH",
"244 1023 OFFCURVE",
"326 1100 OFFCURVE",
"376 1131 CURVE SMOOTH",
"388 1138 OFFCURVE",
"403 1145 OFFCURVE",
"419 1145 CURVE SMOOTH",
"437 1144 OFFCURVE",
"463 1086 OFFCURVE",
"463 1009 CURVE SMOOTH",
"463 912 OFFCURVE",
"437 828 OFFCURVE",
"360 696 CURVE SMOOTH",
"313 617 OFFCURVE",
"236 527 OFFCURVE",
"168 479 CURVE SMOOTH",
"146 462 OFFCURVE",
"136 457 OFFCURVE",
"107 457 CURVE SMOOTH",
"95 457 OFFCURVE",
"83 470 OFFCURVE",
"83 482 CURVE SMOOTH",
"83 496 OFFCURVE",
"95 522 OFFCURVE"
);
}
);
width = 587;
}
);
unicode = 2019;
},
{
glyphname = afii67842;
lastChange = "2015-11-23 15:57:31 +0000";
layers = (
{
guideLines = (
{
angle = 90;
position = "{212, 0}";
}
);
layerId = "BDAF7641-AC9B-4450-A8AE-7BAB26ED3EC6";
name = Bold;
paths = (
{
closed = 1;
nodes = (
"182 -63 CURVE SMOOTH",
"182 -77 OFFCURVE",
"186 -93 OFFCURVE",
"208 -93 CURVE SMOOTH",
"295 -93 LINE SMOOTH",
"315 -93 OFFCURVE",
"322 -79 OFFCURVE",
"322 -65 CURVE SMOOTH",
"329 256 OFFCURVE",
"333 383 OFFCURVE",
"333 498 CURVE SMOOTH",
"333 645 OFFCURVE",
"328 853 OFFCURVE",
"322 1086 CURVE SMOOTH",
"322 1100 OFFCURVE",
"315 1115 OFFCURVE",
"295 1115 CURVE SMOOTH",
"208 1115 LINE SMOOTH",
"186 1115 OFFCURVE",
"182 1098 OFFCURVE",
"182 1084 CURVE SMOOTH",
"175 857 OFFCURVE",
"170 645 OFFCURVE",
"170 498 CURVE SMOOTH",
"170 383 OFFCURVE",
"177 214 OFFCURVE"
);
}
);
width = 505;
}
);
unicode = 05C0;
userData = {
com.typemytype.robofont.guides = (
{
angle = 90;
isGlobal = 0;
magnetic = 5;
x = 162;
y = 0;
}
);
};
},
{
glyphname = afii57658;
lastChange = "2015-11-23 15:57:31 +0000";
layers = (
{
layerId = "BDAF7641-AC9B-4450-A8AE-7BAB26ED3EC6";
name = Bold;
paths = (
{
closed = 1;
nodes = (
"155 648 CURVE SMOOTH",
"150 656 OFFCURVE",
"145 665 OFFCURVE",
"145 676 CURVE SMOOTH",
"145 684 OFFCURVE",
"146 696 OFFCURVE",
"157 708 CURVE SMOOTH",
"181 735 OFFCURVE",
"272 835 OFFCURVE",
"295 857 CURVE SMOOTH",
"304 865 OFFCURVE",
"317 874 OFFCURVE",
"329 874 CURVE SMOOTH",
"340 874 OFFCURVE",
"347 869 OFFCURVE",
"358 858 CURVE SMOOTH",
"406 807 OFFCURVE",
"468 758 OFFCURVE",
"523 727 CURVE SMOOTH",
"533 720 OFFCURVE",
"541 710 OFFCURVE",
"541 696 CURVE SMOOTH",
"541 684 OFFCURVE",
"533 669 OFFCURVE",
"528 662 CURVE SMOOTH",
"482 593 OFFCURVE",
"440 547 OFFCURVE",
"394 500 CURVE SMOOTH",
"386 493 OFFCURVE",
"377 486 OFFCURVE",
"367 486 CURVE SMOOTH",
"356 486 OFFCURVE",
"347 487 OFFCURVE",
"338 493 CURVE SMOOTH",
"265 530 OFFCURVE",
"200 588 OFFCURVE"
);
},
{
closed = 1;
nodes = (
"155 133 CURVE SMOOTH",
"150 140 OFFCURVE",
"145 149 OFFCURVE",
"145 159 CURVE SMOOTH",
"145 169 OFFCURVE",
"146 179 OFFCURVE",
"157 192 CURVE SMOOTH",
"181 221 OFFCURVE",
"272 321 OFFCURVE",
"295 342 CURVE SMOOTH",
"304 351 OFFCURVE",
"317 361 OFFCURVE",
"329 361 CURVE SMOOTH",
"340 361 OFFCURVE",
"347 355 OFFCURVE",
"358 344 CURVE SMOOTH",
"406 292 OFFCURVE",
"468 244 OFFCURVE",
"523 212 CURVE SMOOTH",
"533 204 OFFCURVE",
"541 193 OFFCURVE",
"541 179 CURVE SMOOTH",
"541 169 OFFCURVE",
"533 152 OFFCURVE",
"528 145 CURVE SMOOTH",
"482 77 OFFCURVE",
"440 29 OFFCURVE",
"394 -14 CURVE SMOOTH",
"386 -22 OFFCURVE",
"377 -29 OFFCURVE",
"367 -29 CURVE SMOOTH",
"356 -29 OFFCURVE",
"347 -27 OFFCURVE",
"338 -22 CURVE SMOOTH",
"265 16 OFFCURVE",
"200 72 OFFCURVE"
);
}
);
width = 616;
}
);
unicode = 05C3;
},
{
glyphname = uni05F3;
lastChange = "2015-11-23 15:57:31 +0000";
layers = (
{
layerId = "BDAF7641-AC9B-4450-A8AE-7BAB26ED3EC6";
name = Bold;
paths = (
{
closed = 1;
nodes = (
"46 887 CURVE SMOOTH",
"53 907 OFFCURVE",
"131 1086 OFFCURVE",
"198 1183 CURVE SMOOTH",
"211 1201 OFFCURVE",
"225 1209 OFFCURVE",
"239 1209 CURVE SMOOTH",
"299 1209 LINE SMOOTH",
"321 1209 OFFCURVE",
"329 1188 OFFCURVE",
"329 1147 CURVE SMOOTH",
"329 1047 OFFCURVE",
"313 1018 OFFCURVE",
"281 975 CURVE SMOOTH",
"244 923 OFFCURVE",
"143 830 OFFCURVE",
"114 812 CURVE SMOOTH",
"100 803 OFFCURVE",
"85 799 OFFCURVE",
"71 799 CURVE SMOOTH",
"53 799 OFFCURVE",
"32 810 OFFCURVE",
"32 837 CURVE SMOOTH",
"32 851 OFFCURVE",
"42 872 OFFCURVE"
);
}
);
width = 361;
}
);
unicode = 05F3;
},
{
glyphname = uni05F4;
lastChange = "2015-11-23 15:57:31 +0000";
layers = (
{
layerId = "BDAF7641-AC9B-4450-A8AE-7BAB26ED3EC6";
name = Bold;
paths = (
{
closed = 1;
nodes = (
"23 872 CURVE SMOOTH",
"41 925 OFFCURVE",
"91 1043 OFFCURVE",
"186 1175 CURVE SMOOTH",
"200 1195 OFFCURVE",
"215 1206 OFFCURVE",
"229 1206 CURVE SMOOTH",
"299 1206 LINE",
"315 1206 OFFCURVE",
"329 1201 OFFCURVE",
"329 1178 CURVE SMOOTH",
"329 1145 OFFCURVE",
"324 1110 OFFCURVE",
"319 1082 CURVE SMOOTH",
"311 1052 OFFCURVE",
"307 1045 OFFCURVE",
"279 993 CURVE SMOOTH",
"256 946 OFFCURVE",
"100 795 OFFCURVE",
"42 795 CURVE SMOOTH",
"32 795 OFFCURVE",
"8 805 OFFCURVE",
"8 824 CURVE SMOOTH",
"8 838 OFFCURVE",
"18 855 OFFCURVE"
);
},
{
closed = 1;
nodes = (
"306 869 CURVE SMOOTH",
"324 921 OFFCURVE",
"377 1045 OFFCURVE",
"473 1178 CURVE SMOOTH",
"487 1197 OFFCURVE",
"501 1208 OFFCURVE",
"516 1208 CURVE SMOOTH",
"587 1208 LINE",
"603 1208 OFFCURVE",
"618 1202 OFFCURVE",
"618 1180 CURVE SMOOTH",
"618 1147 OFFCURVE",
"612 1111 OFFCURVE",
"607 1084 CURVE SMOOTH",
"600 1054 OFFCURVE",
"593 1034 OFFCURVE",
"567 995 CURVE SMOOTH",
"541 949 OFFCURVE",
"384 792 OFFCURVE",
"328 792 CURVE SMOOTH",
"317 792 OFFCURVE",
"293 801 OFFCURVE",
"293 821 CURVE SMOOTH",
"293 835 OFFCURVE",
"300 851 OFFCURVE"
);
}
);
width = 633;
}
);
unicode = 05F4;
},
{
glyphname = afii57645;
lastChange = "2015-11-23 15:57:31 +0000";
layers = (
{
layerId = "BDAF7641-AC9B-4450-A8AE-7BAB26ED3EC6";
name = Bold;
paths = (
{
closed = 1;
nodes = (
"48 771 CURVE SMOOTH",
"53 781 OFFCURVE",
"107 887 OFFCURVE",
"141 939 CURVE SMOOTH",
"160 971 OFFCURVE",
"184 989 OFFCURVE",
"213 989 CURVE SMOOTH",
"569 989 LINE",
"598 989 OFFCURVE",
"623 980 OFFCURVE",
"623 946 CURVE SMOOTH",
"623 893 OFFCURVE",
"548 760 OFFCURVE",
"526 727 CURVE SMOOTH",
"507 697 OFFCURVE",
"496 688 OFFCURVE",
"471 688 CURVE SMOOTH",
"343 688 OFFCURVE",
"213 686 OFFCURVE",
"82 686 CURVE SMOOTH",
"62 686 OFFCURVE",
"35 692 OFFCURVE",
"35 718 CURVE SMOOTH",
"35 746 OFFCURVE",
"42 760 OFFCURVE"
);
}
);
width = 645;
}
);
unicode = 05BE;
},
{
glyphname = Euro;
lastChange = "2015-11-23 15:57:31 +0000";
layers = (
{
guideLines = (
{
position = "{-120, -33}";
},
{
position = "{-120, 1444}";
},
{
position = "{-120, 842}";
},
{
position = "{-120, 727}";
},
{
position = "{-120, 618}";
},
{
position = "{-120, 950}";
},
{
position = "{-120, 150}";
},
{
angle = 90;
position = "{935, 0}";
},
{
angle = 90;
position = "{-145, 0}";
},
{
angle = 90;
position = "{27, 0}";
},
{
angle = 90;
position = "{-159, 0}";
}
);
layerId = "BDAF7641-AC9B-4450-A8AE-7BAB26ED3EC6";
name = Bold;
paths = (
{
closed = 1;
nodes = (
"582 -29 CURVE SMOOTH",
"654 -29 OFFCURVE",
"721 -7 OFFCURVE",
"767 16 CURVE SMOOTH",
"811 39 OFFCURVE",
"897 145 OFFCURVE",
"938 200 CURVE SMOOTH",
"955 222 OFFCURVE",
"965 231 OFFCURVE",
"965 253 CURVE SMOOTH",
"965 263 OFFCURVE",
"958 272 OFFCURVE",
"945 272 CURVE SMOOTH",
"933 272 OFFCURVE",
"763 210 OFFCURVE",
"627 210 CURVE SMOOTH",
"480 210 OFFCURVE",
"360 244 OFFCURVE",
"324 498 CURVE",
"324 498 OFFCURVE",
"553 498 OFFCURVE",
"721 501 CURVE SMOOTH",
"747 501 OFFCURVE",
"797 501 OFFCURVE",
"817 511 CURVE SMOOTH",
"846 523 OFFCURVE",
"878 549 OFFCURVE",
"895 566 CURVE SMOOTH",
"902 573 OFFCURVE",
"917 588 OFFCURVE",
"917 593 CURVE SMOOTH",
"917 600 OFFCURVE",
"911 606 OFFCURVE",
"899 606 CURVE SMOOTH",
"313 606 LINE",
"313 650 OFFCURVE",
"315 681 OFFCURVE",
"317 701 CURVE",
"391 703 OFFCURVE",
"584 704 OFFCURVE",
"706 708 CURVE SMOOTH",
"759 710 OFFCURVE",
"815 717 OFFCURVE",
"836 727 CURVE SMOOTH",
"880 749 OFFCURVE",
"885 756 OFFCURVE",
"904 773 CURVE SMOOTH",
"909 776 OFFCURVE",
"926 794 OFFCURVE",
"926 799 CURVE SMOOTH",
"926 807 OFFCURVE",
"921 812 OFFCURVE",
"908 812 CURVE SMOOTH",
"335 812 LINE SMOOTH",
"329 812 OFFCURVE",
"329 816 OFFCURVE",
"329 819 CURVE SMOOTH",
"329 844 OFFCURVE",
"343 937 OFFCURVE",
"374 978 CURVE SMOOTH",
"410 1027 OFFCURVE",
"446 1045 OFFCURVE",
"531 1045 CURVE SMOOTH",
"625 1045 OFFCURVE",
"675 1009 OFFCURVE",
"731 985 CURVE SMOOTH",
"740 982 OFFCURVE",
"750 977 OFFCURVE",
"763 977 CURVE SMOOTH",
"777 977 OFFCURVE",
"790 991 OFFCURVE",
"797 1002 CURVE SMOOTH",
"840 1061 OFFCURVE",
"887 1125 OFFCURVE",
"909 1165 CURVE SMOOTH",
"917 1178 OFFCURVE",
"921 1188 OFFCURVE",
"921 1197 CURVE SMOOTH",
"921 1206 OFFCURVE",
"914 1215 OFFCURVE",
"899 1221 CURVE SMOOTH",
"824 1249 OFFCURVE",
"738 1271 OFFCURVE",
"650 1271 CURVE SMOOTH",
"584 1271 OFFCURVE",
"545 1260 OFFCURVE",
"492 1240 CURVE SMOOTH",
"356 1188 OFFCURVE",
"263 1124 OFFCURVE",
"160 1021 CURVE SMOOTH",
"111 971 OFFCURVE",
"75 850 OFFCURVE",
"71 812 CURVE",
"42 812 LINE SMOOTH",
"18 812 OFFCURVE",
"21 810 OFFCURVE",
"1 797 CURVE",
"-49 747 LINE SMOOTH",
"-60 737 OFFCURVE",
"-72 718 OFFCURVE",
"-72 713 CURVE SMOOTH",
"-72 706 OFFCURVE",
"-60 703 OFFCURVE",
"-47 703 CURVE SMOOTH",
"49 703 LINE",
"42 670 OFFCURVE",
"39 643 OFFCURVE",
"37 613 CURVE",
"34 606 LINE",
"8 606 LINE",
"-9 604 OFFCURVE",
"-15 600 OFFCURVE",
"-24 592 CURVE SMOOTH",
"-62 547 LINE SMOOTH",
"-72 534 OFFCURVE",
"-85 518 OFFCURVE",
"-85 511 CURVE SMOOTH",
"-85 503 OFFCURVE",
"-81 498 OFFCURVE",
"-69 498 CURVE SMOOTH",
"41 498 LINE",
"73 192 OFFCURVE",
"216 -29 OFFCURVE"
);
}
);
width = 938;
}
);
unicode = 20AC;
userData = {
com.typemytype.robofont.guides = (
{
angle = 0;
isGlobal = 0;
magnetic = 5;
x = 0;
y = -16;
},
{
angle = 0;
isGlobal = 0;
magnetic = 5;
x = 0;
y = 705;
},
{
angle = 0;
isGlobal = 0;
magnetic = 5;
x = 0;
y = 411;
},
{
angle = 0;
isGlobal = 0;
magnetic = 5;
x = 0;
y = 355;
},
{
angle = 0;
isGlobal = 0;
magnetic = 5;
x = 0;
y = 302;
},
{
angle = 0;
isGlobal = 0;
magnetic = 5;
x = 0;
y = 464;
},
{
angle = 0;
isGlobal = 0;
magnetic = 5;
x = 0;
y = 73;
},
{
angle = 90;
isGlobal = 0;
magnetic = 5;
x = 515;
y = 0;
},
{
angle = 90;
isGlobal = 0;
magnetic = 5;
x = -12;
y = 0;
},
{
angle = 90;
isGlobal = 0;
magnetic = 5;
x = 72;
y = 0;
},
{
angle = 90;
isGlobal = 0;
magnetic = 5;
x = -19;
y = 0;
}
);
};
},
{
glyphname = currency;
lastChange = "2015-11-23 15:57:31 +0000";
layers = (
{
layerId = "BDAF7641-AC9B-4450-A8AE-7BAB26ED3EC6";
name = Bold;
paths = (
{
closed = 1;
nodes = (
"931 781 CURVE SMOOTH",
"919 797 OFFCURVE",
"908 817 OFFCURVE",
"923 833 CURVE SMOOTH",
"1001 914 OFFCURVE",
"1049 961 OFFCURVE",
"1049 961 CURVE",
"1056 970 OFFCURVE",
"1060 977 OFFCURVE",
"1060 984 CURVE SMOOTH",
"1060 993 OFFCURVE",
"1056 1000 OFFCURVE",
"1051 1009 CURVE SMOOTH",
"965 1096 LINE SMOOTH",
"955 1110 OFFCURVE",
"947 1113 OFFCURVE",
"944 1113 CURVE SMOOTH",
"933 1113 OFFCURVE",
"926 1110 OFFCURVE",
"923 1098 CURVE",
"923 1098 OFFCURVE",
"885 1061 OFFCURVE",
"803 964 CURVE SMOOTH",
"786 946 OFFCURVE",
"772 961 OFFCURVE",
"750 970 CURVE SMOOTH",
"697 997 OFFCURVE",
"636 1016 OFFCURVE",
"543 1016 CURVE SMOOTH",
"468 1016 OFFCURVE",
"391 989 OFFCURVE",
"335 956 CURVE SMOOTH",
"317 942 OFFCURVE",
"306 937 OFFCURVE",
"292 956 CURVE SMOOTH",
"204 1048 OFFCURVE",
"175 1088 OFFCURVE",
"175 1088 CURVE",
"170 1095 OFFCURVE",
"159 1098 OFFCURVE",
"155 1098 CURVE SMOOTH",
"146 1098 OFFCURVE",
"138 1095 OFFCURVE",
"131 1088 CURVE SMOOTH",
"48 998 LINE",
"41 987 OFFCURVE",
"37 980 OFFCURVE",
"37 973 CURVE SMOOTH",
"37 966 OFFCURVE",
"41 959 OFFCURVE",
"44 949 CURVE",
"44 949 OFFCURVE",
"75 921 OFFCURVE",
"172 824 CURVE SMOOTH",
"186 812 OFFCURVE",
"184 795 OFFCURVE",
"172 780 CURVE",
"126 710 OFFCURVE",
"111 645 OFFCURVE",
"111 564 CURVE SMOOTH",
"111 464 OFFCURVE",
"129 402 OFFCURVE",
"157 340 CURVE SMOOTH",
"167 323 OFFCURVE",
"174 308 OFFCURVE",
"157 294 CURVE SMOOTH",
"53 186 OFFCURVE",
"13 152 OFFCURVE",
"13 152 CURVE",
"6 145 OFFCURVE",
"3 137 OFFCURVE",
"3 131 CURVE SMOOTH",
"3 122 OFFCURVE",
"6 118 OFFCURVE",
"13 106 CURVE",
"100 18 LINE SMOOTH",
"104 11 OFFCURVE",
"111 7 OFFCURVE",
"121 7 CURVE SMOOTH",
"126 7 OFFCURVE",
"134 11 OFFCURVE",
"145 22 CURVE",
"145 22 OFFCURVE",
"182 55 OFFCURVE",
"279 165 CURVE SMOOTH",
"293 181 OFFCURVE",
"306 176 OFFCURVE",
"324 165 CURVE SMOOTH",
"383 133 OFFCURVE",
"447 120 OFFCURVE",
"526 120 CURVE SMOOTH",
"608 120 OFFCURVE",
"684 138 OFFCURVE",
"743 179 CURVE SMOOTH",
"757 190 OFFCURVE",
"772 197 OFFCURVE",
"790 179 CURVE SMOOTH",
"880 82 OFFCURVE",
"916 45 OFFCURVE",
"916 45 CURVE",
"923 32 OFFCURVE",
"931 31 OFFCURVE",
"938 31 CURVE SMOOTH",
"945 31 OFFCURVE",
"955 36 OFFCURVE",
"962 45 CURVE",
"1048 129 LINE SMOOTH",
"1056 137 OFFCURVE",
"1058 147 OFFCURVE",
"1058 154 CURVE SMOOTH",
"1058 161 OFFCURVE",
"1055 169 OFFCURVE",
"1048 178 CURVE",
"1048 178 OFFCURVE",
"1017 207 OFFCURVE",
"919 303 CURVE SMOOTH",
"904 317 OFFCURVE",
"908 332 OFFCURVE",
"919 351 CURVE SMOOTH",
"933 375 OFFCURVE",
"942 390 OFFCURVE",
"953 416 CURVE SMOOTH",
"972 460 OFFCURVE",
"979 513 OFFCURVE",
"979 566 CURVE SMOOTH",
"979 645 OFFCURVE",
"969 722 OFFCURVE"
);
},
{
closed = 1;
nodes = (
"594 319 CURVE SMOOTH",
"410 319 OFFCURVE",
"300 389 OFFCURVE",
"300 579 CURVE SMOOTH",
"300 648 OFFCURVE",
"304 672 OFFCURVE",
"313 703 CURVE SMOOTH",
"331 761 OFFCURVE",
"381 814 OFFCURVE",
"489 814 CURVE SMOOTH",
"731 814 OFFCURVE",
"791 667 OFFCURVE",
"791 520 CURVE SMOOTH",
"791 330 OFFCURVE",
"677 319 OFFCURVE"
);
}
);
width = 1067;
}
);
unicode = 00A4;
},
{
glyphname = dollar;
lastChange = "2015-11-23 15:57:31 +0000";
layers = (
{
guideLines = (
{
angle = 90;
position = "{881, 0}";
}
);
layerId = "BDAF7641-AC9B-4450-A8AE-7BAB26ED3EC6";
name = Bold;
paths = (
{
closed = 1;
nodes = (
"168 282 CURVE SMOOTH",
"172 285 OFFCURVE",
"177 289 OFFCURVE",
"181 289 CURVE SMOOTH",
"188 289 OFFCURVE",
"195 289 OFFCURVE",
"206 284 CURVE SMOOTH",
"249 262 OFFCURVE",
"338 228 OFFCURVE",
"384 228 CURVE SMOOTH",
"392 228 OFFCURVE",
"398 228 OFFCURVE",
"398 244 CURVE SMOOTH",
"398 369 OFFCURVE",
"399 337 OFFCURVE",
"399 462 CURVE SMOOTH",
"399 470 OFFCURVE",
"396 475 OFFCURVE",
"388 479 CURVE SMOOTH",
"313 523 OFFCURVE",
"206 573 OFFCURVE",
"138 619 CURVE SMOOTH",
"66 665 OFFCURVE",
"39 756 OFFCURVE",
"39 843 CURVE SMOOTH",
"39 916 OFFCURVE",
"82 1002 OFFCURVE",
"134 1072 CURVE SMOOTH",
"188 1145 OFFCURVE",
"242 1195 OFFCURVE",
"363 1238 CURVE SMOOTH",
"374 1242 OFFCURVE",
"379 1245 OFFCURVE",
"379 1257 CURVE SMOOTH",
"379 1292 LINE SMOOTH",
"379 1303 OFFCURVE",
"379 1315 OFFCURVE",
"388 1327 CURVE SMOOTH",
"405 1348 OFFCURVE",
"428 1369 OFFCURVE",
"451 1394 CURVE SMOOTH",
"454 1397 OFFCURVE",
"460 1399 OFFCURVE",
"463 1399 CURVE SMOOTH",
"476 1399 OFFCURVE",
"478 1392 OFFCURVE",
"478 1371 CURVE SMOOTH",
"478 1269 LINE",
"478 1265 OFFCURVE",
"480 1264 OFFCURVE",
"487 1264 CURVE SMOOTH",
"600 1264 OFFCURVE",
"716 1238 OFFCURVE",
"783 1208 CURVE SMOOTH",
"790 1204 OFFCURVE",
"797 1192 OFFCURVE",
"797 1187 CURVE SMOOTH",
"797 1183 OFFCURVE",
"791 1165 OFFCURVE",
"786 1156 CURVE SMOOTH",
"767 1122 OFFCURVE",
"702 1016 OFFCURVE",
"670 975 CURVE SMOOTH",
"664 968 OFFCURVE",
"654 964 OFFCURVE",
"646 964 CURVE SMOOTH",
"641 964 OFFCURVE",
"634 966 OFFCURVE",
"629 968 CURVE SMOOTH",
"577 991 OFFCURVE",
"512 1016 OFFCURVE",
"485 1016 CURVE SMOOTH",
"478 1016 OFFCURVE",
"478 1009 OFFCURVE",
"478 1000 CURVE SMOOTH",
"478 805 LINE SMOOTH",
"480 794 OFFCURVE",
"480 785 OFFCURVE",
"489 780 CURVE SMOOTH",
"560 737 OFFCURVE",
"627 701 OFFCURVE",
"711 650 CURVE SMOOTH",
"797 599 OFFCURVE",
"839 515 OFFCURVE",
"839 395 CURVE SMOOTH",
"839 301 OFFCURVE",
"769 169 OFFCURVE",
"652 63 CURVE SMOOTH",
"612 27 OFFCURVE",
"574 4 OFFCURVE",
"509 -20 CURVE SMOOTH",
"501 -22 OFFCURVE",
"494 -25 OFFCURVE",
"494 -36 CURVE SMOOTH",
"494 -115 OFFCURVE",
"496 -158 OFFCURVE",
"497 -240 CURVE SMOOTH",
"497 -263 OFFCURVE",
"494 -277 OFFCURVE",
"483 -291 CURVE SMOOTH",
"461 -319 OFFCURVE",
"442 -340 OFFCURVE",
"419 -364 CURVE SMOOTH",
"413 -369 OFFCURVE",
"408 -371 OFFCURVE",
"403 -371 CURVE SMOOTH",
"391 -371 OFFCURVE",
"388 -357 OFFCURVE",
"388 -347 CURVE SMOOTH",
"388 -253 OFFCURVE",
"396 -172 OFFCURVE",
"396 -75 CURVE SMOOTH",
"396 -60 OFFCURVE",
"394 -38 OFFCURVE",
"376 -38 CURVE SMOOTH",
"254 -38 OFFCURVE",
"160 -25 OFFCURVE",
"59 27 CURVE SMOOTH",
"41 36 OFFCURVE",
"32 45 OFFCURVE",
"32 60 CURVE SMOOTH",
"32 67 OFFCURVE",
"37 74 OFFCURVE",
"41 81 CURVE SMOOTH",
"66 118 OFFCURVE",
"143 255 OFFCURVE"
);
},
{
closed = 1;
nodes = (
"388 833 CURVE",
"392 833 OFFCURVE",
"392 862 OFFCURVE",
"392 862 CURVE",
"386 1005 LINE",
"386 1012 OFFCURVE",
"386 1018 OFFCURVE",
"379 1018 CURVE SMOOTH",
"329 1018 OFFCURVE",
"295 984 OFFCURVE",
"295 935 CURVE SMOOTH",
"295 876 OFFCURVE",
"338 864 OFFCURVE",
"372 841 CURVE SMOOTH",
"374 838 OFFCURVE",
"384 833 OFFCURVE"
);
},
{
closed = 1;
nodes = (
"497 228 CURVE SMOOTH",
"573 228 OFFCURVE",
"600 265 OFFCURVE",
"600 305 CURVE SMOOTH",
"600 340 OFFCURVE",
"574 382 OFFCURVE",
"523 414 CURVE SMOOTH",
"512 421 OFFCURVE",
"494 431 OFFCURVE",
"490 431 CURVE SMOOTH",
"485 431 OFFCURVE",
"485 423 OFFCURVE",
"485 416 CURVE SMOOTH",
"485 362 OFFCURVE",
"489 292 OFFCURVE",
"489 242 CURVE SMOOTH",
"489 229 OFFCURVE",
"490 228 OFFCURVE"
);
}
);
width = 936;
}
);
unicode = 0024;
userData = {
com.typemytype.robofont.guides = (
{
angle = 90;
isGlobal = 0;
magnetic = 5;
x = 489;
y = 0;
}
);
};
},
{
glyphname = sheqelhebrew;
lastChange = "2015-11-23 15:57:31 +0000";
layers = (
{
layerId = "BDAF7641-AC9B-4450-A8AE-7BAB26ED3EC6";
name = Bold;
paths = (
{
closed = 1;
nodes = (
"733 319 CURVE SMOOTH",
"755 282 OFFCURVE",
"769 269 OFFCURVE",
"804 269 CURVE SMOOTH",
"904 269 OFFCURVE",
"1041 344 OFFCURVE",
"1091 385 CURVE SMOOTH",
"1145 428 OFFCURVE",
"1177 477 OFFCURVE",
"1177 550 CURVE SMOOTH",
"1177 634 OFFCURVE",
"1118 801 OFFCURVE",
"1109 824 CURVE SMOOTH",
"1104 838 OFFCURVE",
"1100 851 OFFCURVE",
"1100 860 CURVE SMOOTH",
"1100 865 OFFCURVE",
"1102 872 OFFCURVE",
"1105 879 CURVE SMOOTH",
"1135 928 OFFCURVE",
"1198 1019 OFFCURVE",
"1270 1082 CURVE SMOOTH",
"1277 1088 OFFCURVE",
"1292 1095 OFFCURVE",
"1301 1095 CURVE SMOOTH",
"1324 1095 OFFCURVE",
"1333 1077 OFFCURVE",
"1340 1061 CURVE SMOOTH",
"1364 1009 OFFCURVE",
"1393 865 OFFCURVE",
"1393 781 CURVE SMOOTH",
"1393 696 OFFCURVE",
"1371 622 OFFCURVE",
"1357 570 CURVE SMOOTH",
"1315 407 OFFCURVE",
"1261 301 OFFCURVE",
"1241 263 CURVE SMOOTH",
"1213 208 OFFCURVE",
"1148 127 OFFCURVE",
"1089 91 CURVE SMOOTH",
"1021 50 OFFCURVE",
"824 -34 OFFCURVE",
"727 -34 CURVE SMOOTH",
"666 -34 OFFCURVE",
"594 12 OFFCURVE",
"564 109 CURVE SMOOTH",
"539 188 OFFCURVE",
"490 299 OFFCURVE",
"447 375 CURVE SMOOTH",
"439 390 OFFCURVE",
"428 414 OFFCURVE",
"428 431 CURVE SMOOTH",
"428 441 OFFCURVE",
"432 457 OFFCURVE",
"439 466 CURVE SMOOTH",
"483 523 OFFCURVE",
"526 570 OFFCURVE",
"571 614 CURVE SMOOTH",
"580 624 OFFCURVE",
"586 633 OFFCURVE",
"600 633 CURVE SMOOTH",
"618 633 OFFCURVE",
"632 624 OFFCURVE",
"639 604 CURVE SMOOTH",
"659 554 OFFCURVE",
"671 511 OFFCURVE",
"682 473 CURVE SMOOTH",
"685 462 OFFCURVE",
"690 457 OFFCURVE",
"695 457 CURVE SMOOTH",
"699 457 OFFCURVE",
"704 460 OFFCURVE",
"709 464 CURVE SMOOTH",
"729 482 OFFCURVE",
"755 500 OFFCURVE",
"770 523 CURVE SMOOTH",
"784 550 OFFCURVE",
"790 579 OFFCURVE",
"790 607 CURVE SMOOTH",
"790 667 OFFCURVE",
"757 708 OFFCURVE",
"664 708 CURVE SMOOTH",
"381 708 LINE SMOOTH",
"360 708 OFFCURVE",
"347 696 OFFCURVE",
"347 676 CURVE SMOOTH",
"347 547 OFFCURVE",
"360 403 OFFCURVE",
"360 279 CURVE SMOOTH",
"360 242 OFFCURVE",
"360 183 OFFCURVE",
"347 161 CURVE SMOOTH",
"317 101 OFFCURVE",
"258 -7 OFFCURVE",
"208 -39 CURVE SMOOTH",
"200 -43 OFFCURVE",
"195 -45 OFFCURVE",
"189 -45 CURVE SMOOTH",
"177 -45 OFFCURVE",
"170 -34 OFFCURVE",
"170 -22 CURVE SMOOTH",
"150 248 OFFCURVE",
"145 527 OFFCURVE",
"87 776 CURVE SMOOTH",
"85 785 OFFCURVE",
"83 792 OFFCURVE",
"83 799 CURVE SMOOTH",
"83 807 OFFCURVE",
"87 814 OFFCURVE",
"89 819 CURVE SMOOTH",
"118 884 OFFCURVE",
"198 1007 OFFCURVE",
"266 1082 CURVE SMOOTH",
"273 1091 OFFCURVE",
"281 1098 OFFCURVE",
"293 1098 CURVE SMOOTH",
"315 1098 OFFCURVE",
"322 1082 OFFCURVE",
"331 1047 CURVE SMOOTH",
"338 1014 OFFCURVE",
"362 1009 OFFCURVE",
"394 1009 CURVE SMOOTH",
"713 1009 LINE SMOOTH",
"942 1009 OFFCURVE",
"1017 905 OFFCURVE",
"1017 740 CURVE SMOOTH",
"1017 683 OFFCURVE",
"985 590 OFFCURVE",
"944 537 CURVE SMOOTH",
"888 468 OFFCURVE",
"825 400 OFFCURVE",
"741 346 CURVE SMOOTH",
"733 339 OFFCURVE",
"727 335 OFFCURVE",
"727 330 CURVE SMOOTH",
"727 326 OFFCURVE",
"729 323 OFFCURVE"
);
}
);
width = 1499;
}
);
unicode = 20AA;
},
{
glyphname = sterling;
lastChange = "2015-11-23 15:57:31 +0000";
layers = (
{
layerId = "BDAF7641-AC9B-4450-A8AE-7BAB26ED3EC6";
name = Bold;
paths = (
{
closed = 1;
nodes = (
"820 1319 CURVE SMOOTH",
"834 1308 OFFCURVE",
"839 1298 OFFCURVE",
"839 1286 CURVE SMOOTH",
"839 1276 OFFCURVE",
"827 1257 OFFCURVE",
"822 1247 CURVE SMOOTH",
"810 1224 OFFCURVE",
"759 1145 OFFCURVE",
"711 1079 CURVE SMOOTH",
"706 1072 OFFCURVE",
"697 1062 OFFCURVE",
"685 1062 CURVE SMOOTH",
"678 1062 OFFCURVE",
"668 1065 OFFCURVE",
"656 1072 CURVE SMOOTH",
"567 1122 OFFCURVE",
"539 1134 OFFCURVE",
"492 1134 CURVE SMOOTH",
"413 1134 OFFCURVE",
"374 1089 OFFCURVE",
"374 1031 CURVE SMOOTH",
"374 1018 OFFCURVE",
"376 1005 OFFCURVE",
"379 993 CURVE SMOOTH",
"415 850 LINE",
"419 837 OFFCURVE",
"426 833 OFFCURVE",
"428 833 CURVE",
"774 833 LINE",
"791 833 OFFCURVE",
"798 823 OFFCURVE",
"798 812 CURVE SMOOTH",
"798 801 OFFCURVE",
"788 787 OFFCURVE",
"779 776 CURVE SMOOTH",
"741 732 OFFCURVE",
"713 703 OFFCURVE",
"677 665 CURVE SMOOTH",
"654 641 OFFCURVE",
"612 619 OFFCURVE",
"579 619 CURVE",
"543 619 OFFCURVE",
"497 614 OFFCURVE",
"461 614 CURVE",
"476 559 OFFCURVE",
"487 513 OFFCURVE",
"487 468 CURVE SMOOTH",
"487 409 OFFCURVE",
"456 362 OFFCURVE",
"430 321 CURVE SMOOTH",
"426 313 OFFCURVE",
"424 308 OFFCURVE",
"424 305 CURVE SMOOTH",
"424 299 OFFCURVE",
"428 296 OFFCURVE",
"435 296 CURVE SMOOTH",
"526 296 OFFCURVE",
"616 267 OFFCURVE",
"704 267 CURVE SMOOTH",
"804 267 OFFCURVE",
"901 337 OFFCURVE",
"909 340 CURVE SMOOTH",
"919 344 OFFCURVE",
"924 346 OFFCURVE",
"930 346 CURVE SMOOTH",
"942 346 OFFCURVE",
"945 335 OFFCURVE",
"945 328 CURVE SMOOTH",
"945 317 OFFCURVE",
"937 294 OFFCURVE",
"931 282 CURVE SMOOTH",
"908 228 OFFCURVE",
"863 137 OFFCURVE",
"831 75 CURVE SMOOTH",
"818 52 OFFCURVE",
"776 14 OFFCURVE",
"738 2 CURVE SMOOTH",
"685 -14 OFFCURVE",
"659 -29 OFFCURVE",
"564 -29 CURVE SMOOTH",
"444 -29 OFFCURVE",
"335 12 OFFCURVE",
"222 12 CURVE SMOOTH",
"189 12 OFFCURVE",
"85 -4 OFFCURVE",
"53 -4 CURVE SMOOTH",
"37 -4 OFFCURVE",
"27 7 OFFCURVE",
"27 27 CURVE SMOOTH",
"27 43 OFFCURVE",
"80 169 OFFCURVE",
"107 228 CURVE SMOOTH",
"116 246 OFFCURVE",
"123 260 OFFCURVE",
"139 267 CURVE SMOOTH",
"175 284 OFFCURVE",
"227 313 OFFCURVE",
"227 353 CURVE SMOOTH",
"227 412 OFFCURVE",
"200 529 OFFCURVE",
"179 609 CURVE SMOOTH",
"177 617 OFFCURVE",
"170 617 OFFCURVE",
"162 617 CURVE SMOOTH",
"126 617 OFFCURVE",
"98 614 OFFCURVE",
"68 614 CURVE SMOOTH",
"57 614 OFFCURVE",
"48 622 OFFCURVE",
"48 634 CURVE SMOOTH",
"48 647 OFFCURVE",
"61 660 OFFCURVE",
"66 669 CURVE SMOOTH",
"91 710 OFFCURVE",
"107 735 OFFCURVE",
"134 783 CURVE SMOOTH",
"136 785 OFFCURVE",
"143 795 OFFCURVE",
"143 807 CURVE SMOOTH",
"143 810 OFFCURVE",
"138 826 OFFCURVE",
"136 830 CURVE SMOOTH",
"116 886 OFFCURVE",
"111 932 OFFCURVE",
"111 956 CURVE SMOOTH",
"111 1033 OFFCURVE",
"141 1077 OFFCURVE",
"160 1108 CURVE SMOOTH",
"256 1260 OFFCURVE",
"331 1305 OFFCURVE",
"433 1362 CURVE SMOOTH",
"466 1380 OFFCURVE",
"514 1396 OFFCURVE",
"573 1396 CURVE SMOOTH",
"699 1396 OFFCURVE",
"767 1358 OFFCURVE"
);
}
);
width = 938;
}
);
unicode = 00A3;
},
{
glyphname = divide;
lastChange = "2015-11-23 15:57:31 +0000";
layers = (
{
components = (
{
name = minus;
}
);
layerId = "BDAF7641-AC9B-4450-A8AE-7BAB26ED3EC6";
name = Bold;
paths = (
{
closed = 1;
nodes = (
"560 835 CURVE SMOOTH",
"560 788 OFFCURVE",
"519 749 OFFCURVE",
"473 749 CURVE SMOOTH",
"422 749 OFFCURVE",
"383 788 OFFCURVE",
"383 835 CURVE SMOOTH",
"383 884 OFFCURVE",
"422 923 OFFCURVE",
"473 923 CURVE SMOOTH",
"519 923 OFFCURVE",
"560 884 OFFCURVE"
);
},
{
closed = 1;
nodes = (
"559 298 CURVE SMOOTH",
"559 251 OFFCURVE",
"517 212 OFFCURVE",
"471 212 CURVE SMOOTH",
"420 212 OFFCURVE",
"381 251 OFFCURVE",
"381 298 CURVE SMOOTH",
"381 346 OFFCURVE",
"420 385 OFFCURVE",
"471 385 CURVE SMOOTH",
"517 385 OFFCURVE",
"559 346 OFFCURVE"
);
}
);
width = 938;
}
);
unicode = 00F7;
},
{
glyphname = equal;
lastChange = "2015-11-23 15:57:31 +0000";
layers = (
{
guideLines = (
{
angle = 90;
position = "{906, 0}";
}
);
layerId = "BDAF7641-AC9B-4450-A8AE-7BAB26ED3EC6";
name = Bold;
paths = (
{
closed = 1;
nodes = (
"107 850 CURVE",
"83 850 OFFCURVE",
"78 838 OFFCURVE",
"78 821 CURVE SMOOTH",
"78 715 LINE SMOOTH",
"78 699 OFFCURVE",
"83 688 OFFCURVE",
"107 688 CURVE SMOOTH",
"107 688 OFFCURVE",
"403 694 OFFCURVE",
"501 694 CURVE SMOOTH",
"584 694 OFFCURVE",
"831 688 OFFCURVE",
"831 688 CURVE",
"854 688 OFFCURVE",
"860 699 OFFCURVE",
"860 715 CURVE SMOOTH",
"860 821 LINE SMOOTH",
"860 846 OFFCURVE",
"851 850 OFFCURVE",
"834 850 CURVE SMOOTH",
"834 850 OFFCURVE",
"600 844 OFFCURVE",
"497 844 CURVE SMOOTH",
"381 844 OFFCURVE",
"107 850 OFFCURVE"
);
},
{
closed = 1;
nodes = (
"107 460 CURVE",
"83 460 OFFCURVE",
"78 450 OFFCURVE",
"78 432 CURVE SMOOTH",
"78 326 LINE SMOOTH",
"78 310 OFFCURVE",
"83 299 OFFCURVE",
"107 299 CURVE SMOOTH",
"107 299 OFFCURVE",
"403 305 OFFCURVE",
"501 305 CURVE SMOOTH",
"584 305 OFFCURVE",
"831 299 OFFCURVE",
"831 299 CURVE",
"854 299 OFFCURVE",
"860 310 OFFCURVE",
"860 326 CURVE SMOOTH",
"860 432 LINE SMOOTH",
"860 457 OFFCURVE",
"846 460 OFFCURVE",
"834 460 CURVE SMOOTH",
"834 460 OFFCURVE",
"600 455 OFFCURVE",
"497 455 CURVE SMOOTH",
"381 455 OFFCURVE",
"107 460 OFFCURVE"
);
}
);
width = 938;
}
);
unicode = 003D;
userData = {
com.typemytype.robofont.guides = (
{
angle = 90;
isGlobal = 0;
magnetic = 5;
x = 501;
y = 0;
}
);
};
},
{
glyphname = greater;
lastChange = "2015-11-23 15:57:31 +0000";
layers = (
{
layerId = "BDAF7641-AC9B-4450-A8AE-7BAB26ED3EC6";
name = Bold;
paths = (
{
closed = 1;
nodes = (
"856 652 LINE",
"856 670 OFFCURVE",
"851 674 OFFCURVE",
"840 679 CURVE",
"840 679 OFFCURVE",
"589 790 OFFCURVE",
"483 841 CURVE SMOOTH",
"392 884 OFFCURVE",
"181 987 OFFCURVE",
"181 987 CURVE",
"174 991 OFFCURVE",
"167 993 OFFCURVE",
"159 993 CURVE SMOOTH",
"150 993 OFFCURVE",
"143 989 OFFCURVE",
"134 971 CURVE SMOOTH",
"89 876 LINE SMOOTH",
"87 871 OFFCURVE",
"83 865 OFFCURVE",
"83 860 CURVE SMOOTH",
"83 851 OFFCURVE",
"89 846 OFFCURVE",
"104 841 CURVE",
"104 841 OFFCURVE",
"329 742 OFFCURVE",
"405 706 CURVE SMOOTH",
"644 592 LINE",
"405 477 LINE SMOOTH",
"329 441 OFFCURVE",
"104 342 OFFCURVE",
"104 342 CURVE",
"89 337 OFFCURVE",
"85 330 OFFCURVE",
"85 321 CURVE SMOOTH",
"85 315 OFFCURVE",
"87 312 OFFCURVE",
"89 306 CURVE SMOOTH",
"139 202 LINE SMOOTH",
"145 192 OFFCURVE",
"150 188 OFFCURVE",
"157 188 CURVE SMOOTH",
"162 188 OFFCURVE",
"174 192 OFFCURVE",
"181 195 CURVE",
"181 195 OFFCURVE",
"392 299 OFFCURVE",
"483 342 CURVE SMOOTH",
"589 393 OFFCURVE",
"840 503 OFFCURVE",
"840 503 CURVE",
"851 509 OFFCURVE",
"856 516 OFFCURVE",
"856 539 CURVE SMOOTH"
);
}
);
width = 938;
}
);
unicode = 003E;
},
{
glyphname = greaterequal;
lastChange = "2015-11-23 15:57:31 +0000";
layers = (
{
layerId = "BDAF7641-AC9B-4450-A8AE-7BAB26ED3EC6";
name = Bold;
paths = (
{
closed = 1;
nodes = (
"858 679 LINE",
"858 697 OFFCURVE",
"853 701 OFFCURVE",
"842 706 CURVE SMOOTH",
"842 706 OFFCURVE",
"594 801 OFFCURVE",
"485 855 CURVE SMOOTH",
"394 900 OFFCURVE",
"281 951 OFFCURVE",
"182 998 CURVE",
"175 1002 OFFCURVE",
"168 1004 OFFCURVE",
"160 1004 CURVE SMOOTH",
"152 1004 OFFCURVE",
"145 1000 OFFCURVE",
"136 982 CURVE SMOOTH",
"91 887 LINE SMOOTH",
"89 882 OFFCURVE",
"85 876 OFFCURVE",
"85 871 CURVE SMOOTH",
"85 862 OFFCURVE",
"97 855 OFFCURVE",
"111 850 CURVE SMOOTH",
"111 850 OFFCURVE",
"326 758 OFFCURVE",
"406 722 CURVE SMOOTH",
"646 619 LINE",
"406 509 LINE",
"331 473 OFFCURVE",
"105 378 OFFCURVE",
"105 378 CURVE SMOOTH",
"91 373 OFFCURVE",
"87 366 OFFCURVE",
"87 357 CURVE SMOOTH",
"87 351 OFFCURVE",
"89 347 OFFCURVE",
"91 342 CURVE SMOOTH",
"141 238 LINE SMOOTH",
"146 228 OFFCURVE",
"152 224 OFFCURVE",
"159 224 CURVE SMOOTH",
"164 224 OFFCURVE",
"175 228 OFFCURVE",
"182 231 CURVE SMOOTH",
"182 231 OFFCURVE",
"394 332 OFFCURVE",
"485 375 CURVE SMOOTH",
"591 424 OFFCURVE",
"842 530 OFFCURVE",
"842 530 CURVE SMOOTH",
"853 536 OFFCURVE",
"858 543 OFFCURVE",
"858 566 CURVE SMOOTH"
);
},
{
closed = 1;
nodes = (
"111 165 CURVE",
"87 165 OFFCURVE",
"82 154 OFFCURVE",
"82 137 CURVE SMOOTH",
"82 31 LINE SMOOTH",
"82 14 OFFCURVE",
"87 4 OFFCURVE",
"111 4 CURVE SMOOTH",
"111 4 OFFCURVE",
"362 9 OFFCURVE",
"460 9 CURVE SMOOTH",
"543 9 OFFCURVE",
"804 4 OFFCURVE",
"804 4 CURVE",
"827 4 OFFCURVE",
"832 14 OFFCURVE",
"832 31 CURVE SMOOTH",
"832 137 LINE SMOOTH",
"832 161 OFFCURVE",
"818 165 OFFCURVE",
"808 165 CURVE SMOOTH",
"808 165 OFFCURVE",
"559 159 OFFCURVE",
"456 159 CURVE SMOOTH",
"340 159 OFFCURVE",
"111 165 OFFCURVE"
);
}
);
width = 938;
}
);
unicode = 2265;
},
{
glyphname = less;
lastChange = "2015-11-23 15:57:31 +0000";
layers = (
{
guideLines = (
{
position = "{-120, 172}";
},
{
angle = 90;
position = "{21, 0}";
},
{
angle = 90;
position = "{982, 0}";
}
);
layerId = "BDAF7641-AC9B-4450-A8AE-7BAB26ED3EC6";
name = Bold;
paths = (
{
closed = 1;
nodes = (
"83 652 LINE",
"83 670 OFFCURVE",
"89 674 OFFCURVE",
"100 679 CURVE SMOOTH",
"100 679 OFFCURVE",
"350 790 OFFCURVE",
"456 841 CURVE SMOOTH",
"548 884 OFFCURVE",
"759 987 OFFCURVE",
"759 987 CURVE SMOOTH",
"767 991 OFFCURVE",
"774 993 OFFCURVE",
"781 993 CURVE SMOOTH",
"790 993 OFFCURVE",
"797 989 OFFCURVE",
"806 971 CURVE SMOOTH",
"851 876 LINE SMOOTH",
"853 871 OFFCURVE",
"856 865 OFFCURVE",
"856 860 CURVE SMOOTH",
"856 851 OFFCURVE",
"851 846 OFFCURVE",
"836 841 CURVE SMOOTH",
"836 841 OFFCURVE",
"610 742 OFFCURVE",
"535 706 CURVE SMOOTH",
"295 592 LINE",
"535 477 LINE SMOOTH",
"610 441 OFFCURVE",
"836 342 OFFCURVE",
"836 342 CURVE SMOOTH",
"851 337 OFFCURVE",
"854 330 OFFCURVE",
"854 321 CURVE SMOOTH",
"854 315 OFFCURVE",
"853 312 OFFCURVE",
"851 306 CURVE SMOOTH",
"801 202 LINE SMOOTH",
"795 192 OFFCURVE",
"790 188 OFFCURVE",
"783 188 CURVE SMOOTH",
"777 188 OFFCURVE",
"767 192 OFFCURVE",
"759 195 CURVE SMOOTH",
"759 195 OFFCURVE",
"548 299 OFFCURVE",
"456 342 CURVE SMOOTH",
"350 393 OFFCURVE",
"100 503 OFFCURVE",
"100 503 CURVE SMOOTH",
"89 509 OFFCURVE",
"83 516 OFFCURVE",
"83 539 CURVE SMOOTH"
);
}
);
width = 938;
}
);
unicode = 003C;
userData = {
com.typemytype.robofont.guides = (
{
angle = 0;
isGlobal = 0;
magnetic = 5;
x = 0;
y = 84;
},
{
angle = 90;
isGlobal = 0;
magnetic = 5;
x = 69;
y = 0;
},
{
angle = 90;
isGlobal = 0;
magnetic = 5;
x = 538;
y = 0;
}
);
};
},
{
glyphname = lessequal;
lastChange = "2015-11-23 15:57:31 +0000";
layers = (
{
guideLines = (
{
position = "{-120, 682}";
},
{
position = "{-120, 1116}";
},
{
angle = 90;
position = "{3, 0}";
},
{
angle = 90;
position = "{963, 0}";
},
{
angle = 90;
position = "{875, 0}";
}
);
layerId = "BDAF7641-AC9B-4450-A8AE-7BAB26ED3EC6";
name = Bold;
paths = (
{
closed = 1;
nodes = (
"80 679 LINE",
"80 697 OFFCURVE",
"85 701 OFFCURVE",
"97 706 CURVE",
"97 706 OFFCURVE",
"343 801 OFFCURVE",
"453 855 CURVE SMOOTH",
"545 900 OFFCURVE",
"657 951 OFFCURVE",
"755 998 CURVE SMOOTH",
"763 1002 OFFCURVE",
"770 1004 OFFCURVE",
"777 1004 CURVE SMOOTH",
"786 1004 OFFCURVE",
"793 1000 OFFCURVE",
"803 982 CURVE SMOOTH",
"847 887 LINE SMOOTH",
"849 882 OFFCURVE",
"853 876 OFFCURVE",
"853 871 CURVE SMOOTH",
"853 862 OFFCURVE",
"842 855 OFFCURVE",
"827 850 CURVE",
"827 850 OFFCURVE",
"612 758 OFFCURVE",
"531 722 CURVE SMOOTH",
"292 619 LINE",
"531 509 LINE SMOOTH",
"607 473 OFFCURVE",
"832 378 OFFCURVE",
"832 378 CURVE",
"847 373 OFFCURVE",
"851 366 OFFCURVE",
"851 357 CURVE SMOOTH",
"851 351 OFFCURVE",
"849 347 OFFCURVE",
"847 342 CURVE SMOOTH",
"797 238 LINE SMOOTH",
"791 228 OFFCURVE",
"786 224 OFFCURVE",
"779 224 CURVE SMOOTH",
"774 224 OFFCURVE",
"763 228 OFFCURVE",
"755 231 CURVE",
"755 231 OFFCURVE",
"545 332 OFFCURVE",
"453 375 CURVE SMOOTH",
"347 424 OFFCURVE",
"97 530 OFFCURVE",
"97 530 CURVE",
"85 536 OFFCURVE",
"80 543 OFFCURVE",
"80 566 CURVE SMOOTH"
);
},
{
closed = 1;
nodes = (
"827 165 CURVE",
"851 165 OFFCURVE",
"856 154 OFFCURVE",
"856 137 CURVE SMOOTH",
"856 31 LINE SMOOTH",
"856 14 OFFCURVE",
"851 4 OFFCURVE",
"827 4 CURVE SMOOTH",
"827 4 OFFCURVE",
"577 9 OFFCURVE",
"478 9 CURVE SMOOTH",
"396 9 OFFCURVE",
"134 4 OFFCURVE",
"134 4 CURVE",
"111 4 OFFCURVE",
"105 14 OFFCURVE",
"105 31 CURVE SMOOTH",
"105 137 LINE SMOOTH",
"105 161 OFFCURVE",
"119 165 OFFCURVE",
"131 165 CURVE SMOOTH",
"131 165 OFFCURVE",
"379 159 OFFCURVE",
"482 159 CURVE SMOOTH",
"598 159 OFFCURVE",
"827 165 OFFCURVE"
);
}
);
width = 938;
}
);
unicode = 2264;
userData = {
com.typemytype.robofont.guides = (
{
angle = 0;
isGlobal = 0;
magnetic = 5;
x = 0;
y = 333;
},
{
angle = 0;
isGlobal = 0;
magnetic = 5;
x = 0;
y = 545;
},
{
angle = 90;
isGlobal = 0;
magnetic = 5;
x = 60;
y = 0;
},
{
angle = 90;
isGlobal = 0;
magnetic = 5;
x = 529;
y = 0;
},
{
angle = 90;
isGlobal = 0;
magnetic = 5;
x = 486;
y = 0;
}
);
};
},
{
glyphname = logicalnot;
lastChange = "2015-11-23 15:57:31 +0000";
layers = (
{
layerId = "BDAF7641-AC9B-4450-A8AE-7BAB26ED3EC6";
name = Bold;
paths = (
{
closed = 1;
nodes = (
"786 638 CURVE SMOOTH",
"657 640 OFFCURVE",
"97 645 OFFCURVE",
"97 645 CURVE",
"73 645 OFFCURVE",
"68 634 OFFCURVE",
"68 617 CURVE SMOOTH",
"68 513 LINE SMOOTH",
"68 496 OFFCURVE",
"73 486 OFFCURVE",
"97 486 CURVE SMOOTH",
"97 486 OFFCURVE",
"537 493 OFFCURVE",
"663 494 CURVE",
"661 364 OFFCURVE",
"657 199 OFFCURVE",
"657 199 CURVE",
"657 176 OFFCURVE",
"668 171 OFFCURVE",
"685 171 CURVE SMOOTH",
"791 171 LINE SMOOTH",
"808 171 OFFCURVE",
"818 176 OFFCURVE",
"818 199 CURVE SMOOTH",
"818 199 OFFCURVE",
"813 482 OFFCURVE",
"811 609 CURVE",
"811 634 OFFCURVE",
"803 638 OFFCURVE"
);
}
);
width = 895;
}
);
unicode = 00AC;
},
{
glyphname = minus;
lastChange = "2015-11-23 15:57:31 +0000";
layers = (
{
layerId = "BDAF7641-AC9B-4450-A8AE-7BAB26ED3EC6";
name = Bold;
paths = (
{
closed = 1;
nodes = (
"107 652 CURVE",
"83 652 OFFCURVE",
"78 641 OFFCURVE",
"78 624 CURVE SMOOTH",
"78 518 LINE SMOOTH",
"78 501 OFFCURVE",
"83 491 OFFCURVE",
"107 491 CURVE SMOOTH",
"107 491 OFFCURVE",
"403 496 OFFCURVE",
"501 496 CURVE SMOOTH",
"584 496 OFFCURVE",
"831 491 OFFCURVE",
"831 491 CURVE",
"854 491 OFFCURVE",
"860 501 OFFCURVE",
"860 518 CURVE SMOOTH",
"860 624 LINE SMOOTH",
"860 648 OFFCURVE",
"846 652 OFFCURVE",
"834 652 CURVE SMOOTH",
"834 652 OFFCURVE",
"600 647 OFFCURVE",
"497 647 CURVE SMOOTH",
"381 647 OFFCURVE",
"107 652 OFFCURVE"
);
}
);
width = 938;
}
);
unicode = 2212;
},
{
glyphname = multiply;
lastChange = "2015-11-23 15:57:31 +0000";
layers = (
{
guideLines = (
{
position = "{-120, 1083}";
},
{
position = "{-120, 188}";
}
);
layerId = "BDAF7641-AC9B-4450-A8AE-7BAB26ED3EC6";
name = Bold;
paths = (
{
closed = 1;
nodes = (
"75 287 CURVE",
"68 279 OFFCURVE",
"64 272 OFFCURVE",
"64 267 CURVE SMOOTH",
"64 260 OFFCURVE",
"68 255 OFFCURVE",
"75 248 CURVE SMOOTH",
"150 172 LINE SMOOTH",
"155 166 OFFCURVE",
"160 163 OFFCURVE",
"168 163 CURVE SMOOTH",
"174 163 OFFCURVE",
"181 166 OFFCURVE",
"189 174 CURVE SMOOTH",
"189 174 OFFCURVE",
"381 369 OFFCURVE",
"471 460 CURVE",
"537 390 OFFCURVE",
"745 183 OFFCURVE",
"745 183 CURVE",
"752 176 OFFCURVE",
"759 172 OFFCURVE",
"765 172 CURVE SMOOTH",
"772 172 OFFCURVE",
"779 176 OFFCURVE",
"784 183 CURVE SMOOTH",
"860 256 LINE SMOOTH",
"868 265 OFFCURVE",
"872 272 OFFCURVE",
"872 277 CURVE SMOOTH",
"872 284 OFFCURVE",
"868 289 OFFCURVE",
"861 296 CURVE SMOOTH",
"861 296 OFFCURVE",
"656 489 OFFCURVE",
"577 568 CURVE",
"648 638 OFFCURVE",
"847 831 OFFCURVE",
"847 831 CURVE",
"854 841 OFFCURVE",
"858 848 OFFCURVE",
"858 853 CURVE SMOOTH",
"858 860 OFFCURVE",
"854 865 OFFCURVE",
"849 871 CURVE SMOOTH",
"774 946 LINE SMOOTH",
"765 956 OFFCURVE",
"757 957 OFFCURVE",
"752 957 CURVE SMOOTH",
"745 957 OFFCURVE",
"740 954 OFFCURVE",
"736 948 CURVE SMOOTH",
"736 948 OFFCURVE",
"550 754 OFFCURVE",
"471 674 CURVE",
"381 767 OFFCURVE",
"211 944 OFFCURVE",
"211 944 CURVE",
"204 951 OFFCURVE",
"196 956 OFFCURVE",
"191 956 CURVE SMOOTH",
"184 956 OFFCURVE",
"177 951 OFFCURVE",
"170 944 CURVE SMOOTH",
"97 869 LINE SMOOTH",
"89 864 OFFCURVE",
"85 857 OFFCURVE",
"85 850 CURVE SMOOTH",
"85 844 OFFCURVE",
"89 837 OFFCURVE",
"97 830 CURVE SMOOTH",
"97 830 OFFCURVE",
"273 655 OFFCURVE",
"363 568 CURVE",
"270 477 OFFCURVE",
"75 287 OFFCURVE"
);
}
);
width = 938;
}
);
unicode = 00D7;
userData = {
com.typemytype.robofont.guides = (
{
angle = 0;
isGlobal = 0;
magnetic = 5;
x = 0;
y = 529;
},
{
angle = 0;
isGlobal = 0;
magnetic = 5;
x = 0;
y = 92;
}
);
};
},
{
glyphname = percent;
lastChange = "2015-11-23 15:57:31 +0000";
layers = (
{
layerId = "BDAF7641-AC9B-4450-A8AE-7BAB26ED3EC6";
name = Bold;
paths = (
{
closed = 1;
nodes = (
"384 586 CURVE SMOOTH",
"543 848 OFFCURVE",
"677 1118 OFFCURVE",
"706 1185 CURVE SMOOTH",
"714 1206 OFFCURVE",
"721 1217 OFFCURVE",
"740 1229 CURVE SMOOTH",
"776 1255 OFFCURVE",
"817 1279 OFFCURVE",
"844 1296 CURVE SMOOTH",
"853 1301 OFFCURVE",
"863 1303 OFFCURVE",
"868 1303 CURVE SMOOTH",
"876 1303 OFFCURVE",
"880 1298 OFFCURVE",
"880 1291 CURVE SMOOTH",
"880 1281 OFFCURVE",
"876 1274 OFFCURVE",
"872 1264 CURVE SMOOTH",
"854 1211 OFFCURVE",
"553 692 OFFCURVE",
"512 624 CURVE SMOOTH",
"461 539 OFFCURVE",
"306 262 OFFCURVE",
"254 142 CURVE SMOOTH",
"234 93 OFFCURVE",
"215 72 OFFCURVE",
"198 60 CURVE SMOOTH",
"170 36 OFFCURVE",
"114 9 OFFCURVE",
"95 2 CURVE SMOOTH",
"91 0 OFFCURVE",
"85 0 OFFCURVE",
"82 0 CURVE SMOOTH",
"69 0 OFFCURVE",
"62 5 OFFCURVE",
"62 18 CURVE SMOOTH",
"62 24 OFFCURVE",
"64 29 OFFCURVE",
"68 36 CURVE SMOOTH",
"129 151 OFFCURVE",
"245 349 OFFCURVE"
);
},
{
closed = 1;
nodes = (
"483 294 CURVE SMOOTH",
"483 389 OFFCURVE",
"517 450 OFFCURVE",
"533 473 CURVE SMOOTH",
"567 522 OFFCURVE",
"643 604 OFFCURVE",
"714 645 CURVE SMOOTH",
"734 658 OFFCURVE",
"767 669 OFFCURVE",
"798 669 CURVE SMOOTH",
"822 669 OFFCURVE",
"858 663 OFFCURVE",
"892 638 CURVE SMOOTH",
"960 588 OFFCURVE",
"1000 484 OFFCURVE",
"1000 402 CURVE",
"1000 282 OFFCURVE",
"971 204 OFFCURVE",
"933 147 CURVE SMOOTH",
"901 99 OFFCURVE",
"811 0 OFFCURVE",
"707 0 CURVE SMOOTH",
"545 0 OFFCURVE",
"483 159 OFFCURVE"
);
},
{
closed = 1;
nodes = (
"824 301 CURVE SMOOTH",
"824 347 OFFCURVE",
"822 380 OFFCURVE",
"803 431 CURVE SMOOTH",
"784 475 OFFCURVE",
"750 486 OFFCURVE",
"714 486 CURVE SMOOTH",
"666 486 OFFCURVE",
"657 417 OFFCURVE",
"657 346 CURVE SMOOTH",
"657 267 OFFCURVE",
"680 186 OFFCURVE",
"745 186 CURVE SMOOTH",
"795 186 OFFCURVE",
"824 222 OFFCURVE"
);
},
{
closed = 1;
nodes = (
"-42 930 CURVE SMOOTH",
"-42 1025 OFFCURVE",
"-8 1086 OFFCURVE",
"8 1110 CURVE SMOOTH",
"42 1158 OFFCURVE",
"118 1240 OFFCURVE",
"189 1281 CURVE SMOOTH",
"209 1294 OFFCURVE",
"242 1305 OFFCURVE",
"273 1305 CURVE SMOOTH",
"297 1305 OFFCURVE",
"333 1299 OFFCURVE",
"367 1274 CURVE SMOOTH",
"435 1224 OFFCURVE",
"475 1120 OFFCURVE",
"475 1038 CURVE SMOOTH",
"475 918 OFFCURVE",
"446 841 OFFCURVE",
"408 783 CURVE SMOOTH",
"376 735 OFFCURVE",
"286 636 OFFCURVE",
"182 636 CURVE SMOOTH",
"20 636 OFFCURVE",
"-42 795 OFFCURVE"
);
},
{
closed = 1;
nodes = (
"299 937 CURVE SMOOTH",
"299 984 OFFCURVE",
"297 1016 OFFCURVE",
"277 1067 CURVE SMOOTH",
"259 1111 OFFCURVE",
"225 1122 OFFCURVE",
"189 1122 CURVE SMOOTH",
"141 1122 OFFCURVE",
"132 1054 OFFCURVE",
"132 982 CURVE SMOOTH",
"132 903 OFFCURVE",
"155 823 OFFCURVE",
"220 823 CURVE SMOOTH",
"270 823 OFFCURVE",
"299 858 OFFCURVE"
);
}
);
width = 936;
}
);
unicode = 0025;
},
{
glyphname = plus;
lastChange = "2015-11-23 15:57:31 +0000";
layers = (
{
guideLines = (
{
angle = 90;
position = "{466, 0}";
},
{
angle = 90;
position = "{515, 0}";
}
);
layerId = "BDAF7641-AC9B-4450-A8AE-7BAB26ED3EC6";
name = Bold;
paths = (
{
closed = 1;
nodes = (
"384 199 CURVE",
"384 176 OFFCURVE",
"396 171 OFFCURVE",
"413 171 CURVE SMOOTH",
"519 171 LINE SMOOTH",
"535 171 OFFCURVE",
"546 176 OFFCURVE",
"546 199 CURVE SMOOTH",
"546 199 OFFCURVE",
"543 364 OFFCURVE",
"541 491 CURVE",
"637 489 OFFCURVE",
"831 486 OFFCURVE",
"831 486 CURVE",
"854 486 OFFCURVE",
"860 496 OFFCURVE",
"860 513 CURVE SMOOTH",
"860 619 LINE SMOOTH",
"860 643 OFFCURVE",
"851 647 OFFCURVE",
"834 647 CURVE SMOOTH",
"834 647 OFFCURVE",
"652 641 OFFCURVE",
"541 641 CURVE",
"541 742 OFFCURVE",
"546 923 OFFCURVE",
"546 923 CURVE",
"546 946 OFFCURVE",
"535 951 OFFCURVE",
"519 951 CURVE SMOOTH",
"413 951 LINE SMOOTH",
"388 951 OFFCURVE",
"384 937 OFFCURVE",
"384 927 CURVE SMOOTH",
"384 927 OFFCURVE",
"388 754 OFFCURVE",
"391 641 CURVE",
"261 643 OFFCURVE",
"107 647 OFFCURVE",
"107 647 CURVE",
"83 647 OFFCURVE",
"78 636 OFFCURVE",
"78 619 CURVE SMOOTH",
"78 513 LINE SMOOTH",
"78 496 OFFCURVE",
"83 486 OFFCURVE",
"107 486 CURVE SMOOTH",
"107 486 OFFCURVE",
"265 489 OFFCURVE",
"391 491 CURVE",
"388 361 OFFCURVE",
"384 199 OFFCURVE"
);
}
);
width = 938;
}
);
unicode = 002B;
userData = {
com.typemytype.robofont.guides = (
{
angle = 90;
isGlobal = 0;
magnetic = 5;
x = 286;
y = 0;
},
{
angle = 90;
isGlobal = 0;
magnetic = 5;
x = 310;
y = 0;
}
);
};
},
{
glyphname = plusminus;
lastChange = "2015-11-23 15:57:31 +0000";
layers = (
{
guideLines = (
{
position = "{-120, 682}";
},
{
angle = 90;
position = "{460, 0}";
}
);
layerId = "BDAF7641-AC9B-4450-A8AE-7BAB26ED3EC6";
name = Bold;
paths = (
{
closed = 1;
nodes = (
"123 165 CURVE",
"100 165 OFFCURVE",
"95 154 OFFCURVE",
"95 137 CURVE SMOOTH",
"95 31 LINE SMOOTH",
"95 14 OFFCURVE",
"100 4 OFFCURVE",
"123 4 CURVE SMOOTH",
"123 4 OFFCURVE",
"374 9 OFFCURVE",
"473 9 CURVE SMOOTH",
"555 9 OFFCURVE",
"817 4 OFFCURVE",
"817 4 CURVE",
"840 4 OFFCURVE",
"846 14 OFFCURVE",
"846 31 CURVE SMOOTH",
"846 137 LINE SMOOTH",
"846 161 OFFCURVE",
"831 165 OFFCURVE",
"820 165 CURVE SMOOTH",
"820 165 OFFCURVE",
"571 159 OFFCURVE",
"469 159 CURVE SMOOTH",
"353 159 OFFCURVE",
"123 165 OFFCURVE"
);
},
{
closed = 1;
nodes = (
"384 251 CURVE",
"384 228 OFFCURVE",
"396 222 OFFCURVE",
"413 222 CURVE SMOOTH",
"519 222 LINE SMOOTH",
"535 222 OFFCURVE",
"546 228 OFFCURVE",
"546 251 CURVE SMOOTH",
"546 251 OFFCURVE",
"543 405 OFFCURVE",
"541 532 CURVE",
"637 530 OFFCURVE",
"817 527 OFFCURVE",
"817 527 CURVE",
"840 527 OFFCURVE",
"846 537 OFFCURVE",
"846 554 CURVE SMOOTH",
"846 660 LINE SMOOTH",
"846 684 OFFCURVE",
"836 688 OFFCURVE",
"820 688 CURVE SMOOTH",
"820 688 OFFCURVE",
"652 683 OFFCURVE",
"541 683 CURVE",
"541 783 OFFCURVE",
"546 954 OFFCURVE",
"546 954 CURVE",
"546 977 OFFCURVE",
"535 982 OFFCURVE",
"519 982 CURVE SMOOTH",
"413 982 LINE SMOOTH",
"388 982 OFFCURVE",
"384 968 OFFCURVE",
"384 957 CURVE SMOOTH",
"384 957 OFFCURVE",
"388 795 OFFCURVE",
"391 683 CURVE",
"261 684 OFFCURVE",
"121 688 OFFCURVE",
"121 688 CURVE",
"98 688 OFFCURVE",
"93 677 OFFCURVE",
"93 660 CURVE SMOOTH",
"93 554 LINE SMOOTH",
"93 537 OFFCURVE",
"98 527 OFFCURVE",
"121 527 CURVE SMOOTH",
"121 527 OFFCURVE",
"265 530 OFFCURVE",
"391 532 CURVE",
"388 402 OFFCURVE",
"384 251 OFFCURVE"
);
}
);
width = 938;
}
);
unicode = 00B1;
userData = {
com.typemytype.robofont.guides = (
{
angle = 0;
isGlobal = 0;
magnetic = 5;
x = 0;
y = 333;
},
{
angle = 90;
isGlobal = 0;
magnetic = 5;
x = 283;
y = 0;
}
);
};
},
{
glyphname = radical;
lastChange = "2015-11-23 15:57:31 +0000";
layers = (
{
layerId = "BDAF7641-AC9B-4450-A8AE-7BAB26ED3EC6";
name = Bold;
paths = (
{
closed = 1;
nodes = (
"923 575 CURVE SMOOTH",
"928 570 OFFCURVE",
"935 563 OFFCURVE",
"940 563 CURVE SMOOTH",
"949 563 OFFCURVE",
"957 571 OFFCURVE",
"957 597 CURVE SMOOTH",
"957 655 OFFCURVE",
"949 725 OFFCURVE",
"930 773 CURVE SMOOTH",
"919 797 OFFCURVE",
"906 816 OFFCURVE",
"906 828 CURVE SMOOTH",
"906 837 OFFCURVE",
"909 848 OFFCURVE",
"916 855 CURVE SMOOTH",
"951 912 OFFCURVE",
"1017 1004 OFFCURVE",
"1087 1070 CURVE SMOOTH",
"1092 1075 OFFCURVE",
"1098 1081 OFFCURVE",
"1107 1081 CURVE SMOOTH",
"1116 1081 OFFCURVE",
"1123 1070 OFFCURVE",
"1128 1061 CURVE SMOOTH",
"1164 1000 OFFCURVE",
"1193 928 OFFCURVE",
"1193 833 CURVE SMOOTH",
"1193 756 OFFCURVE",
"1177 710 OFFCURVE",
"1152 655 CURVE SMOOTH",
"1126 597 OFFCURVE",
"1085 532 OFFCURVE",
"1042 472 CURVE SMOOTH",
"1041 468 OFFCURVE",
"1041 464 OFFCURVE",
"1041 462 CURVE SMOOTH",
"1041 457 OFFCURVE",
"1042 453 OFFCURVE",
"1046 450 CURVE SMOOTH",
"1119 375 OFFCURVE",
"1246 228 OFFCURVE",
"1252 219 CURVE SMOOTH",
"1258 212 OFFCURVE",
"1259 208 OFFCURVE",
"1259 204 CURVE SMOOTH",
"1259 195 OFFCURVE",
"1256 188 OFFCURVE",
"1252 179 CURVE SMOOTH",
"1222 102 OFFCURVE",
"1148 -18 OFFCURVE",
"1133 -34 CURVE SMOOTH",
"1128 -39 OFFCURVE",
"1123 -45 OFFCURVE",
"1116 -45 CURVE SMOOTH",
"1109 -45 OFFCURVE",
"1104 -39 OFFCURVE",
"1100 -36 CURVE SMOOTH",
"1027 48 OFFCURVE",
"914 174 OFFCURVE",
"776 310 CURVE SMOOTH",
"675 407 OFFCURVE",
"615 475 OFFCURVE",
"541 525 CURVE SMOOTH",
"535 529 OFFCURVE",
"530 532 OFFCURVE",
"524 532 CURVE SMOOTH",
"519 532 OFFCURVE",
"514 527 OFFCURVE",
"510 516 CURVE SMOOTH",
"466 337 OFFCURVE",
"435 99 OFFCURVE",
"247 16 CURVE SMOOTH",
"177 -14 OFFCURVE",
"97 -31 OFFCURVE",
"62 -31 CURVE SMOOTH",
"46 -31 OFFCURVE",
"39 -22 OFFCURVE",
"39 -4 CURVE SMOOTH",
"39 58 OFFCURVE",
"95 208 OFFCURVE",
"134 260 CURVE SMOOTH",
"145 274 OFFCURVE",
"150 277 OFFCURVE",
"167 282 CURVE SMOOTH",
"251 301 OFFCURVE",
"251 306 OFFCURVE",
"300 342 CURVE SMOOTH",
"335 366 OFFCURVE",
"338 432 OFFCURVE",
"338 554 CURVE SMOOTH",
"338 660 OFFCURVE",
"181 614 OFFCURVE",
"181 823 CURVE SMOOTH",
"181 831 OFFCURVE",
"179 876 OFFCURVE",
"179 903 CURVE SMOOTH",
"179 939 OFFCURVE",
"177 978 OFFCURVE",
"172 1011 CURVE SMOOTH",
"162 1057 OFFCURVE",
"152 1093 OFFCURVE",
"132 1127 CURVE SMOOTH",
"129 1134 OFFCURVE",
"126 1140 OFFCURVE",
"126 1147 CURVE SMOOTH",
"126 1152 OFFCURVE",
"129 1159 OFFCURVE",
"132 1166 CURVE SMOOTH",
"157 1217 OFFCURVE",
"251 1322 OFFCURVE",
"292 1362 CURVE SMOOTH",
"299 1369 OFFCURVE",
"306 1375 OFFCURVE",
"313 1375 CURVE SMOOTH",
"335 1375 OFFCURVE",
"355 1353 OFFCURVE",
"363 1322 CURVE SMOOTH",
"379 1267 OFFCURVE",
"376 1103 OFFCURVE",
"381 1057 CURVE SMOOTH",
"384 1014 OFFCURVE",
"440 961 OFFCURVE",
"496 930 CURVE SMOOTH",
"596 876 OFFCURVE",
"853 648 OFFCURVE"
);
}
);
width = 1286;
}
);
unicode = 221A;
},
{
glyphname = bar;
lastChange = "2015-11-23 15:57:31 +0000";
layers = (
{
layerId = "BDAF7641-AC9B-4450-A8AE-7BAB26ED3EC6";
name = Bold;
paths = (
{
closed = 1;
nodes = (
"182 -276 CURVE SMOOTH",
"182 -291 OFFCURVE",
"186 -306 OFFCURVE",
"208 -306 CURVE SMOOTH",
"295 -306 LINE SMOOTH",
"315 -306 OFFCURVE",
"322 -292 OFFCURVE",
"322 -277 CURVE SMOOTH",
"329 43 OFFCURVE",
"333 383 OFFCURVE",
"333 498 CURVE SMOOTH",
"333 645 OFFCURVE",
"328 1057 OFFCURVE",
"322 1291 CURVE SMOOTH",
"322 1305 OFFCURVE",
"315 1319 OFFCURVE",
"295 1319 CURVE SMOOTH",
"208 1319 LINE SMOOTH",
"186 1319 OFFCURVE",
"182 1303 OFFCURVE",
"182 1289 CURVE SMOOTH",
"175 1061 OFFCURVE",
"170 645 OFFCURVE",
"170 498 CURVE SMOOTH",
"170 383 OFFCURVE",
"177 0 OFFCURVE"
);
}
);
width = 505;
}
);
},
{
glyphname = ampersand;
lastChange = "2015-11-23 15:57:31 +0000";
layers = (
{
layerId = "BDAF7641-AC9B-4450-A8AE-7BAB26ED3EC6";
name = Bold;
paths = (
{
closed = 1;
nodes = (
"263 925 CURVE SMOOTH",
"263 857 OFFCURVE",
"283 807 OFFCURVE",
"345 724 CURVE",
"309 701 OFFCURVE",
"136 581 OFFCURVE",
"136 364 CURVE SMOOTH",
"136 88 OFFCURVE",
"342 -14 OFFCURVE",
"521 -14 CURVE SMOOTH",
"682 -14 OFFCURVE",
"765 41 OFFCURVE",
"849 99 CURVE",
"860 82 OFFCURVE",
"917 16 OFFCURVE",
"940 -7 CURVE SMOOTH",
"942 -9 OFFCURVE",
"957 -22 OFFCURVE",
"965 -22 CURVE SMOOTH",
"979 -22 OFFCURVE",
"1005 -7 OFFCURVE",
"1010 -4 CURVE SMOOTH",
"1066 31 OFFCURVE",
"1119 67 OFFCURVE",
"1179 118 CURVE SMOOTH",
"1193 131 OFFCURVE",
"1207 145 OFFCURVE",
"1207 158 CURVE SMOOTH",
"1207 165 OFFCURVE",
"1196 171 OFFCURVE",
"1191 176 CURVE SMOOTH",
"1132 224 OFFCURVE",
"1107 255 OFFCURVE",
"1053 321 CURVE",
"1133 417 OFFCURVE",
"1181 539 OFFCURVE",
"1181 658 CURVE SMOOTH",
"1181 737 OFFCURVE",
"1159 816 OFFCURVE",
"1114 884 CURVE SMOOTH",
"1107 894 OFFCURVE",
"1098 900 OFFCURVE",
"1091 900 CURVE SMOOTH",
"1084 900 OFFCURVE",
"1073 891 OFFCURVE",
"1068 886 CURVE SMOOTH",
"1046 865 OFFCURVE",
"935 744 OFFCURVE",
"911 718 CURVE SMOOTH",
"904 711 OFFCURVE",
"897 697 OFFCURVE",
"897 692 CURVE SMOOTH",
"897 688 OFFCURVE",
"901 677 OFFCURVE",
"904 672 CURVE SMOOTH",
"930 634 OFFCURVE",
"969 573 OFFCURVE",
"969 506 CURVE SMOOTH",
"969 482 OFFCURVE",
"965 459 OFFCURVE",
"955 436 CURVE",
"847 561 OFFCURVE",
"832 585 OFFCURVE",
"692 756 CURVE",
"772 817 OFFCURVE",
"917 893 OFFCURVE",
"917 1050 CURVE SMOOTH",
"917 1213 OFFCURVE",
"772 1298 OFFCURVE",
"657 1298 CURVE SMOOTH",
"468 1298 OFFCURVE",
"263 1125 OFFCURVE"
);
},
{
closed = 1;
nodes = (
"577 1138 CURVE SMOOTH",
"630 1138 OFFCURVE",
"652 1089 OFFCURVE",
"652 1036 CURVE SMOOTH",
"652 980 OFFCURVE",
"629 916 OFFCURVE",
"587 889 CURVE",
"550 937 OFFCURVE",
"501 1016 OFFCURVE",
"501 1057 CURVE SMOOTH",
"501 1098 OFFCURVE",
"546 1138 OFFCURVE"
);
},
{
closed = 1;
nodes = (
"460 581 CURVE",
"569 441 OFFCURVE",
"644 351 OFFCURVE",
"755 217 CURVE",
"736 200 OFFCURVE",
"680 185 OFFCURVE",
"634 185 CURVE SMOOTH",
"485 185 OFFCURVE",
"401 308 OFFCURVE",
"401 426 CURVE SMOOTH",
"401 484 OFFCURVE",
"420 539 OFFCURVE"
);
}
);
width = 1273;
}
);
unicode = 0026;
},
{
glyphname = paragraph;
lastChange = "2015-11-23 15:57:31 +0000";
layers = (
{
layerId = "BDAF7641-AC9B-4450-A8AE-7BAB26ED3EC6";
name = Bold;
paths = (
{
closed = 1;
nodes = (
"480 450 CURVE SMOOTH",
"480 428 OFFCURVE",
"468 423 OFFCURVE",
"460 423 CURVE SMOOTH",
"447 423 OFFCURVE",
"419 424 OFFCURVE",
"405 426 CURVE SMOOTH",
"306 439 OFFCURVE",
"258 491 OFFCURVE",
"258 566 CURVE SMOOTH",
"258 638 OFFCURVE",
"297 694 OFFCURVE",
"406 694 CURVE SMOOTH",
"451 694 OFFCURVE",
"468 677 OFFCURVE",
"469 641 CURVE SMOOTH",
"471 604 OFFCURVE",
"480 489 OFFCURVE"
);
},
{
closed = 1;
nodes = (
"646 688 CURVE SMOOTH",
"680 688 OFFCURVE",
"697 674 OFFCURVE",
"697 633 CURVE SMOOTH",
"704 496 OFFCURVE",
"720 -4 OFFCURVE",
"723 -104 CURVE SMOOTH",
"723 -118 OFFCURVE",
"731 -127 OFFCURVE",
"740 -127 CURVE SMOOTH",
"747 -127 OFFCURVE",
"759 -122 OFFCURVE",
"772 -108 CURVE SMOOTH",
"790 -88 OFFCURVE",
"817 -46 OFFCURVE",
"829 -18 CURVE SMOOTH",
"840 5 OFFCURVE",
"842 29 OFFCURVE",
"842 55 CURVE SMOOTH",
"842 178 OFFCURVE",
"831 417 OFFCURVE",
"831 622 CURVE SMOOTH",
"831 670 OFFCURVE",
"834 694 OFFCURVE",
"878 694 CURVE SMOOTH",
"923 694 OFFCURVE",
"938 711 OFFCURVE",
"960 753 CURVE SMOOTH",
"979 790 OFFCURVE",
"994 838 OFFCURVE",
"1012 891 CURVE SMOOTH",
"1021 916 OFFCURVE",
"1027 944 OFFCURVE",
"1027 956 CURVE SMOOTH",
"1027 982 OFFCURVE",
"1014 989 OFFCURVE",
"991 989 CURVE SMOOTH",
"435 989 LINE SMOOTH",
"138 989 OFFCURVE",
"25 826 OFFCURVE",
"25 670 CURVE SMOOTH",
"25 592 OFFCURVE",
"42 509 OFFCURVE",
"93 445 CURVE SMOOTH",
"189 319 OFFCURVE",
"358 285 OFFCURVE",
"461 276 CURVE SMOOTH",
"475 274 OFFCURVE",
"483 267 OFFCURVE",
"483 256 CURVE SMOOTH",
"490 111 OFFCURVE",
"492 -4 OFFCURVE",
"496 -111 CURVE SMOOTH",
"496 -125 OFFCURVE",
"497 -135 OFFCURVE",
"514 -135 CURVE SMOOTH",
"526 -135 OFFCURVE",
"537 -125 OFFCURVE",
"550 -111 CURVE SMOOTH",
"573 -84 OFFCURVE",
"587 -52 OFFCURVE",
"601 -22 CURVE SMOOTH",
"620 16 OFFCURVE",
"620 41 OFFCURVE",
"620 82 CURVE SMOOTH",
"620 207 OFFCURVE",
"603 516 OFFCURVE",
"600 634 CURVE SMOOTH",
"598 679 OFFCURVE",
"615 688 OFFCURVE"
);
}
);
width = 1023;
}
);
unicode = 00B6;
},
{
glyphname = section;
lastChange = "2015-11-23 15:57:31 +0000";
layers = (
{
layerId = "BDAF7641-AC9B-4450-A8AE-7BAB26ED3EC6";
name = Bold;
paths = (
{
closed = 1;
nodes = (
"75 58 CURVE SMOOTH",
"119 25 OFFCURVE",
"204 -7 OFFCURVE",
"306 -2 CURVE SMOOTH",
"428 5 OFFCURVE",
"579 171 OFFCURVE",
"579 267 CURVE SMOOTH",
"579 337 OFFCURVE",
"512 373 OFFCURVE",
"512 389 CURVE SMOOTH",
"512 398 OFFCURVE",
"546 424 OFFCURVE",
"574 457 CURVE SMOOTH",
"616 506 OFFCURVE",
"641 571 OFFCURVE",
"641 627 CURVE SMOOTH",
"641 753 OFFCURVE",
"593 809 OFFCURVE",
"376 927 CURVE SMOOTH",
"239 1000 OFFCURVE",
"223 1029 OFFCURVE",
"223 1068 CURVE SMOOTH",
"223 1091 OFFCURVE",
"252 1111 OFFCURVE",
"273 1111 CURVE SMOOTH",
"342 1111 OFFCURVE",
"399 1059 OFFCURVE",
"453 1011 CURVE SMOOTH",
"476 989 OFFCURVE",
"483 991 OFFCURVE",
"497 991 CURVE SMOOTH",
"510 991 OFFCURVE",
"571 1074 OFFCURVE",
"587 1103 CURVE SMOOTH",
"603 1134 OFFCURVE",
"591 1166 OFFCURVE",
"550 1188 CURVE SMOOTH",
"499 1213 OFFCURVE",
"456 1240 OFFCURVE",
"336 1240 CURVE SMOOTH",
"188 1240 OFFCURVE",
"76 1115 OFFCURVE",
"76 989 CURVE SMOOTH",
"76 894 OFFCURVE",
"143 872 OFFCURVE",
"143 853 CURVE SMOOTH",
"143 846 OFFCURVE",
"114 823 OFFCURVE",
"93 797 CURVE SMOOTH",
"66 763 OFFCURVE",
"34 694 OFFCURVE",
"34 638 CURVE SMOOTH",
"34 511 OFFCURVE",
"82 457 OFFCURVE",
"285 333 CURVE SMOOTH",
"405 260 OFFCURVE",
"428 238 OFFCURVE",
"428 197 CURVE SMOOTH",
"428 183 OFFCURVE",
"408 151 OFFCURVE",
"381 151 CURVE SMOOTH",
"311 151 OFFCURVE",
"234 199 OFFCURVE",
"189 235 CURVE SMOOTH",
"168 253 OFFCURVE",
"162 251 OFFCURVE",
"146 251 CURVE SMOOTH",
"134 251 OFFCURVE",
"68 159 OFFCURVE",
"51 127 CURVE SMOOTH",
"37 97 OFFCURVE",
"39 86 OFFCURVE"
);
},
{
closed = 1;
nodes = (
"218 790 CURVE SMOOTH",
"236 790 OFFCURVE",
"258 771 OFFCURVE",
"288 751 CURVE SMOOTH",
"381 692 OFFCURVE",
"489 641 OFFCURVE",
"489 543 CURVE SMOOTH",
"489 494 OFFCURVE",
"475 473 OFFCURVE",
"458 473 CURVE SMOOTH",
"444 473 OFFCURVE",
"426 489 OFFCURVE",
"399 508 CURVE SMOOTH",
"328 554 OFFCURVE",
"189 626 OFFCURVE",
"189 717 CURVE SMOOTH",
"189 771 OFFCURVE",
"204 790 OFFCURVE"
);
}
);
width = 705;
}
);
unicode = 00A7;
},
{
glyphname = degree;
lastChange = "2015-11-23 15:57:31 +0000";
layers = (
{
layerId = "BDAF7641-AC9B-4450-A8AE-7BAB26ED3EC6";
name = Bold;
paths = (
{
closed = 1;
nodes = (
"34 1031 CURVE SMOOTH",
"34 862 OFFCURVE",
"143 783 OFFCURVE",
"285 783 CURVE SMOOTH",
"426 783 OFFCURVE",
"514 880 OFFCURVE",
"543 946 CURVE SMOOTH",
"553 968 OFFCURVE",
"560 1000 OFFCURVE",
"560 1031 CURVE SMOOTH",
"560 1144 OFFCURVE",
"496 1279 OFFCURVE",
"292 1279 CURVE SMOOTH",
"132 1279 OFFCURVE",
"34 1151 OFFCURVE"
);
},
{
closed = 1;
nodes = (
"319 928 CURVE SMOOTH",
"229 928 OFFCURVE",
"175 959 OFFCURVE",
"175 1038 CURVE SMOOTH",
"175 1065 OFFCURVE",
"177 1074 OFFCURVE",
"181 1084 CURVE SMOOTH",
"189 1111 OFFCURVE",
"218 1131 OFFCURVE",
"265 1131 CURVE SMOOTH",
"383 1131 OFFCURVE",
"410 1072 OFFCURVE",
"410 1014 CURVE SMOOTH",
"410 935 OFFCURVE",
"356 928 OFFCURVE"
);
}
);
width = 594;
}
);
unicode = 00B0;
},
{
glyphname = asciicircum;
lastChange = "2015-11-23 15:57:31 +0000";
layers = (
{
layerId = "BDAF7641-AC9B-4450-A8AE-7BAB26ED3EC6";
name = Bold;
paths = (
{
closed = 1;
nodes = (
"531 1255 LINE",
"550 1255 OFFCURVE",
"553 1249 OFFCURVE",
"559 1238 CURVE",
"559 1238 OFFCURVE",
"670 987 OFFCURVE",
"720 882 CURVE SMOOTH",
"763 790 OFFCURVE",
"867 579 OFFCURVE",
"867 579 CURVE",
"870 571 OFFCURVE",
"872 564 OFFCURVE",
"872 557 CURVE SMOOTH",
"872 549 OFFCURVE",
"868 541 OFFCURVE",
"851 532 CURVE SMOOTH",
"755 487 LINE SMOOTH",
"750 486 OFFCURVE",
"745 482 OFFCURVE",
"740 482 CURVE SMOOTH",
"731 482 OFFCURVE",
"725 487 OFFCURVE",
"720 501 CURVE",
"720 501 OFFCURVE",
"622 727 OFFCURVE",
"586 803 CURVE SMOOTH",
"471 1043 LINE",
"356 803 LINE SMOOTH",
"321 727 OFFCURVE",
"222 501 OFFCURVE",
"222 501 CURVE",
"216 487 OFFCURVE",
"209 484 OFFCURVE",
"200 484 CURVE SMOOTH",
"195 484 OFFCURVE",
"191 486 OFFCURVE",
"186 487 CURVE SMOOTH",
"82 537 LINE SMOOTH",
"71 543 OFFCURVE",
"68 549 OFFCURVE",
"68 556 CURVE SMOOTH",
"68 561 OFFCURVE",
"71 571 OFFCURVE",
"75 579 CURVE",
"75 579 OFFCURVE",
"179 790 OFFCURVE",
"222 882 CURVE SMOOTH",
"272 987 OFFCURVE",
"383 1238 OFFCURVE",
"383 1238 CURVE",
"388 1249 OFFCURVE",
"396 1255 OFFCURVE",
"419 1255 CURVE SMOOTH"
);
}
);
width = 938;
}
);
unicode = 005E;
},
